%TF.GenerationSoftware,KiCad,Pcbnew,10.0.5-10.0.5~ubuntu24.04.1*%
%TF.CreationDate,2026-08-17T14:25:01+08:00*%
%TF.ProjectId,prj3-datalogger,70726a33-2d64-4617-9461-6c6f67676572,${project_name}*%
%TF.SameCoordinates,Original*%
%TF.FileFunction,Copper,L1,Top*%
%TF.FilePolarity,Positive*%
%FSLAX46Y46*%
G04 Gerber Fmt 4.6, Leading zero omitted, Abs format (unit mm)*
G04 Created by KiCad (PCBNEW 10.0.5-10.0.5~ubuntu24.04.1) date 2026-08-17 14:25:01*
%MOMM*%
%LPD*%
G01*
G04 APERTURE LIST*
G04 Aperture macros list*
%AMRoundRect*
0 Rectangle with rounded corners*
0 $1 Rounding radius*
0 $2 $3 $4 $5 $6 $7 $8 $9 X,Y pos of 4 corners*
0 Add a 4 corners polygon primitive as box body*
4,1,4,$2,$3,$4,$5,$6,$7,$8,$9,$2,$3,0*
0 Add four circle primitives for the rounded corners*
1,1,$1+$1,$2,$3*
1,1,$1+$1,$4,$5*
1,1,$1+$1,$6,$7*
1,1,$1+$1,$8,$9*
0 Add four rect primitives between the rounded corners*
20,1,$1+$1,$2,$3,$4,$5,0*
20,1,$1+$1,$4,$5,$6,$7,0*
20,1,$1+$1,$6,$7,$8,$9,0*
20,1,$1+$1,$8,$9,$2,$3,0*%
G04 Aperture macros list end*
%TA.AperFunction,SMDPad,CuDef*%
%ADD10RoundRect,0.250000X-0.250000X-0.475000X0.250000X-0.475000X0.250000X0.475000X-0.250000X0.475000X0*%
%TD*%
%TA.AperFunction,SMDPad,CuDef*%
%ADD11RoundRect,0.250000X-0.262500X-0.450000X0.262500X-0.450000X0.262500X0.450000X-0.262500X0.450000X0*%
%TD*%
%TA.AperFunction,SMDPad,CuDef*%
%ADD12RoundRect,0.250000X-0.450000X0.262500X-0.450000X-0.262500X0.450000X-0.262500X0.450000X0.262500X0*%
%TD*%
%TA.AperFunction,SMDPad,CuDef*%
%ADD13RoundRect,0.243750X-0.243750X-0.456250X0.243750X-0.456250X0.243750X0.456250X-0.243750X0.456250X0*%
%TD*%
%TA.AperFunction,ComponentPad*%
%ADD14R,1.700000X1.700000*%
%TD*%
%TA.AperFunction,ComponentPad*%
%ADD15C,1.700000*%
%TD*%
%TA.AperFunction,SMDPad,CuDef*%
%ADD16RoundRect,0.073750X-0.911250X-0.221250X0.911250X-0.221250X0.911250X0.221250X-0.911250X0.221250X0*%
%TD*%
%TA.AperFunction,SMDPad,CuDef*%
%ADD17RoundRect,0.250001X-1.499999X-0.949999X1.499999X-0.949999X1.499999X0.949999X-1.499999X0.949999X0*%
%TD*%
%TA.AperFunction,SMDPad,CuDef*%
%ADD18RoundRect,0.162500X-0.650000X-0.162500X0.650000X-0.162500X0.650000X0.162500X-0.650000X0.162500X0*%
%TD*%
%TA.AperFunction,SMDPad,CuDef*%
%ADD19RoundRect,0.250000X0.262500X0.450000X-0.262500X0.450000X-0.262500X-0.450000X0.262500X-0.450000X0*%
%TD*%
%TA.AperFunction,SMDPad,CuDef*%
%ADD20RoundRect,0.068750X-0.666250X-0.206250X0.666250X-0.206250X0.666250X0.206250X-0.666250X0.206250X0*%
%TD*%
%TA.AperFunction,SMDPad,CuDef*%
%ADD21RoundRect,0.068750X-0.206250X-0.666250X0.206250X-0.666250X0.206250X0.666250X-0.206250X0.666250X0*%
%TD*%
%TA.AperFunction,SMDPad,CuDef*%
%ADD22RoundRect,0.250001X0.949999X-1.499999X0.949999X1.499999X-0.949999X1.499999X-0.949999X-1.499999X0*%
%TD*%
%TA.AperFunction,ViaPad*%
%ADD23C,0.600000*%
%TD*%
%TA.AperFunction,ViaPad*%
%ADD24C,0.800000*%
%TD*%
%TA.AperFunction,Conductor*%
%ADD25C,0.200000*%
%TD*%
%TA.AperFunction,Conductor*%
%ADD26C,0.250000*%
%TD*%
G04 APERTURE END LIST*
D10*
%TO.P,C1,1*%
%TO.N,Net-(U4-AREF)*%
X166461471Y-91622000D03*
%TO.P,C1,2*%
%TO.N,GND*%
X168361471Y-91622000D03*
%TD*%
D11*
%TO.P,R1,1*%
%TO.N,Net-(D1-K)*%
X166498971Y-87629500D03*
%TO.P,R1,2*%
%TO.N,GND*%
X168323971Y-87629500D03*
%TD*%
D10*
%TO.P,C2,1*%
%TO.N,GND*%
X157561471Y-82122000D03*
%TO.P,C2,2*%
%TO.N,Net-(U4-PB6)*%
X159461471Y-82122000D03*
%TD*%
D11*
%TO.P,R7,1*%
%TO.N,/VCC*%
X152698971Y-87022000D03*
%TO.P,R7,2*%
%TO.N,/RESET*%
X154523971Y-87022000D03*
%TD*%
D12*
%TO.P,R4,1*%
%TO.N,/VCC*%
X146356471Y-96509500D03*
%TO.P,R4,2*%
%TO.N,Net-(U3-SQW{slash}~INT)*%
X146356471Y-98334500D03*
%TD*%
D13*
%TO.P,D1,1,K_1*%
%TO.N,Net-(D1-K)*%
X166573971Y-83622000D03*
%TO.P,D1,2,A_2*%
%TO.N,Net-(BT1-+)*%
X168448971Y-83622000D03*
%TD*%
D14*
%TO.P,J4,1,Pin_1_1*%
%TO.N,/MISO*%
X177586471Y-83282000D03*
D15*
%TO.P,J4,2,Pin_2_2*%
%TO.N,/VCC*%
X180126471Y-83282000D03*
%TO.P,J4,3,Pin_3_3*%
%TO.N,/SCL*%
X177586471Y-85822000D03*
%TO.P,J4,4,Pin_4_4*%
%TO.N,/MOSI*%
X180126471Y-85822000D03*
%TO.P,J4,5,Pin_5_5*%
%TO.N,/RESET*%
X177586471Y-88362000D03*
%TO.P,J4,6,Pin_6_6*%
%TO.N,GND*%
X180126471Y-88362000D03*
%TD*%
D16*
%TO.P,U3,1,X1_1*%
%TO.N,Net-(U3-X1)*%
X138136471Y-96717000D03*
%TO.P,U3,2,X2_2*%
%TO.N,Net-(U3-X2)*%
X138136471Y-97987000D03*
%TO.P,U3,3,~{INTA}_3*%
%TO.N,Net-(U3-~{INTA})*%
X138136471Y-99257000D03*
%TO.P,U3,4,GND_4*%
%TO.N,GND*%
X138136471Y-100527000D03*
%TO.P,U3,5,SDA_5*%
%TO.N,/SDA*%
X143086471Y-100527000D03*
%TO.P,U3,6,SCL_6*%
%TO.N,/SCL*%
X143086471Y-99257000D03*
%TO.P,U3,7,SQW/~INT_7*%
%TO.N,Net-(U3-SQW{slash}~INT)*%
X143086471Y-97987000D03*
%TO.P,U3,8,VCC_8*%
%TO.N,/VCC*%
X143086471Y-96717000D03*
%TD*%
D14*
%TO.P,J3,1,Pin_1_1*%
%TO.N,/D2*%
X136081471Y-105672000D03*
D15*
%TO.P,J3,2,Pin_2_2*%
%TO.N,/D3*%
X138621471Y-105672000D03*
%TO.P,J3,3,Pin_3_3*%
%TO.N,/D4*%
X141161471Y-105672000D03*
%TO.P,J3,4,Pin_4_4*%
%TO.N,/D5*%
X143701471Y-105672000D03*
%TO.P,J3,5,Pin_5_5*%
%TO.N,/D6*%
X146241471Y-105672000D03*
%TO.P,J3,6,Pin_6_6*%
%TO.N,/D7*%
X148781471Y-105672000D03*
%TO.P,J3,7,Pin_7_7*%
%TO.N,/D8*%
X151321471Y-105672000D03*
%TO.P,J3,8,Pin_8_8*%
%TO.N,GND*%
X153861471Y-105672000D03*
%TO.P,J3,9,Pin_9_9*%
%TO.N,/VCC*%
X156401471Y-105672000D03*
%TO.P,J3,10*%
%TO.N,N/C*%
X158941471Y-105672000D03*
%TD*%
D17*
%TO.P,Y2,1,1_1*%
%TO.N,Net-(U4-PB7)*%
X142911471Y-88222000D03*
%TO.P,Y2,2,2_2*%
%TO.N,Net-(U4-PB6)*%
X148111471Y-88222000D03*
%TD*%
D14*
%TO.P,J2,1,Pin_1_1*%
%TO.N,GND*%
X180136471Y-92512000D03*
D15*
%TO.P,J2,2,Pin_2_2*%
%TO.N,/VCC*%
X180136471Y-95052000D03*
%TO.P,J2,3,Pin_3_3*%
%TO.N,/RX*%
X180136471Y-97592000D03*
%TO.P,J2,4,Pin_4_4*%
%TO.N,/TX*%
X180136471Y-100132000D03*
%TD*%
D14*
%TO.P,J1,1,Pin_1_1*%
%TO.N,GND*%
X163701471Y-105522000D03*
D15*
%TO.P,J1,2,Pin_2_2*%
%TO.N,/VCC*%
X166241471Y-105522000D03*
%TO.P,J1,3,Pin_3_3*%
%TO.N,/SDA*%
X168781471Y-105522000D03*
%TO.P,J1,4,Pin_4_4*%
%TO.N,/SCL*%
X171321471Y-105522000D03*
%TD*%
D11*
%TO.P,R5,1*%
%TO.N,/VCC*%
X171098971Y-91622000D03*
%TO.P,R5,2*%
%TO.N,/SCL*%
X172923971Y-91622000D03*
%TD*%
%TO.P,R6,1*%
%TO.N,/VCC*%
X171098971Y-87587000D03*
%TO.P,R6,2*%
%TO.N,/SDA*%
X172923971Y-87587000D03*
%TD*%
D14*
%TO.P,BT1,1,+_1*%
%TO.N,Net-(BT1-+)*%
X170536471Y-78022000D03*
D15*
%TO.P,BT1,2,-_2*%
%TO.N,GND*%
X173076471Y-78022000D03*
%TD*%
D10*
%TO.P,C5,1*%
%TO.N,Net-(BT1-+)*%
X171061471Y-83522000D03*
%TO.P,C5,2*%
%TO.N,GND*%
X172961471Y-83522000D03*
%TD*%
D13*
%TO.P,D2,1,K_1*%
%TO.N,Net-(D2-K)*%
X153573971Y-78422000D03*
%TO.P,D2,2,A_2*%
%TO.N,/SCL*%
X155448971Y-78422000D03*
%TD*%
D18*
%TO.P,U1,1,A0_1*%
%TO.N,/VCC*%
X140823971Y-78117000D03*
%TO.P,U1,2,A1_2*%
%TO.N,GND*%
X140823971Y-79387000D03*
%TO.P,U1,3,A2_3*%
%TO.N,/VCC*%
X140823971Y-80657000D03*
%TO.P,U1,4,GND_4*%
%TO.N,GND*%
X140823971Y-81927000D03*
%TO.P,U1,5,SDA_5*%
%TO.N,/SDA*%
X147998971Y-81927000D03*
%TO.P,U1,6,SCL_6*%
%TO.N,/SCL*%
X147998971Y-80657000D03*
%TO.P,U1,7,WP_7*%
%TO.N,GND*%
X147998971Y-79387000D03*
%TO.P,U1,8,VCC_8*%
%TO.N,/VCC*%
X147998971Y-78117000D03*
%TD*%
D19*
%TO.P,R3,1*%
%TO.N,/VCC*%
X139468971Y-93322000D03*
%TO.P,R3,2*%
%TO.N,Net-(U3-~{INTA})*%
X137643971Y-93322000D03*
%TD*%
D18*
%TO.P,U2,1,A0_1*%
%TO.N,/VCC*%
X130423971Y-84217000D03*
%TO.P,U2,2,A1_2*%
X130423971Y-85487000D03*
%TO.P,U2,3,A2_3*%
X130423971Y-86757000D03*
%TO.P,U2,4,GND_4*%
%TO.N,GND*%
X130423971Y-88027000D03*
%TO.P,U2,5,SDA_5*%
%TO.N,/SDA*%
X137598971Y-88027000D03*
%TO.P,U2,6,SCL_6*%
%TO.N,/SCL*%
X137598971Y-86757000D03*
%TO.P,U2,7,WP_7*%
%TO.N,GND*%
X137598971Y-85487000D03*
%TO.P,U2,8,VCC_8*%
%TO.N,/VCC*%
X137598971Y-84217000D03*
%TD*%
D11*
%TO.P,R2,1*%
%TO.N,GND*%
X157798971Y-78422000D03*
%TO.P,R2,2*%
%TO.N,Net-(D2-K)*%
X159623971Y-78422000D03*
%TD*%
D10*
%TO.P,C3,1*%
%TO.N,GND*%
X162161471Y-78422000D03*
%TO.P,C3,2*%
%TO.N,Net-(U4-PB7)*%
X164061471Y-78422000D03*
%TD*%
D20*
%TO.P,U4,1,PD3_1*%
%TO.N,/D3*%
X153041471Y-92022000D03*
%TO.P,U4,2,PD4_2*%
%TO.N,/D4*%
X153041471Y-92822000D03*
%TO.P,U4,3,GND_3*%
%TO.N,GND*%
X153041471Y-93622000D03*
%TO.P,U4,4,VCC_4*%
%TO.N,Net-(BT1-+)*%
X153041471Y-94422000D03*
%TO.P,U4,5,GND_5*%
%TO.N,GND*%
X153041471Y-95222000D03*
%TO.P,U4,6,VCC_6*%
%TO.N,unconnected-(U4-VCC-Pad6)*%
X153041471Y-96022000D03*
%TO.P,U4,7,PB6_7*%
%TO.N,Net-(U4-PB6)*%
X153041471Y-96822000D03*
%TO.P,U4,8,PB7_8*%
%TO.N,Net-(U4-PB7)*%
X153041471Y-97622000D03*
D21*
%TO.P,U4,9,PD5_9*%
%TO.N,/D5*%
X154411471Y-98992000D03*
%TO.P,U4,10,PD6_10*%
%TO.N,/D6*%
X155211471Y-98992000D03*
%TO.P,U4,11,PD7_11*%
%TO.N,/D7*%
X156011471Y-98992000D03*
%TO.P,U4,12,PB0_12*%
%TO.N,/D8*%
X156811471Y-98992000D03*
%TO.P,U4,13,PB1_13*%
%TO.N,unconnected-(U4-PB1-Pad13)*%
X157611471Y-98992000D03*
%TO.P,U4,14,PB2_14*%
%TO.N,unconnected-(U4-PB2-Pad14)*%
X158411471Y-98992000D03*
%TO.P,U4,15,PB3_15*%
%TO.N,/MOSI*%
X159211471Y-98992000D03*
%TO.P,U4,16,PB4_16*%
%TO.N,/MISO*%
X160011471Y-98992000D03*
D20*
%TO.P,U4,17,PB5_17*%
%TO.N,/SCL*%
X161381471Y-97622000D03*
%TO.P,U4,18,AVCC_18*%
%TO.N,Net-(BT1-+)*%
X161381471Y-96822000D03*
%TO.P,U4,19,ADC6_19*%
%TO.N,unconnected-(U4-ADC6-Pad19)*%
X161381471Y-96022000D03*
%TO.P,U4,20,AREF_20*%
%TO.N,Net-(U4-AREF)*%
X161381471Y-95222000D03*
%TO.P,U4,21,GND_21*%
%TO.N,GND*%
X161381471Y-94422000D03*
%TO.P,U4,22,ADC7_22*%
%TO.N,unconnected-(U4-ADC7-Pad22)*%
X161381471Y-93622000D03*
%TO.P,U4,23,PC0_23*%
%TO.N,unconnected-(U4-PC0-Pad23)*%
X161381471Y-92822000D03*
%TO.P,U4,24,PC1_24*%
%TO.N,unconnected-(U4-PC1-Pad24)*%
X161381471Y-92022000D03*
D21*
%TO.P,U4,25,PC2_25*%
%TO.N,unconnected-(U4-PC2-Pad25)*%
X160011471Y-90652000D03*
%TO.P,U4,26,PC3_26*%
%TO.N,unconnected-(U4-PC3-Pad26)*%
X159211471Y-90652000D03*
%TO.P,U4,27,PC4_27*%
%TO.N,/SDA*%
X158411471Y-90652000D03*
%TO.P,U4,28,PC5_28*%
%TO.N,/SCL*%
X157611471Y-90652000D03*
%TO.P,U4,29,PC6/~{RESET}_29*%
%TO.N,/RESET*%
X156811471Y-90652000D03*
%TO.P,U4,30,PD0_30*%
%TO.N,/RX*%
X156011471Y-90652000D03*
%TO.P,U4,31,PD1_31*%
%TO.N,/TX*%
X155211471Y-90652000D03*
%TO.P,U4,32,PD2_32*%
%TO.N,/D2*%
X154411471Y-90652000D03*
%TD*%
D22*
%TO.P,Y1,1,1_1*%
%TO.N,Net-(U3-X2)*%
X130861471Y-98222000D03*
%TO.P,Y1,2,2_2*%
%TO.N,Net-(U3-X1)*%
X130861471Y-93022000D03*
%TD*%
D10*
%TO.P,C4,1*%
%TO.N,/VCC*%
X142406471Y-93322000D03*
%TO.P,C4,2*%
%TO.N,GND*%
X144306471Y-93322000D03*
%TD*%
D23*
%TO.N,Net-(U4-AREF)*%
X162623471Y-94934000D03*
X166787471Y-92872000D03*
D24*
%TO.N,GND*%
X145600000Y-92400000D03*
X155956000Y-82042000D03*
X165608000Y-90424000D03*
X149606000Y-94996000D03*
X162766471Y-93730341D03*
X135890000Y-100330000D03*
X174485000Y-83312000D03*
X156718000Y-79502000D03*
X139400000Y-84900000D03*
X157226000Y-103124000D03*
D23*
%TO.N,Net-(U4-PB6)*%
X151311471Y-96622000D03*
X149309471Y-92364000D03*
%TO.N,/VCC*%
X135636000Y-84812000D03*
X162300000Y-103300000D03*
D24*
X177546000Y-94488000D03*
X138684000Y-91694000D03*
X152146000Y-88646000D03*
X176530000Y-98000000D03*
D23*
X159700000Y-103200000D03*
D24*
X172000000Y-89916000D03*
D23*
X146812000Y-94996000D03*
%TO.N,Net-(BT1-+)*%
X168311471Y-85022000D03*
X163611471Y-95122000D03*
%TO.N,/MISO*%
X159285206Y-97648265D03*
%TO.N,/SCL*%
X135611471Y-87122000D03*
X141225471Y-99060000D03*
X165101471Y-95158000D03*
X162511468Y-87122000D03*
X159513471Y-89154000D03*
X169711471Y-92222000D03*
%TO.N,/SDA*%
X157481471Y-94996000D03*
X141211471Y-100322000D03*
X135637471Y-88138000D03*
X158711471Y-89122000D03*
X148845471Y-83312000D03*
X172555471Y-89066000D03*
%TO.N,Net-(U4-PB7)*%
X148709471Y-91764000D03*
X163311471Y-87122000D03*
X155957471Y-95342000D03*
%TO.N,/RX*%
X157481471Y-93472000D03*
%TO.N,/TX*%
X156173468Y-93980000D03*
%TD*%
%TO.N,Net-(U4-AREF)*%
D25*
X166787471Y-91948000D02*
X166461471Y-91622000D01*
X162623471Y-94934000D02*
X162335471Y-95222000D01*
X166787471Y-92872000D02*
X166787471Y-91948000D01*
X162335471Y-95222000D02*
X161381471Y-95222000D01*
%TO.N,GND*%
D26*
X173076471Y-83407000D02*
X172961471Y-83522000D01*
X140065000Y-85487000D02*
X140823971Y-84728029D01*
X168323971Y-91584500D02*
X168361471Y-91622000D01*
X151997471Y-93622000D02*
X153041471Y-93622000D01*
X162766471Y-93773529D02*
X162766471Y-93730341D01*
X162118000Y-94422000D02*
X162766471Y-93773529D01*
X158873971Y-79497000D02*
X157798971Y-78422000D01*
X157226000Y-103124000D02*
X156409471Y-103124000D01*
X150302000Y-94300000D02*
X149606000Y-94996000D01*
X168361471Y-90972529D02*
X168361471Y-91622000D01*
X151639471Y-93980000D02*
X151997471Y-93622000D01*
X172974000Y-84582000D02*
X172961471Y-84569471D01*
X157561471Y-82122000D02*
X156036000Y-82122000D01*
X161381471Y-94422000D02*
X162118000Y-94422000D01*
X142380471Y-79387000D02*
X142663471Y-79670000D01*
X138900000Y-85487000D02*
X138900000Y-85400000D01*
X151639471Y-94300000D02*
X150302000Y-94300000D01*
X168323971Y-86929500D02*
X170417471Y-84836000D01*
X138900000Y-85400000D02*
X139400000Y-84900000D01*
X172961471Y-84569471D02*
X172961471Y-83522000D01*
X138136471Y-100527000D02*
X136087000Y-100527000D01*
X142663471Y-79670000D02*
X142749471Y-79756000D01*
X142749471Y-81788000D02*
X142610471Y-81927000D01*
X170417471Y-84836000D02*
X172720000Y-84836000D01*
X162161471Y-78422000D02*
X161086471Y-79497000D01*
X156409471Y-103124000D02*
X153861471Y-105672000D01*
X156036000Y-82122000D02*
X155956000Y-82042000D01*
X140823971Y-79387000D02*
X142380471Y-79387000D01*
X172961471Y-83522000D02*
X174288000Y-83522000D01*
X167812942Y-90424000D02*
X168361471Y-90972529D01*
X161086471Y-79497000D02*
X158873971Y-79497000D01*
X151639471Y-94742000D02*
X152119471Y-95222000D01*
X142946471Y-79387000D02*
X147998971Y-79387000D01*
X131430471Y-88027000D02*
X133970471Y-85487000D01*
X157798971Y-78422000D02*
X157561471Y-78659500D01*
X151639471Y-94742000D02*
X151639471Y-94300000D01*
X172720000Y-84836000D02*
X172974000Y-84582000D01*
X174498000Y-83312000D02*
X174485000Y-83312000D01*
X142749471Y-79756000D02*
X142749471Y-81788000D01*
X168323971Y-87629500D02*
X168323971Y-86929500D01*
X137598971Y-85487000D02*
X138900000Y-85487000D01*
X168361471Y-91622000D02*
X168361471Y-87667000D01*
X180126471Y-88362000D02*
X180126471Y-92502000D01*
X136087000Y-100527000D02*
X135890000Y-100330000D01*
X173076471Y-78022000D02*
X173076471Y-83407000D01*
X138900000Y-85487000D02*
X140065000Y-85487000D01*
X142663471Y-79670000D02*
X142946471Y-79387000D01*
X142610471Y-81927000D02*
X140823971Y-81927000D01*
X133970471Y-85487000D02*
X137598971Y-85487000D01*
X130423971Y-88027000D02*
X131430471Y-88027000D01*
X174288000Y-83522000D02*
X174498000Y-83312000D01*
X151639471Y-94300000D02*
X151639471Y-93980000D01*
X152119471Y-95222000D02*
X153041471Y-95222000D01*
X165608000Y-90424000D02*
X167812942Y-90424000D01*
X168361471Y-87667000D02*
X168323971Y-87629500D01*
X157798971Y-78422000D02*
X157798000Y-78422000D01*
X144678000Y-93322000D02*
X145600000Y-92400000D01*
X140823971Y-84728029D02*
X140823971Y-81927000D01*
X144306471Y-93322000D02*
X144678000Y-93322000D01*
X180126471Y-88362000D02*
X180136471Y-88372000D01*
X157798000Y-78422000D02*
X156718000Y-79502000D01*
X180126471Y-92502000D02*
X180136471Y-92512000D01*
X155956000Y-82042000D02*
X155914000Y-82000000D01*
%TO.N,Net-(D1-K)*%
D25*
X166573971Y-83622000D02*
X166573971Y-87554500D01*
X166573971Y-87554500D02*
X166498971Y-87629500D01*
%TO.N,Net-(U4-PB6)*%
X151335471Y-84998000D02*
X148111471Y-88222000D01*
X149309471Y-92364000D02*
X149309471Y-91220000D01*
X151511471Y-96822000D02*
X151311471Y-96622000D01*
X148111471Y-90022000D02*
X148111471Y-88222000D01*
X156585471Y-84998000D02*
X151335471Y-84998000D01*
X153041471Y-96822000D02*
X151511471Y-96822000D01*
X149309471Y-91220000D02*
X148111471Y-90022000D01*
X159461471Y-82122000D02*
X156585471Y-84998000D01*
%TO.N,/VCC*%
D26*
X180126471Y-82082471D02*
X180126471Y-83282000D01*
X137598971Y-84217000D02*
X136231000Y-84217000D01*
X171098971Y-87587000D02*
X171098971Y-85441029D01*
X139636471Y-79776642D02*
X139636471Y-78492001D01*
X172000000Y-89916000D02*
X172000000Y-90720971D01*
X175260000Y-81534000D02*
X179578000Y-81534000D01*
X152698971Y-87022000D02*
X152698971Y-88093029D01*
X178110000Y-95052000D02*
X177546000Y-94488000D01*
X146148971Y-96717000D02*
X146356471Y-96509500D01*
X143086471Y-95079000D02*
X143086471Y-96717000D01*
X179578000Y-81534000D02*
X180126471Y-82082471D01*
X140516829Y-80657000D02*
X139636471Y-79776642D01*
X146356471Y-96509500D02*
X146356471Y-95451529D01*
X143086471Y-96717000D02*
X146148971Y-96717000D01*
X140011472Y-78117000D02*
X140823971Y-78117000D01*
X171098971Y-91622000D02*
X171098971Y-87587000D01*
X139468971Y-92478971D02*
X138684000Y-91694000D01*
X171098971Y-92103500D02*
X171098971Y-91622000D01*
X130423971Y-84217000D02*
X137598971Y-84217000D01*
X139468971Y-93322000D02*
X139468971Y-92478971D01*
X180136471Y-95052000D02*
X178110000Y-95052000D01*
X142406471Y-93322000D02*
X142406471Y-94399000D01*
X177546000Y-94488000D02*
X176530000Y-95504000D01*
X140823971Y-80657000D02*
X140516829Y-80657000D01*
X171098971Y-85441029D02*
X171196000Y-85344000D01*
X172000000Y-90720971D02*
X171098971Y-91622000D01*
X130423971Y-84217000D02*
X130423971Y-85487000D01*
X176530000Y-95504000D02*
X176530000Y-98000000D01*
X139636471Y-78492001D02*
X140011472Y-78117000D01*
X130423971Y-85487000D02*
X130423971Y-86757000D01*
X152698971Y-88093029D02*
X152146000Y-88646000D01*
X146356471Y-95451529D02*
X146812000Y-94996000D01*
X142406471Y-94399000D02*
X143086471Y-95079000D01*
X137598971Y-84217000D02*
X137598971Y-81814142D01*
X175260000Y-84074000D02*
X175260000Y-81534000D01*
X171196000Y-85344000D02*
X173990000Y-85344000D01*
X147998971Y-78117000D02*
X140823971Y-78117000D01*
X137598971Y-81814142D02*
X139636471Y-79776642D01*
X173990000Y-85344000D02*
X175260000Y-84074000D01*
X139468971Y-93322000D02*
X142406471Y-93322000D01*
X136231000Y-84217000D02*
X135636000Y-84812000D01*
%TO.N,/RESET*%
D25*
X164847471Y-93218000D02*
X164847471Y-89408000D01*
X154523971Y-87022000D02*
X156811471Y-89309500D01*
X177586471Y-88362000D02*
X173991471Y-91957000D01*
X173991471Y-91957000D02*
X173991471Y-93218000D01*
X156811471Y-89309500D02*
X156811471Y-90652000D01*
X165101471Y-93472000D02*
X164847471Y-93218000D01*
X164847471Y-89408000D02*
X163323471Y-87884000D01*
X173991471Y-93218000D02*
X173737471Y-93472000D01*
X158236971Y-87884000D02*
X156811471Y-89309500D01*
X173737471Y-93472000D02*
X165101471Y-93472000D01*
X163323471Y-87884000D02*
X158236971Y-87884000D01*
%TO.N,Net-(U3-SQW{slash}~INT)*%
X145071971Y-98334500D02*
X144724471Y-97987000D01*
X144724471Y-97987000D02*
X143086471Y-97987000D01*
X146356471Y-98334500D02*
X145071971Y-98334500D01*
%TO.N,Net-(BT1-+)*%
X161381471Y-96822000D02*
X158286000Y-96822000D01*
X163611471Y-95327000D02*
X163611471Y-95122000D01*
X171061471Y-78604000D02*
X171061471Y-83522000D01*
X153199471Y-94580000D02*
X153041471Y-94422000D01*
X158286000Y-96822000D02*
X156044000Y-94580000D01*
X168311471Y-83759500D02*
X168448971Y-83622000D01*
X161381471Y-96822000D02*
X162116471Y-96822000D01*
X168311471Y-85022000D02*
X168311471Y-83759500D01*
X162116471Y-96822000D02*
X163611471Y-95327000D01*
X171061471Y-83522000D02*
X168548971Y-83522000D01*
X170536471Y-78079000D02*
X171061471Y-78604000D01*
X170536471Y-78022000D02*
X170536471Y-78079000D01*
X156044000Y-94580000D02*
X153199471Y-94580000D01*
X153041471Y-94422000D02*
X153216471Y-94597000D01*
X168548971Y-83522000D02*
X168448971Y-83622000D01*
%TO.N,/MISO*%
X160011471Y-98374530D02*
X160011471Y-98992000D01*
X159285206Y-97648265D02*
X160011471Y-98374530D01*
%TO.N,/SCL*%
X163323471Y-102362000D02*
X163831471Y-102870000D01*
X162511468Y-87122000D02*
X162307471Y-86918003D01*
X162307471Y-81788000D02*
X160783471Y-80264000D01*
X171835971Y-92710000D02*
X170199471Y-92710000D01*
X159513471Y-89154000D02*
X159513471Y-89011000D01*
X160783471Y-80264000D02*
X154453471Y-80264000D01*
X177586471Y-85822000D02*
X174529471Y-85822000D01*
X164911471Y-95158000D02*
X164085471Y-94332000D01*
X159513471Y-89011000D02*
X158911471Y-88409000D01*
X165101471Y-95158000D02*
X164911471Y-95158000D01*
X148706471Y-80657000D02*
X147998971Y-80657000D01*
X145150471Y-80657000D02*
X147998971Y-80657000D01*
X139499314Y-86757000D02*
X142673940Y-83582375D01*
X163323471Y-98552000D02*
X163323471Y-102362000D01*
X155448971Y-78422000D02*
X154114971Y-79756000D01*
X144781471Y-83058000D02*
X144781471Y-81026000D01*
X170199471Y-92710000D02*
X169711471Y-92222000D01*
X164139471Y-95930000D02*
X164085471Y-95930000D01*
X158911471Y-88409000D02*
X158911471Y-88392000D01*
X149607471Y-79756000D02*
X148706471Y-80657000D01*
X141422471Y-99257000D02*
X143086471Y-99257000D01*
X158497471Y-88392000D02*
X157611471Y-89278000D01*
X154453471Y-80264000D02*
X154114971Y-79925500D01*
X142673940Y-83582375D02*
X144257096Y-83582375D01*
X137598971Y-86757000D02*
X139499314Y-86757000D01*
X154114971Y-79756000D02*
X149607471Y-79756000D01*
X135611471Y-87122000D02*
X135976471Y-86757000D01*
X164085471Y-94332000D02*
X164085471Y-89662000D01*
X157611471Y-89278000D02*
X157611471Y-90652000D01*
X172923971Y-91622000D02*
X171835971Y-92710000D01*
X174529471Y-85822000D02*
X173991471Y-86360000D01*
X162393471Y-97622000D02*
X163323471Y-98552000D01*
X158911471Y-88392000D02*
X158497471Y-88392000D01*
X154114971Y-79925500D02*
X154114971Y-79756000D01*
X164085471Y-89662000D02*
X162815471Y-88392000D01*
X144781471Y-81026000D02*
X145150471Y-80657000D01*
X143086471Y-99257000D02*
X143143471Y-99314000D01*
X162307471Y-86918003D02*
X162307471Y-81788000D01*
X168669471Y-102870000D02*
X171321471Y-105522000D01*
X173991471Y-90554500D02*
X172923971Y-91622000D01*
X173991471Y-86360000D02*
X173991471Y-90554500D01*
X164085471Y-95930000D02*
X162393471Y-97622000D01*
X162815471Y-88392000D02*
X158911471Y-88392000D01*
X135976471Y-86757000D02*
X137598971Y-86757000D01*
X161381471Y-97622000D02*
X162393471Y-97622000D01*
X163831471Y-102870000D02*
X168669471Y-102870000D01*
X141225471Y-99060000D02*
X141422471Y-99257000D01*
X144257096Y-83582375D02*
X144781471Y-83058000D01*
X164911471Y-95158000D02*
X164139471Y-95930000D01*
%TO.N,/MOSI*%
X180126471Y-85822000D02*
X180126471Y-85968529D01*
X161037471Y-101553000D02*
X159211471Y-99727000D01*
X180126471Y-85968529D02*
X178816000Y-87279000D01*
X175260000Y-92710000D02*
X175260000Y-104903471D01*
X178816000Y-89154000D02*
X175260000Y-92710000D01*
X159211471Y-99727000D02*
X159211471Y-98992000D01*
X178816000Y-87279000D02*
X178816000Y-89154000D01*
X172721471Y-107442000D02*
X161545471Y-107442000D01*
X175260000Y-104903471D02*
X172721471Y-107442000D01*
X161545471Y-107442000D02*
X161037471Y-106934000D01*
X161037471Y-106934000D02*
X161037471Y-101553000D01*
%TO.N,Net-(U3-X1)*%
X130861471Y-93022000D02*
X133155471Y-93022000D01*
X133802471Y-96717000D02*
X138136471Y-96717000D01*
X133351471Y-93218000D02*
X133351471Y-96266000D01*
X133155471Y-93022000D02*
X133351471Y-93218000D01*
X133351471Y-96266000D02*
X133802471Y-96717000D01*
%TO.N,Net-(U3-X2)*%
X130861471Y-98222000D02*
X131096471Y-97987000D01*
X131096471Y-97987000D02*
X138136471Y-97987000D01*
%TO.N,Net-(U3-~{INTA})*%
X139955471Y-98423000D02*
X139121471Y-99257000D01*
X139447471Y-95250000D02*
X139955471Y-95758000D01*
X139955471Y-95758000D02*
X139955471Y-98423000D01*
X137643971Y-93322000D02*
X137643971Y-94716500D01*
X139121471Y-99257000D02*
X138136471Y-99257000D01*
X137643971Y-94716500D02*
X138177471Y-95250000D01*
X138177471Y-95250000D02*
X139447471Y-95250000D01*
%TO.N,/SDA*%
X158243471Y-90820000D02*
X158411471Y-90652000D01*
X143086471Y-100527000D02*
X141416471Y-100527000D01*
X138939471Y-87498999D02*
X139323001Y-87498999D01*
X147998971Y-82465500D02*
X148845471Y-83312000D01*
X172923971Y-87587000D02*
X172923971Y-88697500D01*
X139323001Y-87498999D02*
X142839625Y-83982375D01*
X158411471Y-89422000D02*
X158711471Y-89122000D01*
X158411471Y-90652000D02*
X158411471Y-89422000D01*
X137598971Y-88027000D02*
X135748471Y-88027000D01*
X135748471Y-88027000D02*
X135637471Y-88138000D01*
X137598971Y-88027000D02*
X138411470Y-88027000D01*
X147998971Y-81927000D02*
X147998971Y-82465500D01*
X138411470Y-88027000D02*
X138939471Y-87498999D01*
X142839625Y-83982375D02*
X144422782Y-83982375D01*
X157481471Y-94996000D02*
X158243471Y-94234000D01*
X144422782Y-83982375D02*
X145181471Y-83223685D01*
X158243471Y-94234000D02*
X158243471Y-90820000D01*
X172923971Y-88697500D02*
X172467471Y-89154000D01*
X145181471Y-83223685D02*
X145181471Y-82150000D01*
X141416471Y-100527000D02*
X141211471Y-100322000D01*
X145404471Y-81927000D02*
X147998971Y-81927000D01*
X145181471Y-82150000D02*
X145404471Y-81927000D01*
%TO.N,/D2*%
X136645471Y-105672000D02*
X139955471Y-102362000D01*
X136081471Y-105672000D02*
X136645471Y-105672000D01*
X151919471Y-90652000D02*
X154411471Y-90652000D01*
X147937471Y-98444000D02*
X147937471Y-93814314D01*
X144019471Y-102362000D02*
X147937471Y-98444000D01*
X139955471Y-102362000D02*
X144019471Y-102362000D01*
X149607471Y-92964000D02*
X151919471Y-90652000D01*
X147937471Y-93814314D02*
X148787786Y-92964000D01*
X148787786Y-92964000D02*
X149607471Y-92964000D01*
%TO.N,/D3*%
X148953471Y-93364000D02*
X149773157Y-93364000D01*
X151115157Y-92022000D02*
X153041471Y-92022000D01*
X138621471Y-105672000D02*
X141423471Y-102870000D01*
X148337471Y-93980000D02*
X148953471Y-93364000D01*
X144077156Y-102870000D02*
X148337471Y-98609685D01*
X148337471Y-98609685D02*
X148337471Y-93980000D01*
X141423471Y-102870000D02*
X144077156Y-102870000D01*
X149773157Y-93364000D02*
X151115157Y-92022000D01*
%TO.N,/D4*%
X141161471Y-105672000D02*
X141733471Y-105100000D01*
X149315471Y-93764000D02*
X149938843Y-93764000D01*
X148845471Y-98806000D02*
X148845471Y-94234000D01*
X144273471Y-103378000D02*
X148845471Y-98806000D01*
X148845471Y-94234000D02*
X149315471Y-93764000D01*
X141733471Y-105100000D02*
X141789471Y-105100000D01*
X141789471Y-105100000D02*
X143511471Y-103378000D01*
X143511471Y-103378000D02*
X144273471Y-103378000D01*
X149938843Y-93764000D02*
X150880843Y-92822000D01*
X150880843Y-92822000D02*
X153041471Y-92822000D01*
%TO.N,/D5*%
X143701471Y-105672000D02*
X147011471Y-102362000D01*
X153613785Y-102362000D02*
X153925471Y-102050314D01*
X147011471Y-102362000D02*
X153613785Y-102362000D01*
X153925471Y-102050314D02*
X153925471Y-100838000D01*
X153925471Y-100838000D02*
X154411471Y-100352000D01*
X154411471Y-100352000D02*
X154411471Y-98992000D01*
%TO.N,/D6*%
X146241471Y-105672000D02*
X149151471Y-102762000D01*
X153779471Y-102762000D02*
X154392471Y-102149000D01*
X154392471Y-102149000D02*
X154392471Y-100936686D01*
X149151471Y-102762000D02*
X153779471Y-102762000D01*
X154392471Y-100936686D02*
X155211471Y-100117686D01*
X155211471Y-100117686D02*
X155211471Y-98992000D01*
%TO.N,/D7*%
X151344472Y-103162000D02*
X153945157Y-103162000D01*
X156011471Y-99961314D02*
X156011471Y-98992000D01*
X154792471Y-102314685D02*
X154792471Y-101180314D01*
X154792471Y-101180314D02*
X156011471Y-99961314D01*
X148781471Y-105672000D02*
X148834471Y-105672000D01*
X148834471Y-105672000D02*
X151344472Y-103162000D01*
X153945157Y-103162000D02*
X154792471Y-102314685D01*
%TO.N,/D8*%
X154110843Y-103562000D02*
X155192471Y-102480370D01*
X151321471Y-105672000D02*
X153431471Y-103562000D01*
X155192471Y-101346000D02*
X156811471Y-99727000D01*
X153431471Y-103562000D02*
X154110843Y-103562000D01*
X155192471Y-102480370D02*
X155192471Y-101346000D01*
X156811471Y-99727000D02*
X156811471Y-98992000D01*
%TO.N,Net-(U4-PB7)*%
X153041471Y-97622000D02*
X155617471Y-97622000D01*
X148709471Y-91764000D02*
X148844000Y-91629471D01*
X145113471Y-90424000D02*
X142911471Y-88222000D01*
X148844000Y-91438529D02*
X147829471Y-90424000D01*
X163311471Y-81322000D02*
X164061471Y-80572000D01*
X148844000Y-91629471D02*
X148844000Y-91438529D01*
X164061471Y-80572000D02*
X164061471Y-78422000D01*
X163311471Y-87122000D02*
X163311471Y-81322000D01*
X155957471Y-97282000D02*
X155957471Y-95342000D01*
X155617471Y-97622000D02*
X155957471Y-97282000D01*
X147829471Y-90424000D02*
X145113471Y-90424000D01*
%TO.N,/RX*%
X156011471Y-92322000D02*
X156011471Y-90652000D01*
X156973471Y-93284000D02*
X156011471Y-92322000D01*
X180080471Y-97536000D02*
X180136471Y-97592000D01*
X157293471Y-93284000D02*
X156973471Y-93284000D01*
X157481471Y-93472000D02*
X157293471Y-93284000D01*
%TO.N,/TX*%
X155449471Y-93980000D02*
X155275471Y-93806000D01*
X156173468Y-93980000D02*
X155449471Y-93980000D01*
X155275471Y-93806000D02*
X155275471Y-90716000D01*
X180080471Y-100076000D02*
X180136471Y-100132000D01*
X155275471Y-90716000D02*
X155211471Y-90652000D01*
%TO.N,Net-(D2-K)*%
X153925471Y-76962000D02*
X159259471Y-76962000D01*
X153573971Y-77313500D02*
X153925471Y-76962000D01*
X159259471Y-76962000D02*
X159623971Y-77326500D01*
X153573971Y-78422000D02*
X153573971Y-77313500D01*
X159623971Y-77326500D02*
X159623971Y-78422000D01*
%TD*%
%TA.AperFunction,Conductor*%
%TO.N,/VCC*%
G36*
X154806970Y-75702421D02*
G01*
X174755616Y-75705997D01*
X174822650Y-75725694D01*
X174843278Y-75742321D01*
X176762768Y-77662156D01*
X176770659Y-77670048D01*
X176804139Y-77731374D01*
X176806970Y-77757721D01*
X176806970Y-80427615D01*
X177106970Y-80906366D01*
X180062055Y-80906366D01*
X180129094Y-80926051D01*
X180149749Y-80942698D01*
X181113137Y-81906366D01*
X182066843Y-82860350D01*
X182076525Y-82870034D01*
X182110001Y-82931362D01*
X182112831Y-82957738D01*
X182107795Y-100264831D01*
X182088091Y-100331865D01*
X182071371Y-100352581D01*
X181542347Y-100880339D01*
X181480984Y-100913751D01*
X181411298Y-100908683D01*
X181355415Y-100866744D01*
X181331076Y-100801251D01*
X181344286Y-100736259D01*
X181388028Y-100650412D01*
X181453717Y-100448243D01*
X181486971Y-100238287D01*
X181486971Y-100025713D01*
X181453717Y-99815757D01*
X181388028Y-99613588D01*
X181291522Y-99424184D01*
X181291520Y-99424181D01*
X181291519Y-99424179D01*
X181166580Y-99252213D01*
X181016257Y-99101890D01*
X180844291Y-98976951D01*
X180843586Y-98976591D01*
X180835525Y-98972485D01*
X180784730Y-98924512D01*
X180767934Y-98856692D01*
X180790470Y-98790556D01*
X180835525Y-98751515D01*
X180844287Y-98747051D01*
X180868930Y-98729147D01*
X181016257Y-98622109D01*
X181016259Y-98622106D01*
X181016263Y-98622104D01*
X181166575Y-98471792D01*
X181166577Y-98471788D01*
X181166580Y-98471786D01*
X181291519Y-98299820D01*
X181291518Y-98299820D01*
X181291522Y-98299816D01*
X181388028Y-98110412D01*
X181453717Y-97908243D01*
X181486971Y-97698287D01*
X181486971Y-97485713D01*
X181453717Y-97275757D01*
X181388028Y-97073588D01*
X181291522Y-96884184D01*
X181291520Y-96884181D01*
X181291519Y-96884179D01*
X181166580Y-96712213D01*
X181016257Y-96561890D01*
X180844288Y-96436949D01*
X180834975Y-96432204D01*
X180784178Y-96384230D01*
X180767383Y-96316409D01*
X180789920Y-96250274D01*
X180834978Y-96211232D01*
X180844026Y-96206622D01*
X180898187Y-96167270D01*
X180898188Y-96167270D01*
X180265879Y-95534962D01*
X180329464Y-95517925D01*
X180443478Y-95452099D01*
X180536570Y-95359007D01*
X180602396Y-95244993D01*
X180619433Y-95181408D01*
X181251741Y-95813717D01*
X181251741Y-95813716D01*
X181291093Y-95759554D01*
X181387566Y-95570217D01*
X181453228Y-95368130D01*
X181453228Y-95368127D01*
X181486471Y-95158246D01*
X181486471Y-94945753D01*
X181453228Y-94735872D01*
X181453228Y-94735869D01*
X181387566Y-94533782D01*
X181291095Y-94344449D01*
X181251741Y-94290282D01*
X181251740Y-94290282D01*
X180619433Y-94922590D01*
X180602396Y-94859007D01*
X180536570Y-94744993D01*
X180443478Y-94651901D01*
X180329464Y-94586075D01*
X180265880Y-94569037D01*
X180936098Y-93898818D01*
X180997421Y-93865333D01*
X181023778Y-93862499D01*
X181034343Y-93862499D01*
X181093954Y-93856091D01*
X181228802Y-93805796D01*
X181344017Y-93719546D01*
X181430267Y-93604331D01*
X181480562Y-93469483D01*
X181486971Y-93409873D01*
X181486970Y-91614128D01*
X181480562Y-91554517D01*
X181472949Y-91534106D01*
X181430268Y-91419671D01*
X181430264Y-91419664D01*
X181344018Y-91304455D01*
X181344015Y-91304452D01*
X181228806Y-91218206D01*
X181228799Y-91218202D01*
X181093953Y-91167908D01*
X181093954Y-91167908D01*
X181034354Y-91161501D01*
X181034352Y-91161500D01*
X181034344Y-91161500D01*
X181034336Y-91161500D01*
X180875971Y-91161500D01*
X180808932Y-91141815D01*
X180763177Y-91089011D01*
X180751971Y-91037500D01*
X180751971Y-89634980D01*
X180771656Y-89567941D01*
X180819679Y-89524494D01*
X180834289Y-89517050D01*
X181006257Y-89392109D01*
X181006259Y-89392106D01*
X181006263Y-89392104D01*
X181156575Y-89241792D01*
X181156577Y-89241788D01*
X181156580Y-89241786D01*
X181281519Y-89069820D01*
X181281518Y-89069820D01*
X181281522Y-89069816D01*
X181378028Y-88880412D01*
X181443717Y-88678243D01*
X181476971Y-88468287D01*
X181476971Y-88255713D01*
X181443717Y-88045757D01*
X181378028Y-87843588D01*
X181281522Y-87654184D01*
X181281520Y-87654181D01*
X181281519Y-87654179D01*
X181156580Y-87482213D01*
X181006257Y-87331890D01*
X180834291Y-87206951D01*
X180833586Y-87206591D01*
X180825525Y-87202485D01*
X180774730Y-87154512D01*
X180757934Y-87086692D01*
X180780470Y-87020556D01*
X180825525Y-86981515D01*
X180834287Y-86977051D01*
X180904110Y-86926322D01*
X181006257Y-86852109D01*
X181006259Y-86852106D01*
X181006263Y-86852104D01*
X181156575Y-86701792D01*
X181156577Y-86701788D01*
X181156580Y-86701786D01*
X181276422Y-86536835D01*
X181281522Y-86529816D01*
X181378028Y-86340412D01*
X181443717Y-86138243D01*
X181476971Y-85928287D01*
X181476971Y-85715713D01*
X181443717Y-85505757D01*
X181378028Y-85303588D01*
X181281522Y-85114184D01*
X181281520Y-85114181D01*
X181281519Y-85114179D01*
X181156580Y-84942213D01*
X181006257Y-84791890D01*
X180834288Y-84666949D01*
X180824975Y-84662204D01*
X180774178Y-84614230D01*
X180757383Y-84546409D01*
X180779920Y-84480274D01*
X180824978Y-84441232D01*
X180834026Y-84436622D01*
X180888187Y-84397270D01*
X180888188Y-84397270D01*
X180255879Y-83764962D01*
X180319464Y-83747925D01*
X180433478Y-83682099D01*
X180526570Y-83589007D01*
X180592396Y-83474993D01*
X180609433Y-83411409D01*
X181241741Y-84043717D01*
X181241741Y-84043716D01*
X181281093Y-83989554D01*
X181377566Y-83800217D01*
X181443228Y-83598130D01*
X181443228Y-83598127D01*
X181476471Y-83388246D01*
X181476471Y-83175753D01*
X181443228Y-82965872D01*
X181443228Y-82965869D01*
X181377566Y-82763782D01*
X181281095Y-82574449D01*
X181241741Y-82520282D01*
X181241740Y-82520282D01*
X180609433Y-83152590D01*
X180592396Y-83089007D01*
X180526570Y-82974993D01*
X180433478Y-82881901D01*
X180319464Y-82816075D01*
X180255880Y-82799037D01*
X180888187Y-82166728D01*
X180834021Y-82127375D01*
X180644688Y-82030904D01*
X180442600Y-81965242D01*
X180232717Y-81932000D01*
X180020225Y-81932000D01*
X179810343Y-81965242D01*
X179810340Y-81965242D01*
X179608253Y-82030904D01*
X179418910Y-82127380D01*
X179364753Y-82166727D01*
X179364753Y-82166728D01*
X179997062Y-82799037D01*
X179933478Y-82816075D01*
X179819464Y-82881901D01*
X179726372Y-82974993D01*
X179660546Y-83089007D01*
X179643508Y-83152591D01*
X178973289Y-82482372D01*
X178939804Y-82421049D01*
X178939801Y-82421036D01*
X178936970Y-82408015D01*
X178936970Y-82384128D01*
X178930562Y-82324517D01*
X178887808Y-82209887D01*
X178880269Y-82189673D01*
X178880264Y-82189664D01*
X178794018Y-82074455D01*
X178794015Y-82074452D01*
X178678806Y-81988206D01*
X178678799Y-81988202D01*
X178543953Y-81937908D01*
X178543954Y-81937908D01*
X178484354Y-81931501D01*
X178484352Y-81931500D01*
X178484344Y-81931500D01*
X178484335Y-81931500D01*
X176688600Y-81931500D01*
X176688594Y-81931501D01*
X176628987Y-81937908D01*
X176494142Y-81988202D01*
X176494135Y-81988206D01*
X176378926Y-82074452D01*
X176378923Y-82074455D01*
X176292677Y-82189664D01*
X176292673Y-82189671D01*
X176242379Y-82324517D01*
X176235972Y-82384116D01*
X176235971Y-82384135D01*
X176235971Y-84179870D01*
X176235972Y-84179876D01*
X176242379Y-84239483D01*
X176292673Y-84374328D01*
X176292677Y-84374335D01*
X176378923Y-84489544D01*
X176378926Y-84489547D01*
X176494135Y-84575793D01*
X176494142Y-84575797D01*
X176625553Y-84624810D01*
X176681487Y-84666681D01*
X176705904Y-84732145D01*
X176691053Y-84800418D01*
X176669902Y-84828673D01*
X176556360Y-84942215D01*
X176431419Y-85114184D01*
X176431418Y-85114185D01*
X176411236Y-85153795D01*
X176363262Y-85204591D01*
X176300752Y-85221500D01*
X174616140Y-85221500D01*
X174616124Y-85221499D01*
X174608528Y-85221499D01*
X174450414Y-85221499D01*
X174343058Y-85250265D01*
X174297681Y-85262424D01*
X174297680Y-85262425D01*
X174263190Y-85282339D01*
X174263188Y-85282340D01*
X174160761Y-85341475D01*
X174160753Y-85341481D01*
X173510950Y-85991284D01*
X173489925Y-86027703D01*
X173470477Y-86061388D01*
X173463597Y-86073305D01*
X173431894Y-86128214D01*
X173390968Y-86280949D01*
X173390927Y-86281268D01*
X173390816Y-86281516D01*
X173388867Y-86288794D01*
X173387731Y-86288489D01*
X173362655Y-86345162D01*
X173304328Y-86383629D01*
X173255389Y-86388431D01*
X173236494Y-86386501D01*
X173236485Y-86386500D01*
X173236480Y-86386500D01*
X173236474Y-86386500D01*
X172611469Y-86386500D01*
X172611451Y-86386501D01*
X172508674Y-86397000D01*
X172508671Y-86397001D01*
X172342139Y-86452185D01*
X172342134Y-86452187D01*
X172192816Y-86544287D01*
X172098798Y-86638305D01*
X172037474Y-86671789D01*
X171967783Y-86666805D01*
X171923436Y-86638304D01*
X171829816Y-86544684D01*
X171680595Y-86452643D01*
X171680590Y-86452641D01*
X171514168Y-86397494D01*
X171514161Y-86397493D01*
X171411457Y-86387000D01*
X171348971Y-86387000D01*
X171348971Y-88786999D01*
X171411443Y-88786999D01*
X171411457Y-88786998D01*
X171514166Y-88776506D01*
X171614647Y-88743209D01*
X171684475Y-88740807D01*
X171744517Y-88776538D01*
X171775711Y-88839058D01*
X171775270Y-88885105D01*
X171754971Y-88987158D01*
X171754971Y-89144846D01*
X171785732Y-89299489D01*
X171785735Y-89299501D01*
X171846073Y-89445172D01*
X171846080Y-89445185D01*
X171933681Y-89576288D01*
X171933684Y-89576292D01*
X172045178Y-89687786D01*
X172045182Y-89687789D01*
X172176285Y-89775390D01*
X172176298Y-89775397D01*
X172292431Y-89823500D01*
X172321974Y-89835737D01*
X172427935Y-89856814D01*
X172476624Y-89866499D01*
X172476627Y-89866500D01*
X172476629Y-89866500D01*
X172634315Y-89866500D01*
X172634316Y-89866499D01*
X172788968Y-89835737D01*
X172934650Y-89775394D01*
X173065760Y-89687789D01*
X173119146Y-89634403D01*
X173179290Y-89574260D01*
X173240613Y-89540775D01*
X173310305Y-89545759D01*
X173366238Y-89587631D01*
X173390655Y-89653095D01*
X173390971Y-89661941D01*
X173390971Y-90254401D01*
X173371286Y-90321440D01*
X173354652Y-90342082D01*
X173311553Y-90385181D01*
X173250230Y-90418666D01*
X173223872Y-90421500D01*
X172611469Y-90421500D01*
X172611451Y-90421501D01*
X172508674Y-90432000D01*
X172508671Y-90432001D01*
X172342139Y-90487185D01*
X172342134Y-90487187D01*
X172192816Y-90579287D01*
X172098798Y-90673305D01*
X172037474Y-90706789D01*
X171967783Y-90701805D01*
X171923436Y-90673304D01*
X171829816Y-90579684D01*
X171680595Y-90487643D01*
X171680590Y-90487641D01*
X171514168Y-90432494D01*
X171514161Y-90432493D01*
X171411457Y-90422000D01*
X171348971Y-90422000D01*
X171348971Y-91498000D01*
X171329286Y-91565039D01*
X171276482Y-91610794D01*
X171224971Y-91622000D01*
X170972971Y-91622000D01*
X170905932Y-91602315D01*
X170860177Y-91549511D01*
X170848971Y-91498000D01*
X170848971Y-90422000D01*
X170848970Y-90421999D01*
X170786499Y-90422000D01*
X170786482Y-90422001D01*
X170683773Y-90432494D01*
X170517351Y-90487641D01*
X170517346Y-90487643D01*
X170368125Y-90579684D01*
X170244155Y-90703654D01*
X170152114Y-90852875D01*
X170152112Y-90852880D01*
X170096965Y-91019302D01*
X170096964Y-91019309D01*
X170086471Y-91122013D01*
X170086471Y-91329315D01*
X170066786Y-91396354D01*
X170013982Y-91442109D01*
X169944824Y-91452053D01*
X169938280Y-91450932D01*
X169790316Y-91421500D01*
X169790313Y-91421500D01*
X169632629Y-91421500D01*
X169632626Y-91421500D01*
X169510161Y-91445860D01*
X169440570Y-91439633D01*
X169385392Y-91396770D01*
X169362148Y-91330880D01*
X169361970Y-91324243D01*
X169361970Y-91096998D01*
X169361969Y-91096981D01*
X169351470Y-90994203D01*
X169351469Y-90994200D01*
X169329960Y-90929290D01*
X169296285Y-90827666D01*
X169204183Y-90678344D01*
X169080127Y-90554288D01*
X169080124Y-90554285D01*
X169045872Y-90533158D01*
X168999149Y-90481210D01*
X168986971Y-90427621D01*
X168986971Y-88783457D01*
X169006656Y-88716418D01*
X169045878Y-88677916D01*
X169055127Y-88672212D01*
X169179183Y-88548156D01*
X169271285Y-88398834D01*
X169326470Y-88232297D01*
X169336971Y-88129509D01*
X169336971Y-88086986D01*
X170086472Y-88086986D01*
X170096965Y-88189697D01*
X170152112Y-88356119D01*
X170152114Y-88356124D01*
X170244155Y-88505345D01*
X170368125Y-88629315D01*
X170517346Y-88721356D01*
X170517351Y-88721358D01*
X170683773Y-88776505D01*
X170683780Y-88776506D01*
X170786490Y-88786999D01*
X170848970Y-88786998D01*
X170848971Y-88786998D01*
X170848971Y-87837000D01*
X170086472Y-87837000D01*
X170086472Y-88086986D01*
X169336971Y-88086986D01*
X169336970Y-87624797D01*
X169336970Y-87129498D01*
X169336969Y-87129491D01*
X169332630Y-87087013D01*
X170086471Y-87087013D01*
X170086471Y-87337000D01*
X170848971Y-87337000D01*
X170848971Y-86387000D01*
X170848970Y-86386999D01*
X170786499Y-86387000D01*
X170786482Y-86387001D01*
X170683773Y-86397494D01*
X170517351Y-86452641D01*
X170517346Y-86452643D01*
X170368125Y-86544684D01*
X170244155Y-86668654D01*
X170152114Y-86817875D01*
X170152112Y-86817880D01*
X170096965Y-86984302D01*
X170096964Y-86984309D01*
X170086471Y-87087013D01*
X169332630Y-87087013D01*
X169326470Y-87026703D01*
X169295122Y-86932102D01*
X169293803Y-86926322D01*
X169295591Y-86897128D01*
X169294586Y-86867902D01*
X169297718Y-86862410D01*
X169298075Y-86856583D01*
X169311458Y-86838319D01*
X169327011Y-86811048D01*
X170640242Y-85497819D01*
X170701565Y-85464334D01*
X170727923Y-85461500D01*
X172781608Y-85461500D01*
X172781608Y-85461499D01*
X172869014Y-85444114D01*
X172869015Y-85444114D01*
X172880364Y-85441856D01*
X172902452Y-85437463D01*
X172935792Y-85423652D01*
X173016286Y-85390312D01*
X173079480Y-85348086D01*
X173118733Y-85321858D01*
X173205858Y-85234733D01*
X173205859Y-85234731D01*
X173212925Y-85227665D01*
X173212928Y-85227661D01*
X173372729Y-85067860D01*
X173372733Y-85067858D01*
X173459858Y-84980733D01*
X173528312Y-84878286D01*
X173575463Y-84764451D01*
X173588749Y-84697658D01*
X173589906Y-84691844D01*
X173622291Y-84629933D01*
X173646420Y-84610502D01*
X173680127Y-84589712D01*
X173804183Y-84465656D01*
X173896285Y-84316334D01*
X173924066Y-84232495D01*
X173963839Y-84175051D01*
X174028355Y-84148228D01*
X174041772Y-84147500D01*
X174124291Y-84147500D01*
X174171743Y-84156939D01*
X174215470Y-84175051D01*
X174222334Y-84177894D01*
X174362596Y-84205794D01*
X174396304Y-84212499D01*
X174396307Y-84212500D01*
X174396309Y-84212500D01*
X174573693Y-84212500D01*
X174573694Y-84212499D01*
X174633843Y-84200535D01*
X174747658Y-84177896D01*
X174747661Y-84177894D01*
X174747666Y-84177894D01*
X174911547Y-84110013D01*
X175059035Y-84011464D01*
X175184464Y-83886035D01*
X175283013Y-83738547D01*
X175350894Y-83574666D01*
X175356696Y-83545501D01*
X175374604Y-83455469D01*
X175385500Y-83400691D01*
X175385500Y-83223309D01*
X175385500Y-83223306D01*
X175385499Y-83223304D01*
X175350896Y-83049341D01*
X175350893Y-83049332D01*
X175339902Y-83022798D01*
X175308101Y-82946021D01*
X175283016Y-82885459D01*
X175283009Y-82885446D01*
X175184464Y-82737965D01*
X175184461Y-82737961D01*
X175059038Y-82612538D01*
X175059034Y-82612535D01*
X174911553Y-82513990D01*
X174911540Y-82513983D01*
X174747667Y-82446106D01*
X174747658Y-82446103D01*
X174573694Y-82411500D01*
X174573691Y-82411500D01*
X174396309Y-82411500D01*
X174396306Y-82411500D01*
X174222341Y-82446103D01*
X174222332Y-82446106D01*
X174058459Y-82513983D01*
X174058448Y-82513989D01*
X173952062Y-82585074D01*
X173885385Y-82605951D01*
X173818005Y-82587466D01*
X173795491Y-82569652D01*
X173738290Y-82512451D01*
X173704805Y-82451128D01*
X173701971Y-82424770D01*
X173701971Y-79294980D01*
X173721656Y-79227941D01*
X173769679Y-79184494D01*
X173784289Y-79177050D01*
X173956257Y-79052109D01*
X173956259Y-79052106D01*
X173956263Y-79052104D01*
X174106575Y-78901792D01*
X174106577Y-78901788D01*
X174106580Y-78901786D01*
X174231519Y-78729820D01*
X174231518Y-78729820D01*
X174231522Y-78729816D01*
X174328028Y-78540412D01*
X174393717Y-78338243D01*
X174426971Y-78128287D01*
X174426971Y-77915713D01*
X174393717Y-77705757D01*
X174328028Y-77503588D01*
X174231522Y-77314184D01*
X174231520Y-77314181D01*
X174231519Y-77314179D01*
X174106580Y-77142213D01*
X173956257Y-76991890D01*
X173784291Y-76866951D01*
X173594885Y-76770444D01*
X173594884Y-76770443D01*
X173594883Y-76770443D01*
X173392714Y-76704754D01*
X173392712Y-76704753D01*
X173392711Y-76704753D01*
X173231428Y-76679208D01*
X173182758Y-76671500D01*
X172970184Y-76671500D01*
X172921513Y-76679208D01*
X172760231Y-76704753D01*
X172558056Y-76770444D01*
X172368650Y-76866951D01*
X172196686Y-76991889D01*
X172083144Y-77105431D01*
X172021821Y-77138915D01*
X171952129Y-77133931D01*
X171896196Y-77092059D01*
X171879281Y-77061082D01*
X171830268Y-76929671D01*
X171830264Y-76929664D01*
X171744018Y-76814455D01*
X171744015Y-76814452D01*
X171628806Y-76728206D01*
X171628799Y-76728202D01*
X171493953Y-76677908D01*
X171493954Y-76677908D01*
X171434354Y-76671501D01*
X171434352Y-76671500D01*
X171434344Y-76671500D01*
X171434335Y-76671500D01*
X169638600Y-76671500D01*
X169638594Y-76671501D01*
X169578987Y-76677908D01*
X169444142Y-76728202D01*
X169444135Y-76728206D01*
X169328926Y-76814452D01*
X169328923Y-76814455D01*
X169242677Y-76929664D01*
X169242673Y-76929671D01*
X169192379Y-77064517D01*
X169185972Y-77124116D01*
X169185971Y-77124135D01*
X169185971Y-78919870D01*
X169185972Y-78919876D01*
X169192379Y-78979483D01*
X169242673Y-79114328D01*
X169242677Y-79114335D01*
X169328923Y-79229544D01*
X169328926Y-79229547D01*
X169444135Y-79315793D01*
X169444142Y-79315797D01*
X169578988Y-79366091D01*
X169578987Y-79366091D01*
X169585915Y-79366835D01*
X169638598Y-79372500D01*
X170336971Y-79372499D01*
X170404010Y-79392183D01*
X170449765Y-79444987D01*
X170460971Y-79496499D01*
X170460971Y-82312201D01*
X170441286Y-82379240D01*
X170402069Y-82417739D01*
X170342815Y-82454287D01*
X170218760Y-82578342D01*
X170126658Y-82727663D01*
X170126656Y-82727668D01*
X170119324Y-82749795D01*
X170091350Y-82834217D01*
X170090592Y-82836504D01*
X170050819Y-82893949D01*
X169986304Y-82920772D01*
X169972886Y-82921500D01*
X169484602Y-82921500D01*
X169417563Y-82901815D01*
X169376430Y-82854724D01*
X169375625Y-82855222D01*
X169372644Y-82850390D01*
X169372220Y-82849904D01*
X169371833Y-82849074D01*
X169280499Y-82701000D01*
X169280496Y-82700996D01*
X169157474Y-82577974D01*
X169157470Y-82577971D01*
X169009404Y-82486642D01*
X169009398Y-82486639D01*
X169009396Y-82486638D01*
X168911767Y-82454287D01*
X168844247Y-82431913D01*
X168742326Y-82421500D01*
X168742319Y-82421500D01*
X168155623Y-82421500D01*
X168155615Y-82421500D01*
X168053694Y-82431913D01*
X167888548Y-82486637D01*
X167888537Y-82486642D01*
X167740471Y-82577971D01*
X167740467Y-82577974D01*
X167617445Y-82700996D01*
X167617442Y-82701000D01*
X167617009Y-82701703D01*
X167616585Y-82702083D01*
X167612964Y-82706664D01*
X167612181Y-82706045D01*
X167565061Y-82748428D01*
X167496099Y-82759649D01*
X167432017Y-82731806D01*
X167410128Y-82706544D01*
X167409978Y-82706664D01*
X167407330Y-82703315D01*
X167405933Y-82701703D01*
X167405499Y-82701000D01*
X167405496Y-82700996D01*
X167282474Y-82577974D01*
X167282470Y-82577971D01*
X167134404Y-82486642D01*
X167134398Y-82486639D01*
X167134396Y-82486638D01*
X167036767Y-82454287D01*
X166969247Y-82431913D01*
X166867326Y-82421500D01*
X166867319Y-82421500D01*
X166280623Y-82421500D01*
X166280615Y-82421500D01*
X166178694Y-82431913D01*
X166013548Y-82486637D01*
X166013537Y-82486642D01*
X165865471Y-82577971D01*
X165865467Y-82577974D01*
X165742445Y-82700996D01*
X165742442Y-82701000D01*
X165651113Y-82849066D01*
X165651108Y-82849077D01*
X165596384Y-83014223D01*
X165585971Y-83116144D01*
X165585971Y-84127855D01*
X165596384Y-84229776D01*
X165651108Y-84394922D01*
X165651113Y-84394933D01*
X165742442Y-84542999D01*
X165742445Y-84543003D01*
X165865468Y-84666026D01*
X165914568Y-84696311D01*
X165961292Y-84748257D01*
X165973471Y-84801849D01*
X165973471Y-86390732D01*
X165953786Y-86457771D01*
X165914569Y-86496269D01*
X165818894Y-86555281D01*
X165767813Y-86586789D01*
X165643760Y-86710842D01*
X165551658Y-86860163D01*
X165551656Y-86860168D01*
X165529735Y-86926322D01*
X165496472Y-87026703D01*
X165496472Y-87026704D01*
X165496471Y-87026704D01*
X165485971Y-87129483D01*
X165485971Y-88129501D01*
X165485972Y-88129519D01*
X165496471Y-88232296D01*
X165496472Y-88232299D01*
X165547244Y-88385517D01*
X165551657Y-88398834D01*
X165643759Y-88548156D01*
X165767815Y-88672212D01*
X165917137Y-88764314D01*
X166083674Y-88819499D01*
X166186462Y-88830000D01*
X166811479Y-88829999D01*
X166811487Y-88829998D01*
X166811490Y-88829998D01*
X166867773Y-88824248D01*
X166914268Y-88819499D01*
X167080805Y-88764314D01*
X167230127Y-88672212D01*
X167323790Y-88578549D01*
X167385113Y-88545064D01*
X167454805Y-88550048D01*
X167499152Y-88578549D01*
X167592816Y-88672213D01*
X167592819Y-88672215D01*
X167677066Y-88724178D01*
X167723792Y-88776125D01*
X167735971Y-88829717D01*
X167735971Y-89674500D01*
X167716286Y-89741539D01*
X167663482Y-89787294D01*
X167611971Y-89798500D01*
X166307361Y-89798500D01*
X166240322Y-89778815D01*
X166219679Y-89762180D01*
X166182038Y-89724538D01*
X166182034Y-89724535D01*
X166034553Y-89625990D01*
X166034540Y-89625983D01*
X165870667Y-89558106D01*
X165870658Y-89558103D01*
X165696694Y-89523500D01*
X165696691Y-89523500D01*
X165571971Y-89523500D01*
X165504932Y-89503815D01*
X165459177Y-89451011D01*
X165447971Y-89399500D01*
X165447971Y-89328944D01*
X165447971Y-89328943D01*
X165447270Y-89326328D01*
X165432265Y-89270328D01*
X165407048Y-89176216D01*
X165388937Y-89144846D01*
X165327995Y-89039290D01*
X165327992Y-89039286D01*
X165327991Y-89039284D01*
X165216187Y-88927480D01*
X165216186Y-88927479D01*
X165211856Y-88923149D01*
X165211845Y-88923139D01*
X164000305Y-87711599D01*
X163966820Y-87650276D01*
X163971804Y-87580584D01*
X163984881Y-87555032D01*
X164020865Y-87501179D01*
X164081208Y-87355497D01*
X164111971Y-87200842D01*
X164111971Y-87043158D01*
X164111971Y-87043156D01*
X164111971Y-87043155D01*
X164111970Y-87043153D01*
X164104779Y-87007000D01*
X164081208Y-86888503D01*
X164070400Y-86862410D01*
X164020868Y-86742827D01*
X164020861Y-86742814D01*
X163932869Y-86611125D01*
X163911991Y-86544447D01*
X163911971Y-86542234D01*
X163911971Y-81622096D01*
X163931656Y-81555057D01*
X163948286Y-81534419D01*
X164430184Y-81052521D01*
X164430187Y-81052520D01*
X164541991Y-80940716D01*
X164592110Y-80853904D01*
X164621048Y-80803785D01*
X164661971Y-80651057D01*
X164661971Y-80492943D01*
X164661971Y-79631797D01*
X164681656Y-79564758D01*
X164720874Y-79526258D01*
X164780127Y-79489712D01*
X164904183Y-79365656D01*
X164996285Y-79216334D01*
X165051470Y-79049797D01*
X165061971Y-78947009D01*
X165061970Y-77896992D01*
X165055556Y-77834207D01*
X165051470Y-77794203D01*
X165051469Y-77794200D01*
X165028705Y-77725504D01*
X164996285Y-77627666D01*
X164904183Y-77478344D01*
X164780127Y-77354288D01*
X164687359Y-77297069D01*
X164630807Y-77262187D01*
X164630802Y-77262185D01*
X164609505Y-77255128D01*
X164464268Y-77207001D01*
X164464266Y-77207000D01*
X164361481Y-77196500D01*
X163761469Y-77196500D01*
X163761451Y-77196501D01*
X163658674Y-77207000D01*
X163658671Y-77207001D01*
X163492139Y-77262185D01*
X163492134Y-77262187D01*
X163342813Y-77354289D01*
X163218756Y-77478346D01*
X163217008Y-77481182D01*
X163215300Y-77482717D01*
X163214278Y-77484011D01*
X163214056Y-77483836D01*
X163165060Y-77527905D01*
X163096097Y-77539126D01*
X163032015Y-77511282D01*
X163005934Y-77481182D01*
X163004185Y-77478346D01*
X162880128Y-77354289D01*
X162880127Y-77354288D01*
X162787359Y-77297069D01*
X162730807Y-77262187D01*
X162730802Y-77262185D01*
X162709505Y-77255128D01*
X162564268Y-77207001D01*
X162564266Y-77207000D01*
X162461481Y-77196500D01*
X161861469Y-77196500D01*
X161861451Y-77196501D01*
X161758674Y-77207000D01*
X161758671Y-77207001D01*
X161592139Y-77262185D01*
X161592134Y-77262187D01*
X161442813Y-77354289D01*
X161318760Y-77478342D01*
X161226658Y-77627663D01*
X161226656Y-77627668D01*
X161219562Y-77649077D01*
X161171472Y-77794203D01*
X161171472Y-77794204D01*
X161171471Y-77794204D01*
X161160971Y-77896983D01*
X161160971Y-78486545D01*
X161141286Y-78553584D01*
X161124653Y-78574226D01*
X161057975Y-78640905D01*
X160913342Y-78785539D01*
X160863700Y-78835181D01*
X160802377Y-78868666D01*
X160776018Y-78871500D01*
X160760971Y-78871500D01*
X160693932Y-78851815D01*
X160648177Y-78799011D01*
X160636971Y-78747500D01*
X160636970Y-77921998D01*
X160636969Y-77921980D01*
X160626470Y-77819203D01*
X160626469Y-77819200D01*
X160595421Y-77725504D01*
X160571285Y-77652666D01*
X160479183Y-77503344D01*
X160355127Y-77379288D01*
X160355126Y-77379287D01*
X160281966Y-77334161D01*
X160235242Y-77282213D01*
X160227192Y-77255128D01*
X160226575Y-77255294D01*
X160224472Y-77247445D01*
X160224472Y-77247443D01*
X160183548Y-77094715D01*
X160141277Y-77021500D01*
X160104491Y-76957784D01*
X159992687Y-76845980D01*
X159992686Y-76845979D01*
X159988356Y-76841649D01*
X159988345Y-76841639D01*
X159747061Y-76600355D01*
X159747059Y-76600352D01*
X159628188Y-76481481D01*
X159628187Y-76481480D01*
X159541375Y-76431360D01*
X159541375Y-76431359D01*
X159541371Y-76431358D01*
X159491256Y-76402423D01*
X159338528Y-76361499D01*
X159180414Y-76361499D01*
X159172818Y-76361499D01*
X159172802Y-76361500D01*
X154004528Y-76361500D01*
X153846414Y-76361500D01*
X153693686Y-76402423D01*
X153693685Y-76402423D01*
X153693683Y-76402424D01*
X153693680Y-76402425D01*
X153643567Y-76431359D01*
X153643566Y-76431360D01*
X153600160Y-76456420D01*
X153556756Y-76481479D01*
X153556753Y-76481481D01*
X153093453Y-76944781D01*
X153093451Y-76944783D01*
X153093451Y-76944784D01*
X153048625Y-77022425D01*
X153048624Y-77022425D01*
X153014395Y-77081712D01*
X153014394Y-77081713D01*
X152999067Y-77138915D01*
X152973470Y-77234443D01*
X152973470Y-77234445D01*
X152973470Y-77242150D01*
X152953785Y-77309189D01*
X152914568Y-77347688D01*
X152865468Y-77377973D01*
X152742445Y-77500996D01*
X152742442Y-77501000D01*
X152651113Y-77649066D01*
X152651108Y-77649077D01*
X152596384Y-77814223D01*
X152585971Y-77916144D01*
X152585971Y-78927855D01*
X152595273Y-79018897D01*
X152582504Y-79087590D01*
X152534624Y-79138475D01*
X152471915Y-79155500D01*
X149528412Y-79155500D01*
X149498269Y-79163577D01*
X149452872Y-79175741D01*
X149383022Y-79174078D01*
X149325160Y-79134915D01*
X149302394Y-79092856D01*
X149258003Y-78950400D01*
X149258002Y-78950398D01*
X149198406Y-78851815D01*
X149176552Y-78815664D01*
X149158716Y-78748112D01*
X149176553Y-78687365D01*
X149257542Y-78553394D01*
X149257543Y-78553393D01*
X149305403Y-78399802D01*
X149305406Y-78399792D01*
X149308385Y-78367000D01*
X146689556Y-78367000D01*
X146692535Y-78399792D01*
X146692538Y-78399802D01*
X146740398Y-78553393D01*
X146752463Y-78573350D01*
X146770299Y-78640905D01*
X146748781Y-78707379D01*
X146694741Y-78751666D01*
X146646346Y-78761500D01*
X142884859Y-78761500D01*
X142764026Y-78785535D01*
X142764012Y-78785539D01*
X142710924Y-78807529D01*
X142641455Y-78814998D01*
X142616022Y-78807530D01*
X142595763Y-78799139D01*
X142595763Y-78799138D01*
X142595760Y-78799138D01*
X142562926Y-78785538D01*
X142562924Y-78785537D01*
X142562923Y-78785537D01*
X142502500Y-78773518D01*
X142442081Y-78761500D01*
X142442078Y-78761500D01*
X142442077Y-78761500D01*
X142176596Y-78761500D01*
X142109557Y-78741815D01*
X142063802Y-78689011D01*
X142053858Y-78619853D01*
X142070479Y-78573350D01*
X142082543Y-78553393D01*
X142130403Y-78399802D01*
X142130406Y-78399792D01*
X142133385Y-78367000D01*
X139514556Y-78367000D01*
X139517535Y-78399792D01*
X139517538Y-78399802D01*
X139565398Y-78553392D01*
X139646389Y-78687366D01*
X139664225Y-78754920D01*
X139646389Y-78815665D01*
X139631429Y-78840412D01*
X139564940Y-78950397D01*
X139517040Y-79104116D01*
X139510971Y-79170911D01*
X139510971Y-79603098D01*
X139517039Y-79669882D01*
X139517042Y-79669893D01*
X139564938Y-79823598D01*
X139564939Y-79823600D01*
X139564940Y-79823602D01*
X139646389Y-79958335D01*
X139664225Y-80025887D01*
X139646389Y-80086633D01*
X139565398Y-80220607D01*
X139517538Y-80374197D01*
X139517535Y-80374207D01*
X139514556Y-80406999D01*
X139514556Y-80407000D01*
X140699971Y-80407000D01*
X140767010Y-80426685D01*
X140812765Y-80479489D01*
X140823971Y-80531000D01*
X140823971Y-80783000D01*
X140804286Y-80850039D01*
X140751482Y-80895794D01*
X140699971Y-80907000D01*
X139514556Y-80907000D01*
X139517535Y-80939792D01*
X139517538Y-80939802D01*
X139565398Y-81093392D01*
X139646389Y-81227366D01*
X139664225Y-81294920D01*
X139646389Y-81355666D01*
X139564940Y-81490397D01*
X139517040Y-81644116D01*
X139510971Y-81710911D01*
X139510971Y-82143098D01*
X139517039Y-82209882D01*
X139517042Y-82209893D01*
X139564938Y-82363598D01*
X139564939Y-82363600D01*
X139564940Y-82363602D01*
X139639318Y-82486637D01*
X139648237Y-82501391D01*
X139762079Y-82615233D01*
X139762081Y-82615234D01*
X139762083Y-82615236D01*
X139899869Y-82698531D01*
X140053584Y-82746430D01*
X140085693Y-82749347D01*
X140150674Y-82775017D01*
X140191464Y-82831744D01*
X140198471Y-82872838D01*
X140198471Y-84125609D01*
X140178786Y-84192648D01*
X140125982Y-84238403D01*
X140056824Y-84248347D01*
X139993268Y-84219322D01*
X139986790Y-84213290D01*
X139974038Y-84200538D01*
X139974034Y-84200535D01*
X139826553Y-84101990D01*
X139826540Y-84101983D01*
X139662667Y-84034106D01*
X139662658Y-84034103D01*
X139488694Y-83999500D01*
X139488691Y-83999500D01*
X139311309Y-83999500D01*
X139311306Y-83999500D01*
X139137341Y-84034103D01*
X139137337Y-84034105D01*
X139137335Y-84034105D01*
X139137334Y-84034106D01*
X139114131Y-84043717D01*
X139078258Y-84058576D01*
X139008789Y-84066044D01*
X138946310Y-84034768D01*
X138910658Y-83974679D01*
X138907316Y-83955236D01*
X138905405Y-83934207D01*
X138857541Y-83780603D01*
X138774307Y-83642919D01*
X138660551Y-83529163D01*
X138522867Y-83445929D01*
X138369263Y-83398065D01*
X138302514Y-83392000D01*
X137848971Y-83392000D01*
X137848971Y-84093000D01*
X137829286Y-84160039D01*
X137776482Y-84205794D01*
X137724971Y-84217000D01*
X137598971Y-84217000D01*
X137598971Y-84343000D01*
X137579286Y-84410039D01*
X137526482Y-84455794D01*
X137474971Y-84467000D01*
X136289556Y-84467000D01*
X136292535Y-84499792D01*
X136292538Y-84499802D01*
X136340398Y-84653393D01*
X136352463Y-84673350D01*
X136370299Y-84740905D01*
X136348781Y-84807379D01*
X136294741Y-84851666D01*
X136246346Y-84861500D01*
X133908860Y-84861500D01*
X133824478Y-84878285D01*
X133824473Y-84878286D01*
X133788019Y-84885537D01*
X133788018Y-84885537D01*
X133674187Y-84932687D01*
X133590374Y-84988690D01*
X133571737Y-85001142D01*
X133571731Y-85001147D01*
X131948104Y-86624775D01*
X131886781Y-86658260D01*
X131817089Y-86653276D01*
X131761156Y-86611404D01*
X131736739Y-86545940D01*
X131736550Y-86542712D01*
X131736469Y-86540943D01*
X131730405Y-86474207D01*
X131682540Y-86320602D01*
X131601261Y-86186151D01*
X131583424Y-86118596D01*
X131601261Y-86057849D01*
X131682542Y-85923395D01*
X131682543Y-85923393D01*
X131730403Y-85769802D01*
X131730406Y-85769792D01*
X131733385Y-85737000D01*
X130673971Y-85737000D01*
X130673971Y-86633000D01*
X130654286Y-86700039D01*
X130601482Y-86745794D01*
X130549971Y-86757000D01*
X130423971Y-86757000D01*
X130423971Y-86883000D01*
X130404286Y-86950039D01*
X130351482Y-86995794D01*
X130299971Y-87007000D01*
X129114556Y-87007000D01*
X129117535Y-87039792D01*
X129117538Y-87039802D01*
X129165398Y-87193392D01*
X129246389Y-87327366D01*
X129264225Y-87394920D01*
X129246389Y-87455665D01*
X129224835Y-87491319D01*
X129164940Y-87590397D01*
X129117040Y-87744116D01*
X129110971Y-87810911D01*
X129110971Y-88243098D01*
X129117039Y-88309882D01*
X129117042Y-88309893D01*
X129164938Y-88463598D01*
X129164939Y-88463599D01*
X129164940Y-88463602D01*
X129213815Y-88544451D01*
X129248237Y-88601391D01*
X129362079Y-88715233D01*
X129362081Y-88715234D01*
X129362083Y-88715236D01*
X129499869Y-88798531D01*
X129653584Y-88846430D01*
X129720380Y-88852500D01*
X131127561Y-88852499D01*
X131127568Y-88852499D01*
X131194353Y-88846431D01*
X131194356Y-88846430D01*
X131194358Y-88846430D01*
X131348073Y-88798531D01*
X131485859Y-88715236D01*
X131536029Y-88665064D01*
X131597350Y-88631580D01*
X131599496Y-88631133D01*
X131612923Y-88628463D01*
X131653366Y-88611711D01*
X131726757Y-88581312D01*
X131781922Y-88544451D01*
X131829204Y-88512858D01*
X131916329Y-88425733D01*
X131916329Y-88425731D01*
X131926537Y-88415524D01*
X131926538Y-88415521D01*
X134193243Y-86148819D01*
X134254566Y-86115334D01*
X134280924Y-86112500D01*
X135333423Y-86112500D01*
X135400462Y-86132185D01*
X135446217Y-86184989D01*
X135456161Y-86254147D01*
X135427136Y-86317703D01*
X135380875Y-86351061D01*
X135232298Y-86412602D01*
X135232285Y-86412609D01*
X135101182Y-86500210D01*
X135101178Y-86500213D01*
X134989684Y-86611707D01*
X134989681Y-86611711D01*
X134902080Y-86742814D01*
X134902073Y-86742827D01*
X134841735Y-86888498D01*
X134841732Y-86888510D01*
X134810971Y-87043153D01*
X134810971Y-87200846D01*
X134841732Y-87355489D01*
X134841735Y-87355501D01*
X134902073Y-87501172D01*
X134902083Y-87501190D01*
X134955120Y-87580566D01*
X134975998Y-87647243D01*
X134957513Y-87714623D01*
X134955121Y-87718345D01*
X134928076Y-87758820D01*
X134928075Y-87758822D01*
X134867735Y-87904498D01*
X134867732Y-87904510D01*
X134836971Y-88059153D01*
X134836971Y-88216846D01*
X134867732Y-88371489D01*
X134867735Y-88371501D01*
X134928073Y-88517172D01*
X134928080Y-88517185D01*
X135015681Y-88648288D01*
X135015684Y-88648292D01*
X135127178Y-88759786D01*
X135127182Y-88759789D01*
X135258285Y-88847390D01*
X135258298Y-88847397D01*
X135349335Y-88885105D01*
X135403974Y-88907737D01*
X135558624Y-88938499D01*
X135558627Y-88938500D01*
X135558629Y-88938500D01*
X135716315Y-88938500D01*
X135716316Y-88938499D01*
X135870968Y-88907737D01*
X136016650Y-88847394D01*
X136147760Y-88759789D01*
X136193299Y-88714250D01*
X136243731Y-88663819D01*
X136305054Y-88630334D01*
X136331412Y-88627500D01*
X136397985Y-88627500D01*
X136465024Y-88647185D01*
X136485667Y-88663820D01*
X136537078Y-88715232D01*
X136537079Y-88715233D01*
X136537081Y-88715234D01*
X136537083Y-88715236D01*
X136674869Y-88798531D01*
X136828584Y-88846430D01*
X136895380Y-88852500D01*
X138302561Y-88852499D01*
X138302568Y-88852499D01*
X138369353Y-88846431D01*
X138369356Y-88846430D01*
X138369358Y-88846430D01*
X138523073Y-88798531D01*
X138660859Y-88715236D01*
X138774707Y-88601388D01*
X138858002Y-88463602D01*
X138864253Y-88443539D01*
X138879648Y-88418075D01*
X138878970Y-88417736D01*
X138878974Y-88417728D01*
X138884458Y-88410118D01*
X138894963Y-88392743D01*
X138902189Y-88385517D01*
X138902195Y-88385508D01*
X139151887Y-88135816D01*
X139213209Y-88102334D01*
X139239567Y-88099500D01*
X139402055Y-88099500D01*
X139402058Y-88099500D01*
X139554786Y-88058576D01*
X139615913Y-88023284D01*
X139691717Y-87979519D01*
X139803521Y-87867715D01*
X139803521Y-87867713D01*
X139813725Y-87857510D01*
X139813729Y-87857505D01*
X140449290Y-87221944D01*
X140510613Y-87188459D01*
X140580305Y-87193443D01*
X140636238Y-87235315D01*
X140660655Y-87300779D01*
X140660971Y-87309625D01*
X140660971Y-89222015D01*
X140671471Y-89324795D01*
X140671472Y-89324797D01*
X140672846Y-89328943D01*
X140726657Y-89491335D01*
X140726658Y-89491337D01*
X140818757Y-89640651D01*
X140818760Y-89640655D01*
X140942815Y-89764710D01*
X140942819Y-89764713D01*
X141092133Y-89856812D01*
X141092135Y-89856813D01*
X141092137Y-89856814D01*
X141258674Y-89911999D01*
X141361463Y-89922500D01*
X143711374Y-89922500D01*
X143778413Y-89942185D01*
X143799055Y-89958819D01*
X144628610Y-90788374D01*
X144628620Y-90788385D01*
X144632950Y-90792715D01*
X144632951Y-90792716D01*
X144744755Y-90904520D01*
X144744757Y-90904521D01*
X144787657Y-90929289D01*
X144787656Y-90929289D01*
X144787659Y-90929290D01*
X144881680Y-90983574D01*
X144881681Y-90983574D01*
X144881686Y-90983577D01*
X145034413Y-91024500D01*
X145034414Y-91024500D01*
X147529374Y-91024500D01*
X147596413Y-91044185D01*
X147617055Y-91060819D01*
X147924203Y-91367967D01*
X147957688Y-91429290D01*
X147952704Y-91498982D01*
X147951084Y-91503098D01*
X147939735Y-91530497D01*
X147939732Y-91530505D01*
X147908971Y-91685153D01*
X147908971Y-91842846D01*
X147939732Y-91997489D01*
X147939735Y-91997500D01*
X148000072Y-92143169D01*
X148000080Y-92143185D01*
X148087681Y-92274288D01*
X148087684Y-92274292D01*
X148199178Y-92385786D01*
X148199182Y-92385789D01*
X148263926Y-92429050D01*
X148308731Y-92482662D01*
X148317438Y-92551987D01*
X148287284Y-92615015D01*
X148282716Y-92619833D01*
X147456952Y-93445596D01*
X147456950Y-93445599D01*
X147443162Y-93469482D01*
X147416429Y-93515785D01*
X147401699Y-93541298D01*
X147377894Y-93582528D01*
X147336971Y-93735256D01*
X147336970Y-93735258D01*
X147336970Y-93903359D01*
X147336971Y-93903372D01*
X147336971Y-95470846D01*
X147317286Y-95537885D01*
X147264482Y-95583640D01*
X147195324Y-95593584D01*
X147147876Y-95576386D01*
X147125597Y-95562644D01*
X147125590Y-95562641D01*
X146959168Y-95507494D01*
X146959161Y-95507493D01*
X146856457Y-95497000D01*
X146606471Y-95497000D01*
X146606471Y-96385500D01*
X146586786Y-96452539D01*
X146533982Y-96498294D01*
X146482471Y-96509500D01*
X146356471Y-96509500D01*
X146356471Y-96635500D01*
X146336786Y-96702539D01*
X146283982Y-96748294D01*
X146232471Y-96759500D01*
X145156472Y-96759500D01*
X145156472Y-96821986D01*
X145166965Y-96924697D01*
X145222112Y-97091119D01*
X145222114Y-97091124D01*
X145314155Y-97240345D01*
X145407775Y-97333965D01*
X145441260Y-97395288D01*
X145436276Y-97464980D01*
X145407776Y-97509327D01*
X145339584Y-97577518D01*
X145278264Y-97611002D01*
X145208572Y-97606018D01*
X145164224Y-97577517D01*
X145093188Y-97506481D01*
X145093187Y-97506480D01*
X145006375Y-97456360D01*
X145006375Y-97456359D01*
X145006371Y-97456358D01*
X144956256Y-97427423D01*
X144803528Y-97386499D01*
X144645414Y-97386499D01*
X144637818Y-97386499D01*
X144637802Y-97386500D01*
X144618652Y-97386500D01*
X144551613Y-97366815D01*
X144505858Y-97314011D01*
X144495914Y-97244853D01*
X144504091Y-97215048D01*
X144556701Y-97088032D01*
X144556702Y-97088028D01*
X144571470Y-96975863D01*
X144571471Y-96975849D01*
X144571471Y-96967000D01*
X141601471Y-96967000D01*
X141601471Y-96975863D01*
X141616239Y-97088028D01*
X141616240Y-97088032D01*
X141674049Y-97227598D01*
X141711268Y-97276102D01*
X141736462Y-97341272D01*
X141722424Y-97409716D01*
X141711269Y-97427074D01*
X141673614Y-97476147D01*
X141615753Y-97615837D01*
X141615752Y-97615841D01*
X141600971Y-97728105D01*
X141600971Y-98167414D01*
X141581286Y-98234453D01*
X141528482Y-98280208D01*
X141459324Y-98290152D01*
X141452780Y-98289031D01*
X141304317Y-98259500D01*
X141304313Y-98259500D01*
X141146629Y-98259500D01*
X141146626Y-98259500D01*
X140991981Y-98290261D01*
X140991969Y-98290264D01*
X140846298Y-98350602D01*
X140846285Y-98350609D01*
X140748862Y-98415706D01*
X140682184Y-98436584D01*
X140614804Y-98418099D01*
X140568114Y-98366121D01*
X140555971Y-98312604D01*
X140555971Y-96458136D01*
X141601471Y-96458136D01*
X141601471Y-96467000D01*
X142836471Y-96467000D01*
X143336471Y-96467000D01*
X144571471Y-96467000D01*
X144571471Y-96458150D01*
X144571470Y-96458136D01*
X144556702Y-96345971D01*
X144556701Y-96345967D01*
X144513354Y-96241316D01*
X144498892Y-96206401D01*
X144491688Y-96197013D01*
X145156471Y-96197013D01*
X145156471Y-96259500D01*
X146106471Y-96259500D01*
X146106471Y-95497000D01*
X145856500Y-95497000D01*
X145856483Y-95497001D01*
X145753773Y-95507494D01*
X145587351Y-95562641D01*
X145587346Y-95562643D01*
X145438125Y-95654684D01*
X145314155Y-95778654D01*
X145222114Y-95927875D01*
X145222112Y-95927880D01*
X145166965Y-96094302D01*
X145166964Y-96094309D01*
X145156471Y-96197013D01*
X144491688Y-96197013D01*
X144406923Y-96086547D01*
X144287069Y-95994578D01*
X144147503Y-95936769D01*
X144147499Y-95936768D01*
X144035334Y-95922000D01*
X143336471Y-95922000D01*
X143336471Y-96467000D01*
X142836471Y-96467000D01*
X142836471Y-95922000D01*
X142137607Y-95922000D01*
X142025442Y-95936768D01*
X142025438Y-95936769D01*
X141885872Y-95994578D01*
X141766018Y-96086547D01*
X141674049Y-96206401D01*
X141616240Y-96345967D01*
X141616239Y-96345971D01*
X141601471Y-96458136D01*
X140555971Y-96458136D01*
X140555971Y-95678941D01*
X140552533Y-95666112D01*
X140552532Y-95666110D01*
X140536035Y-95604543D01*
X140530726Y-95584728D01*
X140515048Y-95526216D01*
X140515046Y-95526212D01*
X140515045Y-95526209D01*
X140435995Y-95389290D01*
X140435992Y-95389286D01*
X140435991Y-95389284D01*
X140324187Y-95277480D01*
X140324186Y-95277479D01*
X140319856Y-95273149D01*
X140319845Y-95273139D01*
X139935061Y-94888355D01*
X139935059Y-94888352D01*
X139816188Y-94769481D01*
X139816187Y-94769480D01*
X139778908Y-94747957D01*
X139730693Y-94697391D01*
X139717469Y-94628784D01*
X139743437Y-94563919D01*
X139800351Y-94523390D01*
X139828307Y-94517212D01*
X139884167Y-94511505D01*
X140050590Y-94456358D01*
X140050595Y-94456356D01*
X140199816Y-94364315D01*
X140323786Y-94240345D01*
X140415827Y-94091124D01*
X140415829Y-94091119D01*
X140470976Y-93924697D01*
X140470977Y-93924690D01*
X140478916Y-93846986D01*
X141406472Y-93846986D01*
X141416965Y-93949697D01*
X141472112Y-94116119D01*
X141472114Y-94116124D01*
X141564155Y-94265345D01*
X141688125Y-94389315D01*
X141837346Y-94481356D01*
X141837351Y-94481358D01*
X142003773Y-94536505D01*
X142003780Y-94536506D01*
X142106490Y-94546999D01*
X142156470Y-94546998D01*
X142156471Y-94546998D01*
X142156471Y-93572000D01*
X141406472Y-93572000D01*
X141406472Y-93846986D01*
X140478916Y-93846986D01*
X140481470Y-93821986D01*
X140481471Y-93821973D01*
X140481471Y-93572000D01*
X139592971Y-93572000D01*
X139525932Y-93552315D01*
X139480177Y-93499511D01*
X139468971Y-93448000D01*
X139468971Y-93322000D01*
X139342971Y-93322000D01*
X139275932Y-93302315D01*
X139230177Y-93249511D01*
X139218971Y-93198000D01*
X139218971Y-93072000D01*
X139718971Y-93072000D01*
X140481470Y-93072000D01*
X140481470Y-92822028D01*
X140481469Y-92822013D01*
X140479881Y-92806466D01*
X140478915Y-92797013D01*
X141406471Y-92797013D01*
X141406471Y-93072000D01*
X142156471Y-93072000D01*
X142156471Y-92097000D01*
X142656471Y-92097000D01*
X142656471Y-94546999D01*
X142706443Y-94546999D01*
X142706457Y-94546998D01*
X142809168Y-94536505D01*
X142975590Y-94481358D01*
X142975595Y-94481356D01*
X143124816Y-94389315D01*
X143248789Y-94265342D01*
X143250636Y-94262348D01*
X143252440Y-94260724D01*
X143253269Y-94259677D01*
X143253447Y-94259818D01*
X143302581Y-94215621D01*
X143371544Y-94204396D01*
X143435627Y-94232236D01*
X143461714Y-94262341D01*
X143463759Y-94265656D01*
X143587815Y-94389712D01*
X143737137Y-94481814D01*
X143903674Y-94536999D01*
X144006462Y-94547500D01*
X144606479Y-94547499D01*
X144606487Y-94547498D01*
X144606490Y-94547498D01*
X144662773Y-94541748D01*
X144709268Y-94536999D01*
X144875805Y-94481814D01*
X145025127Y-94389712D01*
X145149183Y-94265656D01*
X145241285Y-94116334D01*
X145296470Y-93949797D01*
X145306971Y-93847009D01*
X145306970Y-93628980D01*
X145326654Y-93561941D01*
X145343280Y-93541308D01*
X145547772Y-93336816D01*
X145609094Y-93303334D01*
X145635452Y-93300500D01*
X145688693Y-93300500D01*
X145688694Y-93300499D01*
X145746682Y-93288964D01*
X145862658Y-93265896D01*
X145862661Y-93265894D01*
X145862666Y-93265894D01*
X146026547Y-93198013D01*
X146174035Y-93099464D01*
X146299464Y-92974035D01*
X146398013Y-92826547D01*
X146399904Y-92821983D01*
X146436703Y-92733139D01*
X146465894Y-92662666D01*
X146466355Y-92660352D01*
X146500499Y-92488695D01*
X146500500Y-92488693D01*
X146500500Y-92311306D01*
X146500499Y-92311304D01*
X146465896Y-92137341D01*
X146465893Y-92137332D01*
X146463684Y-92132000D01*
X146428999Y-92048261D01*
X146398016Y-91973459D01*
X146398009Y-91973446D01*
X146299464Y-91825965D01*
X146299461Y-91825961D01*
X146174038Y-91700538D01*
X146174034Y-91700535D01*
X146026553Y-91601990D01*
X146026540Y-91601983D01*
X145862667Y-91534106D01*
X145862658Y-91534103D01*
X145688694Y-91499500D01*
X145688691Y-91499500D01*
X145511309Y-91499500D01*
X145511306Y-91499500D01*
X145337341Y-91534103D01*
X145337332Y-91534106D01*
X145173459Y-91601983D01*
X145173446Y-91601990D01*
X145025965Y-91700535D01*
X145025961Y-91700538D01*
X144900538Y-91825961D01*
X144900535Y-91825965D01*
X144801990Y-91973446D01*
X144801985Y-91973456D01*
X144780478Y-92025379D01*
X144736636Y-92079783D01*
X144670342Y-92101847D01*
X144653316Y-92101284D01*
X144606483Y-92096500D01*
X144006469Y-92096500D01*
X144006451Y-92096501D01*
X143903674Y-92107000D01*
X143903671Y-92107001D01*
X143737139Y-92162185D01*
X143737134Y-92162187D01*
X143587813Y-92254289D01*
X143463759Y-92378343D01*
X143463754Y-92378349D01*
X143461712Y-92381661D01*
X143459718Y-92383453D01*
X143459278Y-92384011D01*
X143459182Y-92383935D01*
X143409762Y-92428383D01*
X143340799Y-92439602D01*
X143276718Y-92411755D01*
X143250639Y-92381656D01*
X143248790Y-92378659D01*
X143248787Y-92378655D01*
X143124816Y-92254684D01*
X142975595Y-92162643D01*
X142975590Y-92162641D01*
X142809168Y-92107494D01*
X142809161Y-92107493D01*
X142706457Y-92097000D01*
X142656471Y-92097000D01*
X142156471Y-92097000D01*
X142156470Y-92096999D01*
X142106500Y-92097000D01*
X142106482Y-92097001D01*
X142003773Y-92107494D01*
X141837351Y-92162641D01*
X141837346Y-92162643D01*
X141688125Y-92254684D01*
X141564155Y-92378654D01*
X141472114Y-92527875D01*
X141472112Y-92527880D01*
X141416965Y-92694302D01*
X141416964Y-92694309D01*
X141406471Y-92797013D01*
X140478915Y-92797013D01*
X140470976Y-92719302D01*
X140415829Y-92552880D01*
X140415827Y-92552875D01*
X140323786Y-92403654D01*
X140199816Y-92279684D01*
X140050595Y-92187643D01*
X140050590Y-92187641D01*
X139884168Y-92132494D01*
X139884161Y-92132493D01*
X139781457Y-92122000D01*
X139718971Y-92122000D01*
X139718971Y-93072000D01*
X139218971Y-93072000D01*
X139218971Y-92122000D01*
X139218970Y-92121999D01*
X139156499Y-92122000D01*
X139156482Y-92122001D01*
X139053773Y-92132494D01*
X138887351Y-92187641D01*
X138887346Y-92187643D01*
X138738128Y-92279682D01*
X138644505Y-92373305D01*
X138583181Y-92406789D01*
X138513490Y-92401805D01*
X138469143Y-92373304D01*
X138375128Y-92279289D01*
X138375127Y-92279288D01*
X138225805Y-92187186D01*
X138059268Y-92132001D01*
X138059266Y-92132000D01*
X137956481Y-92121500D01*
X137331469Y-92121500D01*
X137331451Y-92121501D01*
X137228674Y-92132000D01*
X137228671Y-92132001D01*
X137062139Y-92187185D01*
X137062134Y-92187187D01*
X136912813Y-92279289D01*
X136788760Y-92403342D01*
X136696658Y-92552663D01*
X136696656Y-92552668D01*
X136668820Y-92636670D01*
X136641472Y-92719203D01*
X136641472Y-92719204D01*
X136641471Y-92719204D01*
X136630971Y-92821983D01*
X136630971Y-93822001D01*
X136630972Y-93822019D01*
X136641471Y-93924796D01*
X136641472Y-93924799D01*
X136696656Y-94091331D01*
X136696658Y-94091336D01*
X136712075Y-94116331D01*
X136788759Y-94240656D01*
X136912815Y-94364712D01*
X136984567Y-94408968D01*
X137031292Y-94460915D01*
X137043471Y-94514507D01*
X137043471Y-94629830D01*
X137043470Y-94629848D01*
X137043470Y-94795554D01*
X137043469Y-94795554D01*
X137084394Y-94948287D01*
X137084395Y-94948288D01*
X137100575Y-94976312D01*
X137163446Y-95085209D01*
X137163452Y-95085217D01*
X137282320Y-95204085D01*
X137282326Y-95204090D01*
X137692610Y-95614374D01*
X137692620Y-95614385D01*
X137696950Y-95618715D01*
X137696951Y-95618716D01*
X137788055Y-95709820D01*
X137821539Y-95771141D01*
X137816555Y-95840833D01*
X137774684Y-95896767D01*
X137709220Y-95921184D01*
X137700373Y-95921500D01*
X137187582Y-95921500D01*
X137075319Y-95936279D01*
X137075308Y-95936282D01*
X136935618Y-95994143D01*
X136809554Y-96090876D01*
X136744385Y-96116070D01*
X136734068Y-96116500D01*
X134102568Y-96116500D01*
X134035529Y-96096815D01*
X134014887Y-96080181D01*
X133988290Y-96053584D01*
X133954805Y-95992261D01*
X133951971Y-95965903D01*
X133951971Y-93307059D01*
X133951972Y-93307046D01*
X133951972Y-93138945D01*
X133951972Y-93138943D01*
X133911048Y-92986215D01*
X133865956Y-92908114D01*
X133831991Y-92849284D01*
X133720187Y-92737480D01*
X133720186Y-92737479D01*
X133715856Y-92733149D01*
X133715845Y-92733139D01*
X133643061Y-92660355D01*
X133643059Y-92660352D01*
X133524188Y-92541481D01*
X133524180Y-92541475D01*
X133390859Y-92464503D01*
X133390854Y-92464498D01*
X133390854Y-92464500D01*
X133387259Y-92462424D01*
X133387256Y-92462423D01*
X133375511Y-92459276D01*
X133234528Y-92421499D01*
X133076414Y-92421499D01*
X133068818Y-92421499D01*
X133068802Y-92421500D01*
X132685971Y-92421500D01*
X132618932Y-92401815D01*
X132573177Y-92349011D01*
X132561971Y-92297500D01*
X132561971Y-91471997D01*
X132561970Y-91471984D01*
X132557608Y-91429290D01*
X132551470Y-91369203D01*
X132496285Y-91202666D01*
X132478610Y-91174011D01*
X132404184Y-91053348D01*
X132404181Y-91053344D01*
X132280125Y-90929288D01*
X132280122Y-90929286D01*
X132130808Y-90837187D01*
X132130806Y-90837186D01*
X132047536Y-90809593D01*
X131964268Y-90782001D01*
X131964266Y-90782000D01*
X131861486Y-90771500D01*
X131861479Y-90771500D01*
X129861463Y-90771500D01*
X129861455Y-90771500D01*
X129758675Y-90782000D01*
X129758674Y-90782001D01*
X129592135Y-90837186D01*
X129592133Y-90837187D01*
X129442819Y-90929286D01*
X129442817Y-90929288D01*
X129318760Y-91053344D01*
X129318757Y-91053348D01*
X129226658Y-91202662D01*
X129226657Y-91202664D01*
X129171472Y-91369203D01*
X129171471Y-91369204D01*
X129160971Y-91471984D01*
X129160971Y-94572015D01*
X129171471Y-94674795D01*
X129171472Y-94674797D01*
X129185753Y-94717894D01*
X129226657Y-94841335D01*
X129226658Y-94841337D01*
X129318757Y-94990651D01*
X129318760Y-94990655D01*
X129442815Y-95114710D01*
X129442819Y-95114713D01*
X129592133Y-95206812D01*
X129592135Y-95206813D01*
X129592137Y-95206814D01*
X129758674Y-95261999D01*
X129861463Y-95272500D01*
X129861468Y-95272500D01*
X131861474Y-95272500D01*
X131861479Y-95272500D01*
X131964268Y-95261999D01*
X132130805Y-95206814D01*
X132280126Y-95114711D01*
X132404182Y-94990655D01*
X132496285Y-94841334D01*
X132509265Y-94802161D01*
X132549037Y-94744717D01*
X132613553Y-94717894D01*
X132682329Y-94730209D01*
X132733529Y-94777752D01*
X132750971Y-94841166D01*
X132750971Y-96179330D01*
X132750970Y-96179348D01*
X132750970Y-96345054D01*
X132750969Y-96345054D01*
X132791895Y-96497789D01*
X132791896Y-96497790D01*
X132810781Y-96530499D01*
X132810782Y-96530500D01*
X132870948Y-96634712D01*
X132870952Y-96634717D01*
X132989820Y-96753585D01*
X132989826Y-96753590D01*
X133317610Y-97081374D01*
X133317620Y-97081385D01*
X133321950Y-97085715D01*
X133321951Y-97085716D01*
X133411055Y-97174820D01*
X133444539Y-97236141D01*
X133439555Y-97305833D01*
X133397684Y-97361767D01*
X133332220Y-97386184D01*
X133323373Y-97386500D01*
X132685971Y-97386500D01*
X132618932Y-97366815D01*
X132573177Y-97314011D01*
X132561971Y-97262500D01*
X132561971Y-96671997D01*
X132561970Y-96671984D01*
X132551470Y-96569204D01*
X132551470Y-96569203D01*
X132496285Y-96402666D01*
X132487553Y-96388510D01*
X132404184Y-96253348D01*
X132404181Y-96253344D01*
X132280126Y-96129289D01*
X132280122Y-96129286D01*
X132130808Y-96037187D01*
X132130806Y-96037186D01*
X132019219Y-96000210D01*
X131964268Y-95982001D01*
X131964266Y-95982000D01*
X131861486Y-95971500D01*
X131861479Y-95971500D01*
X129861463Y-95971500D01*
X129861455Y-95971500D01*
X129758675Y-95982000D01*
X129758674Y-95982001D01*
X129592135Y-96037186D01*
X129592133Y-96037187D01*
X129442819Y-96129286D01*
X129442815Y-96129289D01*
X129318760Y-96253344D01*
X129318757Y-96253348D01*
X129226658Y-96402662D01*
X129226657Y-96402664D01*
X129171472Y-96569203D01*
X129171471Y-96569204D01*
X129160971Y-96671984D01*
X129160971Y-99772015D01*
X129171471Y-99874795D01*
X129171472Y-99874797D01*
X129180968Y-99903453D01*
X129226657Y-100041335D01*
X129226658Y-100041337D01*
X129318757Y-100190651D01*
X129318760Y-100190655D01*
X129442815Y-100314710D01*
X129442819Y-100314713D01*
X129592133Y-100406812D01*
X129592135Y-100406813D01*
X129592137Y-100406814D01*
X129758674Y-100461999D01*
X129861463Y-100472500D01*
X129861468Y-100472500D01*
X131861474Y-100472500D01*
X131861479Y-100472500D01*
X131964268Y-100461999D01*
X132130805Y-100406814D01*
X132280126Y-100314711D01*
X132404182Y-100190655D01*
X132496285Y-100041334D01*
X132551470Y-99874797D01*
X132561971Y-99772008D01*
X132561971Y-98711500D01*
X132581656Y-98644461D01*
X132634460Y-98598706D01*
X132685971Y-98587500D01*
X136603750Y-98587500D01*
X136670789Y-98607185D01*
X136716544Y-98659989D01*
X136726488Y-98729147D01*
X136718311Y-98758953D01*
X136665752Y-98885840D01*
X136665752Y-98885841D01*
X136650971Y-98998105D01*
X136650971Y-98998119D01*
X136650972Y-99519945D01*
X136649958Y-99519945D01*
X136635679Y-99583707D01*
X136585972Y-99632810D01*
X136517610Y-99647244D01*
X136458321Y-99626718D01*
X136316552Y-99531990D01*
X136316540Y-99531983D01*
X136152667Y-99464106D01*
X136152658Y-99464103D01*
X135978694Y-99429500D01*
X135978691Y-99429500D01*
X135801309Y-99429500D01*
X135801306Y-99429500D01*
X135627341Y-99464103D01*
X135627332Y-99464106D01*
X135463459Y-99531983D01*
X135463446Y-99531990D01*
X135315965Y-99630535D01*
X135315961Y-99630538D01*
X135190538Y-99755961D01*
X135190535Y-99755965D01*
X135091990Y-99903446D01*
X135091983Y-99903459D01*
X135024106Y-100067332D01*
X135024103Y-100067341D01*
X134989500Y-100241304D01*
X134989500Y-100418695D01*
X135024103Y-100592658D01*
X135024106Y-100592667D01*
X135091983Y-100756540D01*
X135091990Y-100756553D01*
X135190535Y-100904034D01*
X135190538Y-100904038D01*
X135315961Y-101029461D01*
X135315965Y-101029464D01*
X135463446Y-101128009D01*
X135463459Y-101128016D01*
X135545769Y-101162109D01*
X135627334Y-101195894D01*
X135627336Y-101195894D01*
X135627341Y-101195896D01*
X135801304Y-101230499D01*
X135801307Y-101230500D01*
X135801309Y-101230500D01*
X135978693Y-101230500D01*
X135978694Y-101230499D01*
X136036682Y-101218964D01*
X136152658Y-101195896D01*
X136152661Y-101195894D01*
X136152666Y-101195894D01*
X136228553Y-101164460D01*
X136234642Y-101161939D01*
X136282094Y-101152500D01*
X136766648Y-101152500D01*
X136833687Y-101172185D01*
X136842134Y-101178124D01*
X136935618Y-101249856D01*
X136935617Y-101249856D01*
X137012016Y-101281501D01*
X137075312Y-101307719D01*
X137187584Y-101322500D01*
X139085357Y-101322499D01*
X139085359Y-101322499D01*
X139197622Y-101307720D01*
X139197621Y-101307720D01*
X139197630Y-101307719D01*
X139337324Y-101249856D01*
X139457281Y-101157810D01*
X139549327Y-101037853D01*
X139607190Y-100898159D01*
X139621971Y-100785887D01*
X139621970Y-100268114D01*
X139619084Y-100246193D01*
X139607191Y-100155848D01*
X139607190Y-100155847D01*
X139607190Y-100155841D01*
X139570529Y-100067334D01*
X139549327Y-100016146D01*
X139511989Y-99967487D01*
X139486794Y-99902318D01*
X139500832Y-99833873D01*
X139511989Y-99816513D01*
X139515677Y-99811707D01*
X139549327Y-99767853D01*
X139603157Y-99637894D01*
X139630032Y-99597672D01*
X140213290Y-99014415D01*
X140274613Y-98980930D01*
X140344305Y-98985914D01*
X140400238Y-99027786D01*
X140424655Y-99093250D01*
X140424971Y-99102096D01*
X140424971Y-99138846D01*
X140455732Y-99293489D01*
X140455735Y-99293501D01*
X140516073Y-99439172D01*
X140516080Y-99439185D01*
X140603681Y-99570288D01*
X140603684Y-99570292D01*
X140629711Y-99596319D01*
X140663196Y-99657642D01*
X140658212Y-99727334D01*
X140629711Y-99771681D01*
X140589684Y-99811707D01*
X140589681Y-99811711D01*
X140502080Y-99942814D01*
X140502073Y-99942827D01*
X140441735Y-100088498D01*
X140441732Y-100088510D01*
X140410971Y-100243153D01*
X140410971Y-100400846D01*
X140441732Y-100555489D01*
X140441735Y-100555501D01*
X140502073Y-100701172D01*
X140502080Y-100701185D01*
X140589681Y-100832288D01*
X140589684Y-100832292D01*
X140701178Y-100943786D01*
X140701182Y-100943789D01*
X140832285Y-101031390D01*
X140832298Y-101031397D01*
X140921027Y-101068149D01*
X140977974Y-101091737D01*
X141132624Y-101122499D01*
X141132627Y-101122500D01*
X141296406Y-101122500D01*
X141296406Y-101123301D01*
X141332905Y-101126292D01*
X141337414Y-101127501D01*
X141503125Y-101127501D01*
X141503141Y-101127500D01*
X141684068Y-101127500D01*
X141751107Y-101147185D01*
X141759554Y-101153124D01*
X141885618Y-101249856D01*
X141885617Y-101249856D01*
X141962016Y-101281501D01*
X142025312Y-101307719D01*
X142137584Y-101322500D01*
X143910374Y-101322499D01*
X143977413Y-101342184D01*
X144023168Y-101394987D01*
X144033112Y-101464146D01*
X144004087Y-101527702D01*
X143998055Y-101534180D01*
X143807055Y-101725181D01*
X143745732Y-101758666D01*
X143719374Y-101761500D01*
X140042140Y-101761500D01*
X140042124Y-101761499D01*
X140034528Y-101761499D01*
X139876414Y-101761499D01*
X139761868Y-101792192D01*
X139723685Y-101802423D01*
X139695790Y-101818529D01*
X139695789Y-101818529D01*
X139586758Y-101881477D01*
X139586753Y-101881481D01*
X139474949Y-101993286D01*
X137169137Y-104299097D01*
X137107814Y-104332582D01*
X137046852Y-104328225D01*
X137046506Y-104329693D01*
X137038954Y-104327908D01*
X136979354Y-104321501D01*
X136979352Y-104321500D01*
X136979344Y-104321500D01*
X136979335Y-104321500D01*
X135183600Y-104321500D01*
X135183594Y-104321501D01*
X135123987Y-104327908D01*
X134989142Y-104378202D01*
X134989135Y-104378206D01*
X134873926Y-104464452D01*
X134873923Y-104464455D01*
X134787677Y-104579664D01*
X134787673Y-104579671D01*
X134737379Y-104714517D01*
X134730972Y-104774116D01*
X134730971Y-104774135D01*
X134730971Y-106569870D01*
X134730972Y-106569876D01*
X134737379Y-106629483D01*
X134787673Y-106764328D01*
X134787677Y-106764335D01*
X134873923Y-106879544D01*
X134873926Y-106879547D01*
X134989135Y-106965793D01*
X134989142Y-106965797D01*
X135123988Y-107016091D01*
X135123987Y-107016091D01*
X135130915Y-107016835D01*
X135183598Y-107022500D01*
X136979343Y-107022499D01*
X137038954Y-107016091D01*
X137173802Y-106965796D01*
X137289017Y-106879546D01*
X137375267Y-106764331D01*
X137424281Y-106632916D01*
X137466152Y-106576984D01*
X137531616Y-106552566D01*
X137599889Y-106567417D01*
X137628144Y-106588569D01*
X137741684Y-106702109D01*
X137913650Y-106827048D01*
X137913652Y-106827049D01*
X137913655Y-106827051D01*
X138103059Y-106923557D01*
X138305228Y-106989246D01*
X138515184Y-107022500D01*
X138515185Y-107022500D01*
X138727757Y-107022500D01*
X138727758Y-107022500D01*
X138937714Y-106989246D01*
X139139883Y-106923557D01*
X139329287Y-106827051D01*
X139384043Y-106787269D01*
X139501257Y-106702109D01*
X139501259Y-106702106D01*
X139501263Y-106702104D01*
X139651575Y-106551792D01*
X139651577Y-106551788D01*
X139651580Y-106551786D01*
X139776519Y-106379820D01*
X139776518Y-106379820D01*
X139776522Y-106379816D01*
X139780985Y-106371054D01*
X139828959Y-106320259D01*
X139896779Y-106303463D01*
X139962915Y-106325999D01*
X140001955Y-106371054D01*
X140006062Y-106379115D01*
X140006422Y-106379820D01*
X140131361Y-106551786D01*
X140281684Y-106702109D01*
X140453650Y-106827048D01*
X140453652Y-106827049D01*
X140453655Y-106827051D01*
X140643059Y-106923557D01*
X140845228Y-106989246D01*
X141055184Y-107022500D01*
X141055185Y-107022500D01*
X141267757Y-107022500D01*
X141267758Y-107022500D01*
X141477714Y-106989246D01*
X141679883Y-106923557D01*
X141869287Y-106827051D01*
X141924043Y-106787269D01*
X142041257Y-106702109D01*
X142041259Y-106702106D01*
X142041263Y-106702104D01*
X142191575Y-106551792D01*
X142191577Y-106551788D01*
X142191580Y-106551786D01*
X142316519Y-106379820D01*
X142316518Y-106379820D01*
X142316522Y-106379816D01*
X142320985Y-106371054D01*
X142368959Y-106320259D01*
X142436779Y-106303463D01*
X142502915Y-106325999D01*
X142541955Y-106371054D01*
X142546062Y-106379115D01*
X142546422Y-106379820D01*
X142671361Y-106551786D01*
X142821684Y-106702109D01*
X142993650Y-106827048D01*
X142993652Y-106827049D01*
X142993655Y-106827051D01*
X143183059Y-106923557D01*
X143385228Y-106989246D01*
X143595184Y-107022500D01*
X143595185Y-107022500D01*
X143807757Y-107022500D01*
X143807758Y-107022500D01*
X144017714Y-106989246D01*
X144219883Y-106923557D01*
X144409287Y-106827051D01*
X144464043Y-106787269D01*
X144581257Y-106702109D01*
X144581259Y-106702106D01*
X144581263Y-106702104D01*
X144731575Y-106551792D01*
X144731577Y-106551788D01*
X144731580Y-106551786D01*
X144856519Y-106379820D01*
X144856518Y-106379820D01*
X144856522Y-106379816D01*
X144860985Y-106371054D01*
X144908959Y-106320259D01*
X144976779Y-106303463D01*
X145042915Y-106325999D01*
X145081955Y-106371054D01*
X145086062Y-106379115D01*
X145086422Y-106379820D01*
X145211361Y-106551786D01*
X145361684Y-106702109D01*
X145533650Y-106827048D01*
X145533652Y-106827049D01*
X145533655Y-106827051D01*
X145723059Y-106923557D01*
X145925228Y-106989246D01*
X146135184Y-107022500D01*
X146135185Y-107022500D01*
X146347757Y-107022500D01*
X146347758Y-107022500D01*
X146557714Y-106989246D01*
X146759883Y-106923557D01*
X146949287Y-106827051D01*
X147004043Y-106787269D01*
X147121257Y-106702109D01*
X147121259Y-106702106D01*
X147121263Y-106702104D01*
X147271575Y-106551792D01*
X147271577Y-106551788D01*
X147271580Y-106551786D01*
X147396519Y-106379820D01*
X147396518Y-106379820D01*
X147396522Y-106379816D01*
X147400985Y-106371054D01*
X147448959Y-106320259D01*
X147516779Y-106303463D01*
X147582915Y-106325999D01*
X147621955Y-106371054D01*
X147626062Y-106379115D01*
X147626422Y-106379820D01*
X147751361Y-106551786D01*
X147901684Y-106702109D01*
X148073650Y-106827048D01*
X148073652Y-106827049D01*
X148073655Y-106827051D01*
X148263059Y-106923557D01*
X148465228Y-106989246D01*
X148675184Y-107022500D01*
X148675185Y-107022500D01*
X148887757Y-107022500D01*
X148887758Y-107022500D01*
X149097714Y-106989246D01*
X149299883Y-106923557D01*
X149489287Y-106827051D01*
X149544043Y-106787269D01*
X149661257Y-106702109D01*
X149661259Y-106702106D01*
X149661263Y-106702104D01*
X149811575Y-106551792D01*
X149811577Y-106551788D01*
X149811580Y-106551786D01*
X149936519Y-106379820D01*
X149936518Y-106379820D01*
X149936522Y-106379816D01*
X149940985Y-106371054D01*
X149988959Y-106320259D01*
X150056779Y-106303463D01*
X150122915Y-106325999D01*
X150161955Y-106371054D01*
X150166062Y-106379115D01*
X150166422Y-106379820D01*
X150291361Y-106551786D01*
X150441684Y-106702109D01*
X150613650Y-106827048D01*
X150613652Y-106827049D01*
X150613655Y-106827051D01*
X150803059Y-106923557D01*
X151005228Y-106989246D01*
X151215184Y-107022500D01*
X151215185Y-107022500D01*
X151427757Y-107022500D01*
X151427758Y-107022500D01*
X151637714Y-106989246D01*
X151839883Y-106923557D01*
X152029287Y-106827051D01*
X152084043Y-106787269D01*
X152201257Y-106702109D01*
X152201259Y-106702106D01*
X152201263Y-106702104D01*
X152351575Y-106551792D01*
X152351577Y-106551788D01*
X152351580Y-106551786D01*
X152476519Y-106379820D01*
X152476518Y-106379820D01*
X152476522Y-106379816D01*
X152480985Y-106371054D01*
X152528959Y-106320259D01*
X152596779Y-106303463D01*
X152662915Y-106325999D01*
X152701955Y-106371054D01*
X152706062Y-106379115D01*
X152706422Y-106379820D01*
X152831361Y-106551786D01*
X152981684Y-106702109D01*
X153153650Y-106827048D01*
X153153652Y-106827049D01*
X153153655Y-106827051D01*
X153343059Y-106923557D01*
X153545228Y-106989246D01*
X153755184Y-107022500D01*
X153755185Y-107022500D01*
X153967757Y-107022500D01*
X153967758Y-107022500D01*
X154177714Y-106989246D01*
X154379883Y-106923557D01*
X154569287Y-106827051D01*
X154624043Y-106787269D01*
X154741257Y-106702109D01*
X154741259Y-106702106D01*
X154741263Y-106702104D01*
X154891575Y-106551792D01*
X154891577Y-106551788D01*
X154891580Y-106551786D01*
X154977361Y-106433717D01*
X155016522Y-106379816D01*
X155021264Y-106370508D01*
X155069234Y-106319711D01*
X155137054Y-106302911D01*
X155203190Y-106325445D01*
X155242234Y-106370500D01*
X155246844Y-106379547D01*
X155286199Y-106433716D01*
X155918508Y-105801408D01*
X155935546Y-105864993D01*
X156001372Y-105979007D01*
X156094464Y-106072099D01*
X156208478Y-106137925D01*
X156272061Y-106154962D01*
X155639753Y-106787269D01*
X155639753Y-106787270D01*
X155693920Y-106826624D01*
X155883253Y-106923095D01*
X156085341Y-106988757D01*
X156295225Y-107022000D01*
X156507717Y-107022000D01*
X156717598Y-106988757D01*
X156717601Y-106988757D01*
X156919688Y-106923095D01*
X157109025Y-106826622D01*
X157163187Y-106787270D01*
X157163188Y-106787270D01*
X156530879Y-106154962D01*
X156594464Y-106137925D01*
X156708478Y-106072099D01*
X156801570Y-105979007D01*
X156867396Y-105864993D01*
X156884433Y-105801408D01*
X157516741Y-106433717D01*
X157516741Y-106433716D01*
X157556093Y-106379555D01*
X157560703Y-106370507D01*
X157608676Y-106319709D01*
X157676496Y-106302912D01*
X157742632Y-106325447D01*
X157781675Y-106370504D01*
X157786420Y-106379817D01*
X157911361Y-106551786D01*
X158061684Y-106702109D01*
X158233650Y-106827048D01*
X158233652Y-106827049D01*
X158233655Y-106827051D01*
X158423059Y-106923557D01*
X158625228Y-106989246D01*
X158835184Y-107022500D01*
X158835185Y-107022500D01*
X159047757Y-107022500D01*
X159047758Y-107022500D01*
X159257714Y-106989246D01*
X159459883Y-106923557D01*
X159649287Y-106827051D01*
X159704043Y-106787269D01*
X159821257Y-106702109D01*
X159821259Y-106702106D01*
X159821263Y-106702104D01*
X159971575Y-106551792D01*
X159971577Y-106551788D01*
X159971580Y-106551786D01*
X160096519Y-106379820D01*
X160096518Y-106379820D01*
X160096522Y-106379816D01*
X160193028Y-106190412D01*
X160195040Y-106184217D01*
X160234476Y-106126544D01*
X160298834Y-106099345D01*
X160367680Y-106111258D01*
X160419157Y-106158501D01*
X160436971Y-106222536D01*
X160436971Y-106847330D01*
X160436970Y-106847348D01*
X160436970Y-107013054D01*
X160436969Y-107013054D01*
X160477894Y-107165785D01*
X160503545Y-107210214D01*
X160503547Y-107210216D01*
X160556950Y-107302714D01*
X160556952Y-107302717D01*
X160675820Y-107421585D01*
X160675826Y-107421590D01*
X160746055Y-107491819D01*
X160779540Y-107553142D01*
X160774556Y-107622834D01*
X160732684Y-107678767D01*
X160667220Y-107703184D01*
X160658374Y-107703500D01*
X134664829Y-107703500D01*
X134597790Y-107683815D01*
X134577146Y-107667179D01*
X134532803Y-107622834D01*
X132652743Y-105742694D01*
X132619260Y-105681372D01*
X132616428Y-105655464D01*
X132611597Y-104302315D01*
X132608398Y-103406080D01*
X132608396Y-103406072D01*
X132607783Y-103234385D01*
X132606970Y-103006366D01*
X132606970Y-103006365D01*
X132006971Y-102406366D01*
X129382837Y-102395175D01*
X129315882Y-102375205D01*
X129295345Y-102358516D01*
X127374704Y-100422882D01*
X127341457Y-100361429D01*
X127338726Y-100335107D01*
X127387288Y-86506999D01*
X129114556Y-86506999D01*
X129114556Y-86507000D01*
X130173971Y-86507000D01*
X130173971Y-85737000D01*
X129114556Y-85737000D01*
X129117535Y-85769792D01*
X129117538Y-85769802D01*
X129165398Y-85923392D01*
X129246681Y-86057850D01*
X129264517Y-86125405D01*
X129246681Y-86186150D01*
X129165398Y-86320607D01*
X129117538Y-86474197D01*
X129117535Y-86474207D01*
X129114556Y-86506999D01*
X127387288Y-86506999D01*
X127391748Y-85236999D01*
X129114556Y-85236999D01*
X129114556Y-85237000D01*
X130173971Y-85237000D01*
X130673971Y-85237000D01*
X131733386Y-85237000D01*
X131733385Y-85236999D01*
X131730406Y-85204207D01*
X131730403Y-85204197D01*
X131682543Y-85050606D01*
X131682542Y-85050604D01*
X131601261Y-84916151D01*
X131583424Y-84848596D01*
X131601261Y-84787849D01*
X131682542Y-84653395D01*
X131682543Y-84653393D01*
X131730403Y-84499802D01*
X131730406Y-84499792D01*
X131733385Y-84467000D01*
X130673971Y-84467000D01*
X130673971Y-85237000D01*
X130173971Y-85237000D01*
X130173971Y-84467000D01*
X129114556Y-84467000D01*
X129117535Y-84499792D01*
X129117538Y-84499802D01*
X129165398Y-84653392D01*
X129246681Y-84787850D01*
X129264517Y-84855405D01*
X129246681Y-84916150D01*
X129165398Y-85050607D01*
X129117538Y-85204197D01*
X129117535Y-85204207D01*
X129114556Y-85236999D01*
X127391748Y-85236999D01*
X127396208Y-83966999D01*
X129114556Y-83966999D01*
X129114556Y-83967000D01*
X130173971Y-83967000D01*
X130673971Y-83967000D01*
X131733386Y-83967000D01*
X131733385Y-83966999D01*
X136289556Y-83966999D01*
X136289556Y-83967000D01*
X137348971Y-83967000D01*
X137348971Y-83392000D01*
X136895428Y-83392000D01*
X136828678Y-83398065D01*
X136675074Y-83445929D01*
X136537390Y-83529163D01*
X136423634Y-83642919D01*
X136340398Y-83780607D01*
X136292538Y-83934197D01*
X136292535Y-83934207D01*
X136289556Y-83966999D01*
X131733385Y-83966999D01*
X131730406Y-83934207D01*
X131730403Y-83934197D01*
X131682543Y-83780607D01*
X131599307Y-83642919D01*
X131485551Y-83529163D01*
X131347867Y-83445929D01*
X131194263Y-83398065D01*
X131127514Y-83392000D01*
X130673971Y-83392000D01*
X130673971Y-83967000D01*
X130173971Y-83967000D01*
X130173971Y-83392000D01*
X129720428Y-83392000D01*
X129653678Y-83398065D01*
X129500074Y-83445929D01*
X129362390Y-83529163D01*
X129248634Y-83642919D01*
X129165398Y-83780607D01*
X129117538Y-83934197D01*
X129117535Y-83934207D01*
X129114556Y-83966999D01*
X127396208Y-83966999D01*
X127399952Y-82900980D01*
X127419872Y-82834013D01*
X127437563Y-82812463D01*
X129369053Y-80937040D01*
X129430861Y-80904464D01*
X129458644Y-80902047D01*
X131186192Y-80946872D01*
X132089727Y-80970317D01*
X132806970Y-80147472D01*
X132806970Y-77866999D01*
X139514556Y-77866999D01*
X139514556Y-77867000D01*
X140573971Y-77867000D01*
X141073971Y-77867000D01*
X142133386Y-77867000D01*
X142133385Y-77866999D01*
X146689556Y-77866999D01*
X146689556Y-77867000D01*
X147748971Y-77867000D01*
X148248971Y-77867000D01*
X149308386Y-77867000D01*
X149308385Y-77866999D01*
X149305406Y-77834207D01*
X149305403Y-77834197D01*
X149257543Y-77680607D01*
X149174307Y-77542919D01*
X149060551Y-77429163D01*
X148922867Y-77345929D01*
X148769263Y-77298065D01*
X148702514Y-77292000D01*
X148248971Y-77292000D01*
X148248971Y-77867000D01*
X147748971Y-77867000D01*
X147748971Y-77292000D01*
X147295428Y-77292000D01*
X147228678Y-77298065D01*
X147075074Y-77345929D01*
X146937390Y-77429163D01*
X146823634Y-77542919D01*
X146740398Y-77680607D01*
X146692538Y-77834197D01*
X146692535Y-77834207D01*
X146689556Y-77866999D01*
X142133385Y-77866999D01*
X142130406Y-77834207D01*
X142130403Y-77834197D01*
X142082543Y-77680607D01*
X141999307Y-77542919D01*
X141885551Y-77429163D01*
X141747867Y-77345929D01*
X141594263Y-77298065D01*
X141527514Y-77292000D01*
X141073971Y-77292000D01*
X141073971Y-77867000D01*
X140573971Y-77867000D01*
X140573971Y-77292000D01*
X140120428Y-77292000D01*
X140053678Y-77298065D01*
X139900074Y-77345929D01*
X139762390Y-77429163D01*
X139648634Y-77542919D01*
X139565398Y-77680607D01*
X139517538Y-77834197D01*
X139517535Y-77834207D01*
X139514556Y-77866999D01*
X132806970Y-77866999D01*
X132806970Y-77749845D01*
X132826655Y-77682806D01*
X132843294Y-77662158D01*
X134770644Y-75735155D01*
X134831969Y-75701676D01*
X134858336Y-75698845D01*
X154806970Y-75702421D01*
G37*
%TD.AperFunction*%
%TA.AperFunction,Conductor*%
G36*
X179408807Y-89512941D02*
G01*
X179421761Y-89518634D01*
X179426559Y-89521078D01*
X179433259Y-89524492D01*
X179484057Y-89572462D01*
X179500971Y-89634980D01*
X179500971Y-91037500D01*
X179481286Y-91104539D01*
X179428482Y-91150294D01*
X179376972Y-91161500D01*
X179238601Y-91161500D01*
X179238594Y-91161501D01*
X179178987Y-91167908D01*
X179044142Y-91218202D01*
X179044135Y-91218206D01*
X178928926Y-91304452D01*
X178928923Y-91304455D01*
X178842677Y-91419664D01*
X178842673Y-91419671D01*
X178792379Y-91554517D01*
X178787276Y-91601987D01*
X178785972Y-91614123D01*
X178785971Y-91614135D01*
X178785971Y-93409870D01*
X178785972Y-93409876D01*
X178792379Y-93469483D01*
X178842673Y-93604328D01*
X178842677Y-93604335D01*
X178928923Y-93719544D01*
X178928926Y-93719547D01*
X179044135Y-93805793D01*
X179044142Y-93805797D01*
X179087513Y-93821973D01*
X179178988Y-93856091D01*
X179238598Y-93862500D01*
X179249156Y-93862499D01*
X179316194Y-93882179D01*
X179336843Y-93898818D01*
X180007062Y-94569037D01*
X179943478Y-94586075D01*
X179829464Y-94651901D01*
X179736372Y-94744993D01*
X179670546Y-94859007D01*
X179653508Y-94922591D01*
X179021199Y-94290282D01*
X179021198Y-94290282D01*
X178981851Y-94344439D01*
X178885375Y-94533782D01*
X178819713Y-94735869D01*
X178819713Y-94735872D01*
X178786471Y-94945753D01*
X178786471Y-95158246D01*
X178819713Y-95368127D01*
X178819713Y-95368130D01*
X178885375Y-95570217D01*
X178981846Y-95759550D01*
X179021199Y-95813716D01*
X179653508Y-95181408D01*
X179670546Y-95244993D01*
X179736372Y-95359007D01*
X179829464Y-95452099D01*
X179943478Y-95517925D01*
X180007061Y-95534962D01*
X179374753Y-96167269D01*
X179374753Y-96167270D01*
X179428923Y-96206626D01*
X179428922Y-96206626D01*
X179437966Y-96211234D01*
X179488763Y-96259208D01*
X179505558Y-96327029D01*
X179483021Y-96393164D01*
X179437970Y-96432202D01*
X179428653Y-96436949D01*
X179256684Y-96561890D01*
X179106361Y-96712213D01*
X178981422Y-96884179D01*
X178884915Y-97073585D01*
X178819224Y-97275760D01*
X178795203Y-97427423D01*
X178785971Y-97485713D01*
X178785971Y-97698287D01*
X178790536Y-97727107D01*
X178819224Y-97908239D01*
X178884915Y-98110414D01*
X178981422Y-98299820D01*
X179106361Y-98471786D01*
X179256684Y-98622109D01*
X179428653Y-98747050D01*
X179437417Y-98751516D01*
X179488213Y-98799491D01*
X179505007Y-98867312D01*
X179482469Y-98933447D01*
X179437417Y-98972484D01*
X179428653Y-98976949D01*
X179256684Y-99101890D01*
X179106361Y-99252213D01*
X178981422Y-99424179D01*
X178884915Y-99613585D01*
X178819224Y-99815760D01*
X178798702Y-99945331D01*
X178785971Y-100025713D01*
X178785971Y-100238287D01*
X178787223Y-100246192D01*
X178805968Y-100364546D01*
X178819225Y-100448243D01*
X178870553Y-100606215D01*
X178884915Y-100650414D01*
X178981422Y-100839820D01*
X179106361Y-101011786D01*
X179256684Y-101162109D01*
X179428650Y-101287048D01*
X179428652Y-101287049D01*
X179428655Y-101287051D01*
X179618059Y-101383557D01*
X179820228Y-101449246D01*
X180030184Y-101482500D01*
X180030185Y-101482500D01*
X180242757Y-101482500D01*
X180242758Y-101482500D01*
X180452714Y-101449246D01*
X180654883Y-101383557D01*
X180654886Y-101383554D01*
X180654890Y-101383554D01*
X180654891Y-101383553D01*
X180737504Y-101341460D01*
X180806173Y-101328563D01*
X180870913Y-101354839D01*
X180911171Y-101411945D01*
X180914163Y-101481751D01*
X180881375Y-101539730D01*
X180143612Y-102275727D01*
X180082249Y-102309139D01*
X180055775Y-102311941D01*
X177910261Y-102307424D01*
X177897934Y-102307399D01*
X177897933Y-102307399D01*
X177897931Y-102307398D01*
X177406970Y-102306365D01*
X177406969Y-102306366D01*
X176806970Y-103083659D01*
X176806970Y-105814699D01*
X176787285Y-105881738D01*
X176770493Y-105902538D01*
X174999304Y-107667339D01*
X174937920Y-107700714D01*
X174911781Y-107703500D01*
X173608568Y-107703500D01*
X173541529Y-107683815D01*
X173495774Y-107631011D01*
X173485830Y-107561853D01*
X173514855Y-107498297D01*
X173520887Y-107491819D01*
X174023949Y-106988757D01*
X175618506Y-105394198D01*
X175618511Y-105394195D01*
X175628714Y-105383991D01*
X175628716Y-105383991D01*
X175740520Y-105272187D01*
X175798363Y-105172000D01*
X175817924Y-105138119D01*
X175817930Y-105138109D01*
X175819575Y-105135259D01*
X175819577Y-105135256D01*
X175860500Y-104982528D01*
X175860500Y-104824414D01*
X175860500Y-93010096D01*
X175880185Y-92943057D01*
X175896814Y-92922420D01*
X179184713Y-89634521D01*
X179184716Y-89634520D01*
X179277796Y-89541439D01*
X179339115Y-89507957D01*
X179408807Y-89512941D01*
G37*
%TD.AperFunction*%
%TA.AperFunction,Conductor*%
G36*
X162328618Y-98406494D02*
G01*
X162331815Y-98409579D01*
X162686652Y-98764416D01*
X162720137Y-98825739D01*
X162722971Y-98852097D01*
X162722971Y-102275330D01*
X162722970Y-102275348D01*
X162722970Y-102441054D01*
X162722969Y-102441054D01*
X162722970Y-102441057D01*
X162763894Y-102593785D01*
X162767667Y-102600320D01*
X162773191Y-102609889D01*
X162773193Y-102609891D01*
X162842948Y-102730712D01*
X162842952Y-102730717D01*
X162961820Y-102849585D01*
X162961826Y-102849590D01*
X163346610Y-103234374D01*
X163346620Y-103234385D01*
X163350950Y-103238715D01*
X163350951Y-103238716D01*
X163462755Y-103350520D01*
X163462757Y-103350521D01*
X163462761Y-103350524D01*
X163599680Y-103429573D01*
X163599687Y-103429577D01*
X163697594Y-103455811D01*
X163752413Y-103470500D01*
X163752414Y-103470500D01*
X168369374Y-103470500D01*
X168436413Y-103490185D01*
X168457055Y-103506819D01*
X168910055Y-103959819D01*
X168943540Y-104021142D01*
X168938556Y-104090834D01*
X168896684Y-104146767D01*
X168831220Y-104171184D01*
X168822374Y-104171500D01*
X168675184Y-104171500D01*
X168626513Y-104179208D01*
X168465231Y-104204753D01*
X168263056Y-104270444D01*
X168073650Y-104366951D01*
X167901684Y-104491890D01*
X167751361Y-104642213D01*
X167626420Y-104814182D01*
X167621673Y-104823499D01*
X167573698Y-104874293D01*
X167505876Y-104891087D01*
X167439742Y-104868548D01*
X167400705Y-104823495D01*
X167396097Y-104814452D01*
X167356741Y-104760282D01*
X167356740Y-104760282D01*
X166724433Y-105392590D01*
X166707396Y-105329007D01*
X166641570Y-105214993D01*
X166548478Y-105121901D01*
X166434464Y-105056075D01*
X166370880Y-105039037D01*
X167003187Y-104406728D01*
X166949021Y-104367375D01*
X166759688Y-104270904D01*
X166557600Y-104205242D01*
X166347717Y-104172000D01*
X166135225Y-104172000D01*
X165925343Y-104205242D01*
X165925340Y-104205242D01*
X165723253Y-104270904D01*
X165533910Y-104367380D01*
X165479753Y-104406727D01*
X165479753Y-104406728D01*
X166112062Y-105039037D01*
X166048478Y-105056075D01*
X165934464Y-105121901D01*
X165841372Y-105214993D01*
X165775546Y-105329007D01*
X165758508Y-105392591D01*
X165088289Y-104722372D01*
X165054804Y-104661049D01*
X165054801Y-104661036D01*
X165051970Y-104648015D01*
X165051970Y-104624128D01*
X165045562Y-104564517D01*
X165017397Y-104489002D01*
X164995269Y-104429673D01*
X164995264Y-104429664D01*
X164909018Y-104314455D01*
X164909015Y-104314452D01*
X164793806Y-104228206D01*
X164793799Y-104228202D01*
X164658953Y-104177908D01*
X164658954Y-104177908D01*
X164599354Y-104171501D01*
X164599352Y-104171500D01*
X164599344Y-104171500D01*
X164599335Y-104171500D01*
X162803600Y-104171500D01*
X162803594Y-104171501D01*
X162743987Y-104177908D01*
X162609142Y-104228202D01*
X162609135Y-104228206D01*
X162493926Y-104314452D01*
X162493923Y-104314455D01*
X162407677Y-104429664D01*
X162407673Y-104429671D01*
X162357379Y-104564517D01*
X162350972Y-104624116D01*
X162350971Y-104624135D01*
X162350971Y-106419870D01*
X162350972Y-106419876D01*
X162357379Y-106479483D01*
X162407673Y-106614328D01*
X162407675Y-106614331D01*
X162429278Y-106643189D01*
X162453695Y-106708654D01*
X162438843Y-106776927D01*
X162389438Y-106826332D01*
X162330011Y-106841500D01*
X161845568Y-106841500D01*
X161778529Y-106821815D01*
X161757887Y-106805181D01*
X161674290Y-106721584D01*
X161640805Y-106660261D01*
X161637971Y-106633903D01*
X161637971Y-101642059D01*
X161637972Y-101642046D01*
X161637972Y-101473945D01*
X161637972Y-101473943D01*
X161597048Y-101321215D01*
X161561342Y-101259371D01*
X161517991Y-101184284D01*
X161406187Y-101072480D01*
X161406186Y-101072479D01*
X161401856Y-101068149D01*
X161401845Y-101068139D01*
X160595952Y-100262246D01*
X160562467Y-100200923D01*
X160567451Y-100131231D01*
X160608146Y-100076190D01*
X160623715Y-100064244D01*
X160714960Y-99945331D01*
X160772319Y-99806854D01*
X160786971Y-99695561D01*
X160786970Y-98521498D01*
X160806655Y-98454460D01*
X160859458Y-98408705D01*
X160910970Y-98397499D01*
X162085033Y-98397499D01*
X162150423Y-98388890D01*
X162196325Y-98382848D01*
X162196671Y-98382704D01*
X162196985Y-98382670D01*
X162204171Y-98380745D01*
X162204471Y-98381864D01*
X162266135Y-98375227D01*
X162328618Y-98406494D01*
G37*
%TD.AperFunction*%
%TA.AperFunction,Conductor*%
G36*
X165775546Y-105714993D02*
G01*
X165841372Y-105829007D01*
X165934464Y-105922099D01*
X166048478Y-105987925D01*
X166112061Y-106004962D01*
X165479753Y-106637269D01*
X165481135Y-106654831D01*
X165494768Y-106672510D01*
X165500749Y-106742123D01*
X165468144Y-106803919D01*
X165407306Y-106838277D01*
X165379218Y-106841500D01*
X165072931Y-106841500D01*
X165005892Y-106821815D01*
X164960137Y-106769011D01*
X164950193Y-106699853D01*
X164973664Y-106643189D01*
X164978095Y-106637270D01*
X164995267Y-106614331D01*
X165045562Y-106479483D01*
X165051971Y-106419873D01*
X165051970Y-106409312D01*
X165071650Y-106342275D01*
X165088289Y-106321626D01*
X165758508Y-105651408D01*
X165775546Y-105714993D01*
G37*
%TD.AperFunction*%
%TA.AperFunction,Conductor*%
G36*
X167356741Y-106283717D02*
G01*
X167356741Y-106283716D01*
X167396093Y-106229555D01*
X167400703Y-106220507D01*
X167448676Y-106169709D01*
X167516496Y-106152912D01*
X167582632Y-106175447D01*
X167621675Y-106220504D01*
X167626420Y-106229817D01*
X167751361Y-106401786D01*
X167751367Y-106401792D01*
X167901679Y-106552104D01*
X167991251Y-106617181D01*
X168033917Y-106672511D01*
X168039896Y-106742124D01*
X168007291Y-106803920D01*
X167946452Y-106838277D01*
X167918366Y-106841500D01*
X167103724Y-106841500D01*
X167036685Y-106821815D01*
X166990930Y-106769011D01*
X166980986Y-106699853D01*
X167001859Y-106654145D01*
X167003188Y-106637270D01*
X166370879Y-106004962D01*
X166434464Y-105987925D01*
X166548478Y-105922099D01*
X166641570Y-105829007D01*
X166707396Y-105714993D01*
X166724433Y-105651408D01*
X167356741Y-106283717D01*
G37*
%TD.AperFunction*%
%TA.AperFunction,Conductor*%
G36*
X158048742Y-100210815D02*
G01*
X158048762Y-100210744D01*
X158056612Y-100212847D01*
X158056615Y-100212847D01*
X158056617Y-100212848D01*
X158167910Y-100227500D01*
X158655031Y-100227499D01*
X158655032Y-100227499D01*
X158724488Y-100218355D01*
X158766325Y-100212848D01*
X158766325Y-100212847D01*
X158774384Y-100211787D01*
X158774730Y-100214416D01*
X158831462Y-100215748D01*
X158881428Y-100246192D01*
X160400652Y-101765416D01*
X160434137Y-101826739D01*
X160436971Y-101853097D01*
X160436971Y-105121463D01*
X160417286Y-105188502D01*
X160364482Y-105234257D01*
X160295324Y-105244201D01*
X160231768Y-105215176D01*
X160195041Y-105159783D01*
X160193028Y-105153588D01*
X160193026Y-105153585D01*
X160193026Y-105153583D01*
X160116598Y-105003585D01*
X160096522Y-104964184D01*
X160096520Y-104964181D01*
X160096519Y-104964179D01*
X159971580Y-104792213D01*
X159821257Y-104641890D01*
X159649291Y-104516951D01*
X159459885Y-104420444D01*
X159459884Y-104420443D01*
X159459883Y-104420443D01*
X159257714Y-104354754D01*
X159257712Y-104354753D01*
X159257711Y-104354753D01*
X159090218Y-104328225D01*
X159047758Y-104321500D01*
X158835184Y-104321500D01*
X158792724Y-104328225D01*
X158625231Y-104354753D01*
X158423056Y-104420444D01*
X158233650Y-104516951D01*
X158061684Y-104641890D01*
X157911361Y-104792213D01*
X157786420Y-104964182D01*
X157781673Y-104973499D01*
X157733698Y-105024293D01*
X157665876Y-105041087D01*
X157599742Y-105018548D01*
X157560705Y-104973495D01*
X157556097Y-104964452D01*
X157516741Y-104910282D01*
X157516740Y-104910282D01*
X156884433Y-105542590D01*
X156867396Y-105479007D01*
X156801570Y-105364993D01*
X156708478Y-105271901D01*
X156594464Y-105206075D01*
X156530879Y-105189037D01*
X157163187Y-104556728D01*
X157109021Y-104517375D01*
X156919688Y-104420904D01*
X156717600Y-104355242D01*
X156507717Y-104322000D01*
X156395422Y-104322000D01*
X156328383Y-104302315D01*
X156282628Y-104249511D01*
X156272684Y-104180353D01*
X156301709Y-104116797D01*
X156307730Y-104110330D01*
X156545618Y-103872442D01*
X156606939Y-103838959D01*
X156676631Y-103843943D01*
X156702188Y-103857023D01*
X156799446Y-103922009D01*
X156799459Y-103922016D01*
X156922363Y-103972923D01*
X156963334Y-103989894D01*
X156963336Y-103989894D01*
X156963341Y-103989896D01*
X157137304Y-104024499D01*
X157137307Y-104024500D01*
X157137309Y-104024500D01*
X157314693Y-104024500D01*
X157314694Y-104024499D01*
X157372682Y-104012964D01*
X157488658Y-103989896D01*
X157488661Y-103989894D01*
X157488666Y-103989894D01*
X157652547Y-103922013D01*
X157800035Y-103823464D01*
X157925464Y-103698035D01*
X158024013Y-103550547D01*
X158091894Y-103386666D01*
X158092786Y-103382185D01*
X158126499Y-103212695D01*
X158126500Y-103212693D01*
X158126500Y-103035306D01*
X158126499Y-103035304D01*
X158091896Y-102861341D01*
X158091893Y-102861332D01*
X158087029Y-102849590D01*
X158074923Y-102820363D01*
X158024016Y-102697459D01*
X158024009Y-102697446D01*
X157925464Y-102549965D01*
X157925461Y-102549961D01*
X157800038Y-102424538D01*
X157800034Y-102424535D01*
X157652549Y-102325988D01*
X157652540Y-102325983D01*
X157488667Y-102258106D01*
X157488658Y-102258103D01*
X157314694Y-102223500D01*
X157314691Y-102223500D01*
X157137309Y-102223500D01*
X157137306Y-102223500D01*
X156963341Y-102258103D01*
X156963332Y-102258106D01*
X156799459Y-102325983D01*
X156799451Y-102325988D01*
X156651965Y-102424535D01*
X156651961Y-102424538D01*
X156614321Y-102462180D01*
X156552999Y-102495666D01*
X156526639Y-102498500D01*
X156347860Y-102498500D01*
X156287442Y-102510518D01*
X156249730Y-102518019D01*
X156227021Y-102522536D01*
X156227019Y-102522537D01*
X156193678Y-102536347D01*
X156113189Y-102569685D01*
X156113180Y-102569690D01*
X156064196Y-102602422D01*
X156064195Y-102602423D01*
X156010737Y-102638141D01*
X156010734Y-102638144D01*
X156004652Y-102644227D01*
X155943329Y-102677712D01*
X155873637Y-102672728D01*
X155817704Y-102630856D01*
X155793287Y-102565392D01*
X155792971Y-102556546D01*
X155792971Y-101646097D01*
X155812656Y-101579058D01*
X155829290Y-101558416D01*
X156483672Y-100904034D01*
X157141514Y-100246191D01*
X157202835Y-100212708D01*
X157248294Y-100213789D01*
X157248558Y-100211787D01*
X157256616Y-100212847D01*
X157256617Y-100212848D01*
X157367910Y-100227500D01*
X157855031Y-100227499D01*
X157855032Y-100227499D01*
X157871904Y-100225277D01*
X157966325Y-100212848D01*
X157966328Y-100212846D01*
X157974179Y-100210744D01*
X157974692Y-100212659D01*
X158033465Y-100206330D01*
X158048742Y-100210815D01*
G37*
%TD.AperFunction*%
%TA.AperFunction,Conductor*%
G36*
X152288536Y-85618185D02*
G01*
X152334291Y-85670989D01*
X152344235Y-85740147D01*
X152315210Y-85803703D01*
X152260501Y-85840206D01*
X152117351Y-85887641D01*
X152117346Y-85887643D01*
X151968125Y-85979684D01*
X151844155Y-86103654D01*
X151752114Y-86252875D01*
X151752112Y-86252880D01*
X151696965Y-86419302D01*
X151696964Y-86419309D01*
X151686471Y-86522013D01*
X151686471Y-86772000D01*
X152574971Y-86772000D01*
X152642010Y-86791685D01*
X152687765Y-86844489D01*
X152698971Y-86896000D01*
X152698971Y-87022000D01*
X152824971Y-87022000D01*
X152892010Y-87041685D01*
X152937765Y-87094489D01*
X152948971Y-87146000D01*
X152948971Y-88221999D01*
X153011443Y-88221999D01*
X153011457Y-88221998D01*
X153114168Y-88211505D01*
X153280590Y-88156358D01*
X153280595Y-88156356D01*
X153429813Y-88064317D01*
X153523435Y-87970695D01*
X153584758Y-87937210D01*
X153654450Y-87942194D01*
X153698798Y-87970695D01*
X153792815Y-88064712D01*
X153942137Y-88156814D01*
X154108674Y-88211999D01*
X154211462Y-88222500D01*
X154823872Y-88222499D01*
X154890911Y-88242183D01*
X154911553Y-88258818D01*
X155393543Y-88740807D01*
X155857555Y-89204820D01*
X155891040Y-89266142D01*
X155886056Y-89335833D01*
X155844184Y-89391767D01*
X155778720Y-89416184D01*
X155769895Y-89416500D01*
X155767913Y-89416500D01*
X155656624Y-89431150D01*
X155648771Y-89433255D01*
X155648259Y-89431345D01*
X155589440Y-89437662D01*
X155574194Y-89433185D01*
X155574176Y-89433256D01*
X155566326Y-89431152D01*
X155566325Y-89431152D01*
X155455032Y-89416500D01*
X154967908Y-89416500D01*
X154856624Y-89431150D01*
X154848771Y-89433255D01*
X154848259Y-89431345D01*
X154789440Y-89437662D01*
X154774194Y-89433185D01*
X154774176Y-89433256D01*
X154766326Y-89431152D01*
X154766325Y-89431152D01*
X154655032Y-89416500D01*
X154167908Y-89416500D01*
X154056624Y-89431150D01*
X154056616Y-89431152D01*
X153918141Y-89488510D01*
X153799227Y-89579756D01*
X153707981Y-89698670D01*
X153650623Y-89837145D01*
X153650622Y-89837147D01*
X153636597Y-89943685D01*
X153608331Y-90007582D01*
X153550006Y-90046053D01*
X153513658Y-90051500D01*
X152006141Y-90051500D01*
X152006125Y-90051499D01*
X151998529Y-90051499D01*
X151840414Y-90051499D01*
X151764050Y-90071961D01*
X151687685Y-90092423D01*
X151687680Y-90092426D01*
X151550761Y-90171475D01*
X151550753Y-90171481D01*
X150121652Y-91600583D01*
X150060329Y-91634068D01*
X149990637Y-91629084D01*
X149934704Y-91587212D01*
X149910287Y-91521748D01*
X149909971Y-91512902D01*
X149909971Y-91309059D01*
X149909972Y-91309046D01*
X149909972Y-91140945D01*
X149909972Y-91140943D01*
X149869048Y-90988215D01*
X149835027Y-90929289D01*
X149835027Y-90929288D01*
X149789995Y-90851290D01*
X149789992Y-90851286D01*
X149789991Y-90851284D01*
X149678187Y-90739480D01*
X149678186Y-90739479D01*
X149673856Y-90735149D01*
X149673845Y-90735139D01*
X149072887Y-90134181D01*
X149039402Y-90072858D01*
X149044386Y-90003166D01*
X149086258Y-89947233D01*
X149151722Y-89922816D01*
X149160568Y-89922500D01*
X149661474Y-89922500D01*
X149661479Y-89922500D01*
X149764268Y-89911999D01*
X149930805Y-89856814D01*
X150080126Y-89764711D01*
X150204182Y-89640655D01*
X150296285Y-89491334D01*
X150351470Y-89324797D01*
X150361971Y-89222008D01*
X150361971Y-87521986D01*
X151686472Y-87521986D01*
X151696965Y-87624697D01*
X151752112Y-87791119D01*
X151752114Y-87791124D01*
X151844155Y-87940345D01*
X151968125Y-88064315D01*
X152117346Y-88156356D01*
X152117351Y-88156358D01*
X152283773Y-88211505D01*
X152283780Y-88211506D01*
X152386490Y-88221999D01*
X152448970Y-88221998D01*
X152448971Y-88221998D01*
X152448971Y-87272000D01*
X151686472Y-87272000D01*
X151686472Y-87521986D01*
X150361971Y-87521986D01*
X150361971Y-87221992D01*
X150351470Y-87119203D01*
X150303853Y-86975507D01*
X150301452Y-86905682D01*
X150333877Y-86848827D01*
X151547888Y-85634819D01*
X151609211Y-85601334D01*
X151635569Y-85598500D01*
X152221497Y-85598500D01*
X152288536Y-85618185D01*
G37*
%TD.AperFunction*%
%TA.AperFunction,Conductor*%
G36*
X179660546Y-83474993D02*
G01*
X179726372Y-83589007D01*
X179819464Y-83682099D01*
X179933478Y-83747925D01*
X179997061Y-83764962D01*
X179364753Y-84397269D01*
X179364753Y-84397270D01*
X179418923Y-84436626D01*
X179418922Y-84436626D01*
X179427966Y-84441234D01*
X179478763Y-84489208D01*
X179495558Y-84557029D01*
X179473021Y-84623164D01*
X179427970Y-84662202D01*
X179418653Y-84666949D01*
X179246684Y-84791890D01*
X179096361Y-84942213D01*
X178971420Y-85114182D01*
X178966955Y-85122946D01*
X178918980Y-85173742D01*
X178851159Y-85190536D01*
X178785024Y-85167998D01*
X178745987Y-85122946D01*
X178741521Y-85114182D01*
X178616580Y-84942213D01*
X178503040Y-84828673D01*
X178469555Y-84767350D01*
X178474539Y-84697658D01*
X178516411Y-84641725D01*
X178547386Y-84624810D01*
X178678802Y-84575796D01*
X178794017Y-84489546D01*
X178880267Y-84374331D01*
X178930562Y-84239483D01*
X178936971Y-84179873D01*
X178936970Y-84169312D01*
X178956650Y-84102275D01*
X178973289Y-84081626D01*
X179643508Y-83411408D01*
X179660546Y-83474993D01*
G37*
%TD.AperFunction*%
%TD*%
M02*
