%TF.GenerationSoftware,KiCad,Pcbnew,10.0.5-10.0.5~ubuntu24.04.1*%
%TF.CreationDate,2026-08-17T14:25:01+08:00*%
%TF.ProjectId,prj3-datalogger,70726a33-2d64-4617-9461-6c6f67676572,${project_name}*%
%TF.SameCoordinates,Original*%
%TF.FileFunction,Legend,Top*%
%TF.FilePolarity,Positive*%
%FSLAX46Y46*%
G04 Gerber Fmt 4.6, Leading zero omitted, Abs format (unit mm)*
G04 Created by KiCad (PCBNEW 10.0.5-10.0.5~ubuntu24.04.1) date 2026-08-17 14:25:01*
%MOMM*%
%LPD*%
G01*
G04 APERTURE LIST*
%ADD10C,0.100000*%
%ADD11C,0.062500*%
%ADD12C,0.120000*%
%ADD13C,0.127000*%
%ADD14C,0.200000*%
G04 APERTURE END LIST*
D10*
X136246741Y-107633609D02*
X135961027Y-107633609D01*
X136103884Y-107633609D02*
X136103884Y-107133609D01*
X136103884Y-107133609D02*
X136056265Y-107205038D01*
X136056265Y-107205038D02*
X136008646Y-107252657D01*
X136008646Y-107252657D02*
X135961027Y-107276466D01*
X138561027Y-107181228D02*
X138584836Y-107157419D01*
X138584836Y-107157419D02*
X138632455Y-107133609D01*
X138632455Y-107133609D02*
X138751503Y-107133609D01*
X138751503Y-107133609D02*
X138799122Y-107157419D01*
X138799122Y-107157419D02*
X138822931Y-107181228D01*
X138822931Y-107181228D02*
X138846741Y-107228847D01*
X138846741Y-107228847D02*
X138846741Y-107276466D01*
X138846741Y-107276466D02*
X138822931Y-107347895D01*
X138822931Y-107347895D02*
X138537217Y-107633609D01*
X138537217Y-107633609D02*
X138846741Y-107633609D01*
X141037217Y-107133609D02*
X141346741Y-107133609D01*
X141346741Y-107133609D02*
X141180074Y-107324085D01*
X141180074Y-107324085D02*
X141251503Y-107324085D01*
X141251503Y-107324085D02*
X141299122Y-107347895D01*
X141299122Y-107347895D02*
X141322931Y-107371704D01*
X141322931Y-107371704D02*
X141346741Y-107419323D01*
X141346741Y-107419323D02*
X141346741Y-107538371D01*
X141346741Y-107538371D02*
X141322931Y-107585990D01*
X141322931Y-107585990D02*
X141299122Y-107609800D01*
X141299122Y-107609800D02*
X141251503Y-107633609D01*
X141251503Y-107633609D02*
X141108646Y-107633609D01*
X141108646Y-107633609D02*
X141061027Y-107609800D01*
X141061027Y-107609800D02*
X141037217Y-107585990D01*
X143899122Y-107300276D02*
X143899122Y-107633609D01*
X143780074Y-107109800D02*
X143661027Y-107466942D01*
X143661027Y-107466942D02*
X143970550Y-107466942D01*
X146422931Y-107133609D02*
X146184836Y-107133609D01*
X146184836Y-107133609D02*
X146161027Y-107371704D01*
X146161027Y-107371704D02*
X146184836Y-107347895D01*
X146184836Y-107347895D02*
X146232455Y-107324085D01*
X146232455Y-107324085D02*
X146351503Y-107324085D01*
X146351503Y-107324085D02*
X146399122Y-107347895D01*
X146399122Y-107347895D02*
X146422931Y-107371704D01*
X146422931Y-107371704D02*
X146446741Y-107419323D01*
X146446741Y-107419323D02*
X146446741Y-107538371D01*
X146446741Y-107538371D02*
X146422931Y-107585990D01*
X146422931Y-107585990D02*
X146399122Y-107609800D01*
X146399122Y-107609800D02*
X146351503Y-107633609D01*
X146351503Y-107633609D02*
X146232455Y-107633609D01*
X146232455Y-107633609D02*
X146184836Y-107609800D01*
X146184836Y-107609800D02*
X146161027Y-107585990D01*
X148899122Y-107133609D02*
X148803884Y-107133609D01*
X148803884Y-107133609D02*
X148756265Y-107157419D01*
X148756265Y-107157419D02*
X148732455Y-107181228D01*
X148732455Y-107181228D02*
X148684836Y-107252657D01*
X148684836Y-107252657D02*
X148661027Y-107347895D01*
X148661027Y-107347895D02*
X148661027Y-107538371D01*
X148661027Y-107538371D02*
X148684836Y-107585990D01*
X148684836Y-107585990D02*
X148708646Y-107609800D01*
X148708646Y-107609800D02*
X148756265Y-107633609D01*
X148756265Y-107633609D02*
X148851503Y-107633609D01*
X148851503Y-107633609D02*
X148899122Y-107609800D01*
X148899122Y-107609800D02*
X148922931Y-107585990D01*
X148922931Y-107585990D02*
X148946741Y-107538371D01*
X148946741Y-107538371D02*
X148946741Y-107419323D01*
X148946741Y-107419323D02*
X148922931Y-107371704D01*
X148922931Y-107371704D02*
X148899122Y-107347895D01*
X148899122Y-107347895D02*
X148851503Y-107324085D01*
X148851503Y-107324085D02*
X148756265Y-107324085D01*
X148756265Y-107324085D02*
X148708646Y-107347895D01*
X148708646Y-107347895D02*
X148684836Y-107371704D01*
X148684836Y-107371704D02*
X148661027Y-107419323D01*
X151137217Y-107133609D02*
X151470550Y-107133609D01*
X151470550Y-107133609D02*
X151256265Y-107633609D01*
X153946741Y-107157419D02*
X153899122Y-107133609D01*
X153899122Y-107133609D02*
X153827693Y-107133609D01*
X153827693Y-107133609D02*
X153756265Y-107157419D01*
X153756265Y-107157419D02*
X153708646Y-107205038D01*
X153708646Y-107205038D02*
X153684836Y-107252657D01*
X153684836Y-107252657D02*
X153661027Y-107347895D01*
X153661027Y-107347895D02*
X153661027Y-107419323D01*
X153661027Y-107419323D02*
X153684836Y-107514561D01*
X153684836Y-107514561D02*
X153708646Y-107562180D01*
X153708646Y-107562180D02*
X153756265Y-107609800D01*
X153756265Y-107609800D02*
X153827693Y-107633609D01*
X153827693Y-107633609D02*
X153875312Y-107633609D01*
X153875312Y-107633609D02*
X153946741Y-107609800D01*
X153946741Y-107609800D02*
X153970550Y-107585990D01*
X153970550Y-107585990D02*
X153970550Y-107419323D01*
X153970550Y-107419323D02*
X153875312Y-107419323D01*
X154184836Y-107633609D02*
X154184836Y-107133609D01*
X154184836Y-107133609D02*
X154470550Y-107633609D01*
X154470550Y-107633609D02*
X154470550Y-107133609D01*
X154708646Y-107633609D02*
X154708646Y-107133609D01*
X154708646Y-107133609D02*
X154827694Y-107133609D01*
X154827694Y-107133609D02*
X154899122Y-107157419D01*
X154899122Y-107157419D02*
X154946741Y-107205038D01*
X154946741Y-107205038D02*
X154970551Y-107252657D01*
X154970551Y-107252657D02*
X154994360Y-107347895D01*
X154994360Y-107347895D02*
X154994360Y-107419323D01*
X154994360Y-107419323D02*
X154970551Y-107514561D01*
X154970551Y-107514561D02*
X154946741Y-107562180D01*
X154946741Y-107562180D02*
X154899122Y-107609800D01*
X154899122Y-107609800D02*
X154827694Y-107633609D01*
X154827694Y-107633609D02*
X154708646Y-107633609D01*
X156213408Y-107133609D02*
X156380074Y-107633609D01*
X156380074Y-107633609D02*
X156546741Y-107133609D01*
X156927693Y-107609800D02*
X156880074Y-107633609D01*
X156880074Y-107633609D02*
X156784836Y-107633609D01*
X156784836Y-107633609D02*
X156737217Y-107609800D01*
X156737217Y-107609800D02*
X156713407Y-107585990D01*
X156713407Y-107585990D02*
X156689598Y-107538371D01*
X156689598Y-107538371D02*
X156689598Y-107395514D01*
X156689598Y-107395514D02*
X156713407Y-107347895D01*
X156713407Y-107347895D02*
X156737217Y-107324085D01*
X156737217Y-107324085D02*
X156784836Y-107300276D01*
X156784836Y-107300276D02*
X156880074Y-107300276D01*
X156880074Y-107300276D02*
X156927693Y-107324085D01*
X157356264Y-107609800D02*
X157308645Y-107633609D01*
X157308645Y-107633609D02*
X157213407Y-107633609D01*
X157213407Y-107633609D02*
X157165788Y-107609800D01*
X157165788Y-107609800D02*
X157141978Y-107585990D01*
X157141978Y-107585990D02*
X157118169Y-107538371D01*
X157118169Y-107538371D02*
X157118169Y-107395514D01*
X157118169Y-107395514D02*
X157141978Y-107347895D01*
X157141978Y-107347895D02*
X157165788Y-107324085D01*
X157165788Y-107324085D02*
X157213407Y-107300276D01*
X157213407Y-107300276D02*
X157308645Y-107300276D01*
X157308645Y-107300276D02*
X157356264Y-107324085D01*
X163446741Y-107157419D02*
X163399122Y-107133609D01*
X163399122Y-107133609D02*
X163327693Y-107133609D01*
X163327693Y-107133609D02*
X163256265Y-107157419D01*
X163256265Y-107157419D02*
X163208646Y-107205038D01*
X163208646Y-107205038D02*
X163184836Y-107252657D01*
X163184836Y-107252657D02*
X163161027Y-107347895D01*
X163161027Y-107347895D02*
X163161027Y-107419323D01*
X163161027Y-107419323D02*
X163184836Y-107514561D01*
X163184836Y-107514561D02*
X163208646Y-107562180D01*
X163208646Y-107562180D02*
X163256265Y-107609800D01*
X163256265Y-107609800D02*
X163327693Y-107633609D01*
X163327693Y-107633609D02*
X163375312Y-107633609D01*
X163375312Y-107633609D02*
X163446741Y-107609800D01*
X163446741Y-107609800D02*
X163470550Y-107585990D01*
X163470550Y-107585990D02*
X163470550Y-107419323D01*
X163470550Y-107419323D02*
X163375312Y-107419323D01*
X163684836Y-107633609D02*
X163684836Y-107133609D01*
X163684836Y-107133609D02*
X163970550Y-107633609D01*
X163970550Y-107633609D02*
X163970550Y-107133609D01*
X164208646Y-107633609D02*
X164208646Y-107133609D01*
X164208646Y-107133609D02*
X164327694Y-107133609D01*
X164327694Y-107133609D02*
X164399122Y-107157419D01*
X164399122Y-107157419D02*
X164446741Y-107205038D01*
X164446741Y-107205038D02*
X164470551Y-107252657D01*
X164470551Y-107252657D02*
X164494360Y-107347895D01*
X164494360Y-107347895D02*
X164494360Y-107419323D01*
X164494360Y-107419323D02*
X164470551Y-107514561D01*
X164470551Y-107514561D02*
X164446741Y-107562180D01*
X164446741Y-107562180D02*
X164399122Y-107609800D01*
X164399122Y-107609800D02*
X164327694Y-107633609D01*
X164327694Y-107633609D02*
X164208646Y-107633609D01*
X165713408Y-107133609D02*
X165880074Y-107633609D01*
X165880074Y-107633609D02*
X166046741Y-107133609D01*
X166427693Y-107609800D02*
X166380074Y-107633609D01*
X166380074Y-107633609D02*
X166284836Y-107633609D01*
X166284836Y-107633609D02*
X166237217Y-107609800D01*
X166237217Y-107609800D02*
X166213407Y-107585990D01*
X166213407Y-107585990D02*
X166189598Y-107538371D01*
X166189598Y-107538371D02*
X166189598Y-107395514D01*
X166189598Y-107395514D02*
X166213407Y-107347895D01*
X166213407Y-107347895D02*
X166237217Y-107324085D01*
X166237217Y-107324085D02*
X166284836Y-107300276D01*
X166284836Y-107300276D02*
X166380074Y-107300276D01*
X166380074Y-107300276D02*
X166427693Y-107324085D01*
X166856264Y-107609800D02*
X166808645Y-107633609D01*
X166808645Y-107633609D02*
X166713407Y-107633609D01*
X166713407Y-107633609D02*
X166665788Y-107609800D01*
X166665788Y-107609800D02*
X166641978Y-107585990D01*
X166641978Y-107585990D02*
X166618169Y-107538371D01*
X166618169Y-107538371D02*
X166618169Y-107395514D01*
X166618169Y-107395514D02*
X166641978Y-107347895D01*
X166641978Y-107347895D02*
X166665788Y-107324085D01*
X166665788Y-107324085D02*
X166713407Y-107300276D01*
X166713407Y-107300276D02*
X166808645Y-107300276D01*
X166808645Y-107300276D02*
X166856264Y-107324085D01*
X168361027Y-107609800D02*
X168432455Y-107633609D01*
X168432455Y-107633609D02*
X168551503Y-107633609D01*
X168551503Y-107633609D02*
X168599122Y-107609800D01*
X168599122Y-107609800D02*
X168622931Y-107585990D01*
X168622931Y-107585990D02*
X168646741Y-107538371D01*
X168646741Y-107538371D02*
X168646741Y-107490752D01*
X168646741Y-107490752D02*
X168622931Y-107443133D01*
X168622931Y-107443133D02*
X168599122Y-107419323D01*
X168599122Y-107419323D02*
X168551503Y-107395514D01*
X168551503Y-107395514D02*
X168456265Y-107371704D01*
X168456265Y-107371704D02*
X168408646Y-107347895D01*
X168408646Y-107347895D02*
X168384836Y-107324085D01*
X168384836Y-107324085D02*
X168361027Y-107276466D01*
X168361027Y-107276466D02*
X168361027Y-107228847D01*
X168361027Y-107228847D02*
X168384836Y-107181228D01*
X168384836Y-107181228D02*
X168408646Y-107157419D01*
X168408646Y-107157419D02*
X168456265Y-107133609D01*
X168456265Y-107133609D02*
X168575312Y-107133609D01*
X168575312Y-107133609D02*
X168646741Y-107157419D01*
X168861026Y-107633609D02*
X168861026Y-107133609D01*
X168861026Y-107133609D02*
X168980074Y-107133609D01*
X168980074Y-107133609D02*
X169051502Y-107157419D01*
X169051502Y-107157419D02*
X169099121Y-107205038D01*
X169099121Y-107205038D02*
X169122931Y-107252657D01*
X169122931Y-107252657D02*
X169146740Y-107347895D01*
X169146740Y-107347895D02*
X169146740Y-107419323D01*
X169146740Y-107419323D02*
X169122931Y-107514561D01*
X169122931Y-107514561D02*
X169099121Y-107562180D01*
X169099121Y-107562180D02*
X169051502Y-107609800D01*
X169051502Y-107609800D02*
X168980074Y-107633609D01*
X168980074Y-107633609D02*
X168861026Y-107633609D01*
X169337217Y-107490752D02*
X169575312Y-107490752D01*
X169289598Y-107633609D02*
X169456264Y-107133609D01*
X169456264Y-107133609D02*
X169622931Y-107633609D01*
X170384836Y-75843133D02*
X170765789Y-75843133D01*
X170575312Y-76033609D02*
X170575312Y-75652657D01*
X170961027Y-107609800D02*
X171032455Y-107633609D01*
X171032455Y-107633609D02*
X171151503Y-107633609D01*
X171151503Y-107633609D02*
X171199122Y-107609800D01*
X171199122Y-107609800D02*
X171222931Y-107585990D01*
X171222931Y-107585990D02*
X171246741Y-107538371D01*
X171246741Y-107538371D02*
X171246741Y-107490752D01*
X171246741Y-107490752D02*
X171222931Y-107443133D01*
X171222931Y-107443133D02*
X171199122Y-107419323D01*
X171199122Y-107419323D02*
X171151503Y-107395514D01*
X171151503Y-107395514D02*
X171056265Y-107371704D01*
X171056265Y-107371704D02*
X171008646Y-107347895D01*
X171008646Y-107347895D02*
X170984836Y-107324085D01*
X170984836Y-107324085D02*
X170961027Y-107276466D01*
X170961027Y-107276466D02*
X170961027Y-107228847D01*
X170961027Y-107228847D02*
X170984836Y-107181228D01*
X170984836Y-107181228D02*
X171008646Y-107157419D01*
X171008646Y-107157419D02*
X171056265Y-107133609D01*
X171056265Y-107133609D02*
X171175312Y-107133609D01*
X171175312Y-107133609D02*
X171246741Y-107157419D01*
X171746740Y-107585990D02*
X171722931Y-107609800D01*
X171722931Y-107609800D02*
X171651502Y-107633609D01*
X171651502Y-107633609D02*
X171603883Y-107633609D01*
X171603883Y-107633609D02*
X171532455Y-107609800D01*
X171532455Y-107609800D02*
X171484836Y-107562180D01*
X171484836Y-107562180D02*
X171461026Y-107514561D01*
X171461026Y-107514561D02*
X171437217Y-107419323D01*
X171437217Y-107419323D02*
X171437217Y-107347895D01*
X171437217Y-107347895D02*
X171461026Y-107252657D01*
X171461026Y-107252657D02*
X171484836Y-107205038D01*
X171484836Y-107205038D02*
X171532455Y-107157419D01*
X171532455Y-107157419D02*
X171603883Y-107133609D01*
X171603883Y-107133609D02*
X171651502Y-107133609D01*
X171651502Y-107133609D02*
X171722931Y-107157419D01*
X171722931Y-107157419D02*
X171746740Y-107181228D01*
X172199121Y-107633609D02*
X171961026Y-107633609D01*
X171961026Y-107633609D02*
X171961026Y-107133609D01*
X172984836Y-75843133D02*
X173365789Y-75843133D01*
X174913754Y-84352355D02*
X174560200Y-83998802D01*
X174560200Y-83998802D02*
X174930589Y-84133489D01*
X174930589Y-84133489D02*
X174795902Y-83763099D01*
X174795902Y-83763099D02*
X175149456Y-84116653D01*
X175317815Y-83948294D02*
X174964262Y-83594740D01*
X175452502Y-83779935D02*
X175519845Y-83746263D01*
X175519845Y-83746263D02*
X175604025Y-83662084D01*
X175604025Y-83662084D02*
X175620860Y-83611576D01*
X175620860Y-83611576D02*
X175620860Y-83577905D01*
X175620860Y-83577905D02*
X175604025Y-83527397D01*
X175604025Y-83527397D02*
X175570353Y-83493725D01*
X175570353Y-83493725D02*
X175519845Y-83476889D01*
X175519845Y-83476889D02*
X175486173Y-83476889D01*
X175486173Y-83476889D02*
X175435666Y-83493725D01*
X175435666Y-83493725D02*
X175351486Y-83544233D01*
X175351486Y-83544233D02*
X175300979Y-83561069D01*
X175300979Y-83561069D02*
X175267307Y-83561069D01*
X175267307Y-83561069D02*
X175216799Y-83544233D01*
X175216799Y-83544233D02*
X175183128Y-83510561D01*
X175183128Y-83510561D02*
X175166292Y-83460054D01*
X175166292Y-83460054D02*
X175166292Y-83426382D01*
X175166292Y-83426382D02*
X175183128Y-83375874D01*
X175183128Y-83375874D02*
X175267307Y-83291695D01*
X175267307Y-83291695D02*
X175334651Y-83258023D01*
X175536681Y-83022321D02*
X175604024Y-82954978D01*
X175604024Y-82954978D02*
X175654532Y-82938142D01*
X175654532Y-82938142D02*
X175721875Y-82938142D01*
X175721875Y-82938142D02*
X175806055Y-82988649D01*
X175806055Y-82988649D02*
X175923906Y-83106501D01*
X175923906Y-83106501D02*
X175974414Y-83190680D01*
X175974414Y-83190680D02*
X175974414Y-83258023D01*
X175974414Y-83258023D02*
X175957578Y-83308531D01*
X175957578Y-83308531D02*
X175890234Y-83375875D01*
X175890234Y-83375875D02*
X175839727Y-83392710D01*
X175839727Y-83392710D02*
X175772383Y-83392710D01*
X175772383Y-83392710D02*
X175688204Y-83342203D01*
X175688204Y-83342203D02*
X175570353Y-83224352D01*
X175570353Y-83224352D02*
X175519845Y-83140172D01*
X175519845Y-83140172D02*
X175519845Y-83072829D01*
X175519845Y-83072829D02*
X175536681Y-83022321D01*
X175050082Y-86722355D02*
X175117425Y-86688683D01*
X175117425Y-86688683D02*
X175201605Y-86604504D01*
X175201605Y-86604504D02*
X175218441Y-86553996D01*
X175218441Y-86553996D02*
X175218441Y-86520325D01*
X175218441Y-86520325D02*
X175201605Y-86469817D01*
X175201605Y-86469817D02*
X175167933Y-86436145D01*
X175167933Y-86436145D02*
X175117425Y-86419309D01*
X175117425Y-86419309D02*
X175083754Y-86419309D01*
X175083754Y-86419309D02*
X175033246Y-86436145D01*
X175033246Y-86436145D02*
X174949067Y-86486653D01*
X174949067Y-86486653D02*
X174898559Y-86503489D01*
X174898559Y-86503489D02*
X174864887Y-86503489D01*
X174864887Y-86503489D02*
X174814380Y-86486653D01*
X174814380Y-86486653D02*
X174780708Y-86452981D01*
X174780708Y-86452981D02*
X174763872Y-86402473D01*
X174763872Y-86402473D02*
X174763872Y-86368802D01*
X174763872Y-86368802D02*
X174780708Y-86318294D01*
X174780708Y-86318294D02*
X174864887Y-86234115D01*
X174864887Y-86234115D02*
X174932231Y-86200443D01*
X175588830Y-86149936D02*
X175588830Y-86183607D01*
X175588830Y-86183607D02*
X175555158Y-86250951D01*
X175555158Y-86250951D02*
X175521486Y-86284623D01*
X175521486Y-86284623D02*
X175454143Y-86318294D01*
X175454143Y-86318294D02*
X175386799Y-86318294D01*
X175386799Y-86318294D02*
X175336291Y-86301459D01*
X175336291Y-86301459D02*
X175252112Y-86250951D01*
X175252112Y-86250951D02*
X175201604Y-86200443D01*
X175201604Y-86200443D02*
X175151097Y-86116264D01*
X175151097Y-86116264D02*
X175134261Y-86065756D01*
X175134261Y-86065756D02*
X175134261Y-85998413D01*
X175134261Y-85998413D02*
X175167933Y-85931069D01*
X175167933Y-85931069D02*
X175201604Y-85897398D01*
X175201604Y-85897398D02*
X175268948Y-85863726D01*
X175268948Y-85863726D02*
X175302620Y-85863726D01*
X175942383Y-85863726D02*
X175774024Y-86032085D01*
X175774024Y-86032085D02*
X175420471Y-85678531D01*
X175285784Y-89220325D02*
X174999574Y-89169817D01*
X175083754Y-89422355D02*
X174730200Y-89068802D01*
X174730200Y-89068802D02*
X174864887Y-88934115D01*
X174864887Y-88934115D02*
X174915395Y-88917279D01*
X174915395Y-88917279D02*
X174949067Y-88917279D01*
X174949067Y-88917279D02*
X174999574Y-88934115D01*
X174999574Y-88934115D02*
X175050082Y-88984622D01*
X175050082Y-88984622D02*
X175066918Y-89035130D01*
X175066918Y-89035130D02*
X175066918Y-89068802D01*
X175066918Y-89068802D02*
X175050082Y-89119309D01*
X175050082Y-89119309D02*
X174915395Y-89253996D01*
X175403635Y-89068802D02*
X175470979Y-89035130D01*
X175470979Y-89035130D02*
X175555158Y-88950951D01*
X175555158Y-88950951D02*
X175571994Y-88900443D01*
X175571994Y-88900443D02*
X175571994Y-88866771D01*
X175571994Y-88866771D02*
X175555158Y-88816264D01*
X175555158Y-88816264D02*
X175521486Y-88782592D01*
X175521486Y-88782592D02*
X175470979Y-88765756D01*
X175470979Y-88765756D02*
X175437307Y-88765756D01*
X175437307Y-88765756D02*
X175386799Y-88782592D01*
X175386799Y-88782592D02*
X175302620Y-88833099D01*
X175302620Y-88833099D02*
X175252112Y-88849935D01*
X175252112Y-88849935D02*
X175218441Y-88849935D01*
X175218441Y-88849935D02*
X175167933Y-88833099D01*
X175167933Y-88833099D02*
X175134261Y-88799428D01*
X175134261Y-88799428D02*
X175117425Y-88748920D01*
X175117425Y-88748920D02*
X175117425Y-88715248D01*
X175117425Y-88715248D02*
X175134261Y-88664741D01*
X175134261Y-88664741D02*
X175218441Y-88580561D01*
X175218441Y-88580561D02*
X175285784Y-88546890D01*
X175369963Y-88429039D02*
X175571994Y-88227008D01*
X175824532Y-88681577D02*
X175470978Y-88328024D01*
X177132231Y-92800443D02*
X177081723Y-92817279D01*
X177081723Y-92817279D02*
X177031215Y-92867786D01*
X177031215Y-92867786D02*
X176997544Y-92935130D01*
X176997544Y-92935130D02*
X176997544Y-93002473D01*
X176997544Y-93002473D02*
X177014380Y-93052981D01*
X177014380Y-93052981D02*
X177064887Y-93137160D01*
X177064887Y-93137160D02*
X177115395Y-93187668D01*
X177115395Y-93187668D02*
X177199574Y-93238176D01*
X177199574Y-93238176D02*
X177250082Y-93255012D01*
X177250082Y-93255012D02*
X177317425Y-93255012D01*
X177317425Y-93255012D02*
X177384769Y-93221340D01*
X177384769Y-93221340D02*
X177418441Y-93187668D01*
X177418441Y-93187668D02*
X177452112Y-93120325D01*
X177452112Y-93120325D02*
X177452112Y-93086653D01*
X177452112Y-93086653D02*
X177334261Y-92968802D01*
X177334261Y-92968802D02*
X177266918Y-93036145D01*
X177637307Y-92968802D02*
X177283754Y-92615248D01*
X177283754Y-92615248D02*
X177839337Y-92766771D01*
X177839337Y-92766771D02*
X177485784Y-92413218D01*
X178007697Y-92598412D02*
X177654143Y-92244859D01*
X177654143Y-92244859D02*
X177738323Y-92160679D01*
X177738323Y-92160679D02*
X177805666Y-92127008D01*
X177805666Y-92127008D02*
X177873010Y-92127008D01*
X177873010Y-92127008D02*
X177923517Y-92143843D01*
X177923517Y-92143843D02*
X178007697Y-92194351D01*
X178007697Y-92194351D02*
X178058204Y-92244859D01*
X178058204Y-92244859D02*
X178108712Y-92329038D01*
X178108712Y-92329038D02*
X178125548Y-92379546D01*
X178125548Y-92379546D02*
X178125548Y-92446889D01*
X178125548Y-92446889D02*
X178091876Y-92514233D01*
X178091876Y-92514233D02*
X178007697Y-92598412D01*
X176979693Y-95719309D02*
X177451097Y-95955012D01*
X177451097Y-95955012D02*
X177215395Y-95483607D01*
X177821486Y-95550951D02*
X177804650Y-95601459D01*
X177804650Y-95601459D02*
X177737307Y-95668802D01*
X177737307Y-95668802D02*
X177686799Y-95685638D01*
X177686799Y-95685638D02*
X177653127Y-95685638D01*
X177653127Y-95685638D02*
X177602620Y-95668802D01*
X177602620Y-95668802D02*
X177501604Y-95567787D01*
X177501604Y-95567787D02*
X177484769Y-95517279D01*
X177484769Y-95517279D02*
X177484769Y-95483607D01*
X177484769Y-95483607D02*
X177501604Y-95433100D01*
X177501604Y-95433100D02*
X177568948Y-95365756D01*
X177568948Y-95365756D02*
X177619456Y-95348920D01*
X178124531Y-95247905D02*
X178107696Y-95298413D01*
X178107696Y-95298413D02*
X178040352Y-95365757D01*
X178040352Y-95365757D02*
X177989844Y-95382592D01*
X177989844Y-95382592D02*
X177956173Y-95382592D01*
X177956173Y-95382592D02*
X177905665Y-95365757D01*
X177905665Y-95365757D02*
X177804650Y-95264741D01*
X177804650Y-95264741D02*
X177787814Y-95214234D01*
X177787814Y-95214234D02*
X177787814Y-95180562D01*
X177787814Y-95180562D02*
X177804650Y-95130054D01*
X177804650Y-95130054D02*
X177871993Y-95062711D01*
X177871993Y-95062711D02*
X177922501Y-95045875D01*
X177685784Y-98320325D02*
X177399574Y-98269817D01*
X177483754Y-98522355D02*
X177130200Y-98168802D01*
X177130200Y-98168802D02*
X177264887Y-98034115D01*
X177264887Y-98034115D02*
X177315395Y-98017279D01*
X177315395Y-98017279D02*
X177349067Y-98017279D01*
X177349067Y-98017279D02*
X177399574Y-98034115D01*
X177399574Y-98034115D02*
X177450082Y-98084622D01*
X177450082Y-98084622D02*
X177466918Y-98135130D01*
X177466918Y-98135130D02*
X177466918Y-98168802D01*
X177466918Y-98168802D02*
X177450082Y-98219309D01*
X177450082Y-98219309D02*
X177315395Y-98353996D01*
X177450082Y-97848920D02*
X178039337Y-97966771D01*
X177685784Y-97613218D02*
X177803635Y-98202473D01*
X177079693Y-100519309D02*
X177281723Y-100317279D01*
X177534261Y-100771847D02*
X177180708Y-100418294D01*
X177365902Y-100233100D02*
X177955158Y-100350951D01*
X177601604Y-99997397D02*
X177719456Y-100586653D01*
X182516390Y-82723408D02*
X182016390Y-82890074D01*
X182016390Y-82890074D02*
X182516390Y-83056741D01*
X182040200Y-83437693D02*
X182016390Y-83390074D01*
X182016390Y-83390074D02*
X182016390Y-83294836D01*
X182016390Y-83294836D02*
X182040200Y-83247217D01*
X182040200Y-83247217D02*
X182064009Y-83223407D01*
X182064009Y-83223407D02*
X182111628Y-83199598D01*
X182111628Y-83199598D02*
X182254485Y-83199598D01*
X182254485Y-83199598D02*
X182302104Y-83223407D01*
X182302104Y-83223407D02*
X182325914Y-83247217D01*
X182325914Y-83247217D02*
X182349723Y-83294836D01*
X182349723Y-83294836D02*
X182349723Y-83390074D01*
X182349723Y-83390074D02*
X182325914Y-83437693D01*
X182040200Y-83866264D02*
X182016390Y-83818645D01*
X182016390Y-83818645D02*
X182016390Y-83723407D01*
X182016390Y-83723407D02*
X182040200Y-83675788D01*
X182040200Y-83675788D02*
X182064009Y-83651978D01*
X182064009Y-83651978D02*
X182111628Y-83628169D01*
X182111628Y-83628169D02*
X182254485Y-83628169D01*
X182254485Y-83628169D02*
X182302104Y-83651978D01*
X182302104Y-83651978D02*
X182325914Y-83675788D01*
X182325914Y-83675788D02*
X182349723Y-83723407D01*
X182349723Y-83723407D02*
X182349723Y-83818645D01*
X182349723Y-83818645D02*
X182325914Y-83866264D01*
X182016390Y-85194836D02*
X182516390Y-85194836D01*
X182516390Y-85194836D02*
X182159247Y-85361503D01*
X182159247Y-85361503D02*
X182516390Y-85528169D01*
X182516390Y-85528169D02*
X182016390Y-85528169D01*
X182516390Y-85861503D02*
X182516390Y-85956741D01*
X182516390Y-85956741D02*
X182492580Y-86004360D01*
X182492580Y-86004360D02*
X182444961Y-86051979D01*
X182444961Y-86051979D02*
X182349723Y-86075789D01*
X182349723Y-86075789D02*
X182183057Y-86075789D01*
X182183057Y-86075789D02*
X182087819Y-86051979D01*
X182087819Y-86051979D02*
X182040200Y-86004360D01*
X182040200Y-86004360D02*
X182016390Y-85956741D01*
X182016390Y-85956741D02*
X182016390Y-85861503D01*
X182016390Y-85861503D02*
X182040200Y-85813884D01*
X182040200Y-85813884D02*
X182087819Y-85766265D01*
X182087819Y-85766265D02*
X182183057Y-85742456D01*
X182183057Y-85742456D02*
X182349723Y-85742456D01*
X182349723Y-85742456D02*
X182444961Y-85766265D01*
X182444961Y-85766265D02*
X182492580Y-85813884D01*
X182492580Y-85813884D02*
X182516390Y-85861503D01*
X182040200Y-86266266D02*
X182016390Y-86337694D01*
X182016390Y-86337694D02*
X182016390Y-86456742D01*
X182016390Y-86456742D02*
X182040200Y-86504361D01*
X182040200Y-86504361D02*
X182064009Y-86528170D01*
X182064009Y-86528170D02*
X182111628Y-86551980D01*
X182111628Y-86551980D02*
X182159247Y-86551980D01*
X182159247Y-86551980D02*
X182206866Y-86528170D01*
X182206866Y-86528170D02*
X182230676Y-86504361D01*
X182230676Y-86504361D02*
X182254485Y-86456742D01*
X182254485Y-86456742D02*
X182278295Y-86361504D01*
X182278295Y-86361504D02*
X182302104Y-86313885D01*
X182302104Y-86313885D02*
X182325914Y-86290075D01*
X182325914Y-86290075D02*
X182373533Y-86266266D01*
X182373533Y-86266266D02*
X182421152Y-86266266D01*
X182421152Y-86266266D02*
X182468771Y-86290075D01*
X182468771Y-86290075D02*
X182492580Y-86313885D01*
X182492580Y-86313885D02*
X182516390Y-86361504D01*
X182516390Y-86361504D02*
X182516390Y-86480551D01*
X182516390Y-86480551D02*
X182492580Y-86551980D01*
X182016390Y-86766265D02*
X182516390Y-86766265D01*
X182492580Y-87956741D02*
X182516390Y-87909122D01*
X182516390Y-87909122D02*
X182516390Y-87837693D01*
X182516390Y-87837693D02*
X182492580Y-87766265D01*
X182492580Y-87766265D02*
X182444961Y-87718646D01*
X182444961Y-87718646D02*
X182397342Y-87694836D01*
X182397342Y-87694836D02*
X182302104Y-87671027D01*
X182302104Y-87671027D02*
X182230676Y-87671027D01*
X182230676Y-87671027D02*
X182135438Y-87694836D01*
X182135438Y-87694836D02*
X182087819Y-87718646D01*
X182087819Y-87718646D02*
X182040200Y-87766265D01*
X182040200Y-87766265D02*
X182016390Y-87837693D01*
X182016390Y-87837693D02*
X182016390Y-87885312D01*
X182016390Y-87885312D02*
X182040200Y-87956741D01*
X182040200Y-87956741D02*
X182064009Y-87980550D01*
X182064009Y-87980550D02*
X182230676Y-87980550D01*
X182230676Y-87980550D02*
X182230676Y-87885312D01*
X182016390Y-88194836D02*
X182516390Y-88194836D01*
X182516390Y-88194836D02*
X182016390Y-88480550D01*
X182016390Y-88480550D02*
X182516390Y-88480550D01*
X182016390Y-88718646D02*
X182516390Y-88718646D01*
X182516390Y-88718646D02*
X182516390Y-88837694D01*
X182516390Y-88837694D02*
X182492580Y-88909122D01*
X182492580Y-88909122D02*
X182444961Y-88956741D01*
X182444961Y-88956741D02*
X182397342Y-88980551D01*
X182397342Y-88980551D02*
X182302104Y-89004360D01*
X182302104Y-89004360D02*
X182230676Y-89004360D01*
X182230676Y-89004360D02*
X182135438Y-88980551D01*
X182135438Y-88980551D02*
X182087819Y-88956741D01*
X182087819Y-88956741D02*
X182040200Y-88909122D01*
X182040200Y-88909122D02*
X182016390Y-88837694D01*
X182016390Y-88837694D02*
X182016390Y-88718646D01*
D11*
X167216666Y-90122440D02*
X167192857Y-90146250D01*
X167192857Y-90146250D02*
X167121428Y-90170059D01*
X167121428Y-90170059D02*
X167073809Y-90170059D01*
X167073809Y-90170059D02*
X167002381Y-90146250D01*
X167002381Y-90146250D02*
X166954762Y-90098630D01*
X166954762Y-90098630D02*
X166930952Y-90051011D01*
X166930952Y-90051011D02*
X166907143Y-89955773D01*
X166907143Y-89955773D02*
X166907143Y-89884345D01*
X166907143Y-89884345D02*
X166930952Y-89789107D01*
X166930952Y-89789107D02*
X166954762Y-89741488D01*
X166954762Y-89741488D02*
X167002381Y-89693869D01*
X167002381Y-89693869D02*
X167073809Y-89670059D01*
X167073809Y-89670059D02*
X167121428Y-89670059D01*
X167121428Y-89670059D02*
X167192857Y-89693869D01*
X167192857Y-89693869D02*
X167216666Y-89717678D01*
X167692857Y-90170059D02*
X167407143Y-90170059D01*
X167550000Y-90170059D02*
X167550000Y-89670059D01*
X167550000Y-89670059D02*
X167502381Y-89741488D01*
X167502381Y-89741488D02*
X167454762Y-89789107D01*
X167454762Y-89789107D02*
X167407143Y-89812916D01*
X167316666Y-86228059D02*
X167150000Y-85989964D01*
X167030952Y-86228059D02*
X167030952Y-85728059D01*
X167030952Y-85728059D02*
X167221428Y-85728059D01*
X167221428Y-85728059D02*
X167269047Y-85751869D01*
X167269047Y-85751869D02*
X167292857Y-85775678D01*
X167292857Y-85775678D02*
X167316666Y-85823297D01*
X167316666Y-85823297D02*
X167316666Y-85894726D01*
X167316666Y-85894726D02*
X167292857Y-85942345D01*
X167292857Y-85942345D02*
X167269047Y-85966154D01*
X167269047Y-85966154D02*
X167221428Y-85989964D01*
X167221428Y-85989964D02*
X167030952Y-85989964D01*
X167792857Y-86228059D02*
X167507143Y-86228059D01*
X167650000Y-86228059D02*
X167650000Y-85728059D01*
X167650000Y-85728059D02*
X167602381Y-85799488D01*
X167602381Y-85799488D02*
X167554762Y-85847107D01*
X167554762Y-85847107D02*
X167507143Y-85870916D01*
X158428137Y-80622440D02*
X158404328Y-80646250D01*
X158404328Y-80646250D02*
X158332899Y-80670059D01*
X158332899Y-80670059D02*
X158285280Y-80670059D01*
X158285280Y-80670059D02*
X158213852Y-80646250D01*
X158213852Y-80646250D02*
X158166233Y-80598630D01*
X158166233Y-80598630D02*
X158142423Y-80551011D01*
X158142423Y-80551011D02*
X158118614Y-80455773D01*
X158118614Y-80455773D02*
X158118614Y-80384345D01*
X158118614Y-80384345D02*
X158142423Y-80289107D01*
X158142423Y-80289107D02*
X158166233Y-80241488D01*
X158166233Y-80241488D02*
X158213852Y-80193869D01*
X158213852Y-80193869D02*
X158285280Y-80170059D01*
X158285280Y-80170059D02*
X158332899Y-80170059D01*
X158332899Y-80170059D02*
X158404328Y-80193869D01*
X158404328Y-80193869D02*
X158428137Y-80217678D01*
X158618614Y-80217678D02*
X158642423Y-80193869D01*
X158642423Y-80193869D02*
X158690042Y-80170059D01*
X158690042Y-80170059D02*
X158809090Y-80170059D01*
X158809090Y-80170059D02*
X158856709Y-80193869D01*
X158856709Y-80193869D02*
X158880518Y-80217678D01*
X158880518Y-80217678D02*
X158904328Y-80265297D01*
X158904328Y-80265297D02*
X158904328Y-80312916D01*
X158904328Y-80312916D02*
X158880518Y-80384345D01*
X158880518Y-80384345D02*
X158594804Y-80670059D01*
X158594804Y-80670059D02*
X158904328Y-80670059D01*
X153528137Y-85600059D02*
X153361471Y-85361964D01*
X153242423Y-85600059D02*
X153242423Y-85100059D01*
X153242423Y-85100059D02*
X153432899Y-85100059D01*
X153432899Y-85100059D02*
X153480518Y-85123869D01*
X153480518Y-85123869D02*
X153504328Y-85147678D01*
X153504328Y-85147678D02*
X153528137Y-85195297D01*
X153528137Y-85195297D02*
X153528137Y-85266726D01*
X153528137Y-85266726D02*
X153504328Y-85314345D01*
X153504328Y-85314345D02*
X153480518Y-85338154D01*
X153480518Y-85338154D02*
X153432899Y-85361964D01*
X153432899Y-85361964D02*
X153242423Y-85361964D01*
X153694804Y-85100059D02*
X154028137Y-85100059D01*
X154028137Y-85100059D02*
X153813852Y-85600059D01*
X148234530Y-97505333D02*
X147996435Y-97671999D01*
X148234530Y-97791047D02*
X147734530Y-97791047D01*
X147734530Y-97791047D02*
X147734530Y-97600571D01*
X147734530Y-97600571D02*
X147758340Y-97552952D01*
X147758340Y-97552952D02*
X147782149Y-97529142D01*
X147782149Y-97529142D02*
X147829768Y-97505333D01*
X147829768Y-97505333D02*
X147901197Y-97505333D01*
X147901197Y-97505333D02*
X147948816Y-97529142D01*
X147948816Y-97529142D02*
X147972625Y-97552952D01*
X147972625Y-97552952D02*
X147996435Y-97600571D01*
X147996435Y-97600571D02*
X147996435Y-97791047D01*
X147901197Y-97076761D02*
X148234530Y-97076761D01*
X147710721Y-97195809D02*
X148067863Y-97314856D01*
X148067863Y-97314856D02*
X148067863Y-97005333D01*
X167142423Y-82200059D02*
X167142423Y-81700059D01*
X167142423Y-81700059D02*
X167261471Y-81700059D01*
X167261471Y-81700059D02*
X167332899Y-81723869D01*
X167332899Y-81723869D02*
X167380518Y-81771488D01*
X167380518Y-81771488D02*
X167404328Y-81819107D01*
X167404328Y-81819107D02*
X167428137Y-81914345D01*
X167428137Y-81914345D02*
X167428137Y-81985773D01*
X167428137Y-81985773D02*
X167404328Y-82081011D01*
X167404328Y-82081011D02*
X167380518Y-82128630D01*
X167380518Y-82128630D02*
X167332899Y-82176250D01*
X167332899Y-82176250D02*
X167261471Y-82200059D01*
X167261471Y-82200059D02*
X167142423Y-82200059D01*
X167904328Y-82200059D02*
X167618614Y-82200059D01*
X167761471Y-82200059D02*
X167761471Y-81700059D01*
X167761471Y-81700059D02*
X167713852Y-81771488D01*
X167713852Y-81771488D02*
X167666233Y-81819107D01*
X167666233Y-81819107D02*
X167618614Y-81842916D01*
X175461905Y-81128059D02*
X175461905Y-80628059D01*
X175985714Y-81080440D02*
X175961905Y-81104250D01*
X175961905Y-81104250D02*
X175890476Y-81128059D01*
X175890476Y-81128059D02*
X175842857Y-81128059D01*
X175842857Y-81128059D02*
X175771429Y-81104250D01*
X175771429Y-81104250D02*
X175723810Y-81056630D01*
X175723810Y-81056630D02*
X175700000Y-81009011D01*
X175700000Y-81009011D02*
X175676191Y-80913773D01*
X175676191Y-80913773D02*
X175676191Y-80842345D01*
X175676191Y-80842345D02*
X175700000Y-80747107D01*
X175700000Y-80747107D02*
X175723810Y-80699488D01*
X175723810Y-80699488D02*
X175771429Y-80651869D01*
X175771429Y-80651869D02*
X175842857Y-80628059D01*
X175842857Y-80628059D02*
X175890476Y-80628059D01*
X175890476Y-80628059D02*
X175961905Y-80651869D01*
X175961905Y-80651869D02*
X175985714Y-80675678D01*
X176176191Y-81104250D02*
X176247619Y-81128059D01*
X176247619Y-81128059D02*
X176366667Y-81128059D01*
X176366667Y-81128059D02*
X176414286Y-81104250D01*
X176414286Y-81104250D02*
X176438095Y-81080440D01*
X176438095Y-81080440D02*
X176461905Y-81032821D01*
X176461905Y-81032821D02*
X176461905Y-80985202D01*
X176461905Y-80985202D02*
X176438095Y-80937583D01*
X176438095Y-80937583D02*
X176414286Y-80913773D01*
X176414286Y-80913773D02*
X176366667Y-80889964D01*
X176366667Y-80889964D02*
X176271429Y-80866154D01*
X176271429Y-80866154D02*
X176223810Y-80842345D01*
X176223810Y-80842345D02*
X176200000Y-80818535D01*
X176200000Y-80818535D02*
X176176191Y-80770916D01*
X176176191Y-80770916D02*
X176176191Y-80723297D01*
X176176191Y-80723297D02*
X176200000Y-80675678D01*
X176200000Y-80675678D02*
X176223810Y-80651869D01*
X176223810Y-80651869D02*
X176271429Y-80628059D01*
X176271429Y-80628059D02*
X176390476Y-80628059D01*
X176390476Y-80628059D02*
X176461905Y-80651869D01*
X176676190Y-81128059D02*
X176676190Y-80628059D01*
X176676190Y-80628059D02*
X176866666Y-80628059D01*
X176866666Y-80628059D02*
X176914285Y-80651869D01*
X176914285Y-80651869D02*
X176938095Y-80675678D01*
X176938095Y-80675678D02*
X176961904Y-80723297D01*
X176961904Y-80723297D02*
X176961904Y-80794726D01*
X176961904Y-80794726D02*
X176938095Y-80842345D01*
X176938095Y-80842345D02*
X176914285Y-80866154D01*
X176914285Y-80866154D02*
X176866666Y-80889964D01*
X176866666Y-80889964D02*
X176676190Y-80889964D01*
X140419047Y-94828059D02*
X140419047Y-95232821D01*
X140419047Y-95232821D02*
X140442857Y-95280440D01*
X140442857Y-95280440D02*
X140466666Y-95304250D01*
X140466666Y-95304250D02*
X140514285Y-95328059D01*
X140514285Y-95328059D02*
X140609523Y-95328059D01*
X140609523Y-95328059D02*
X140657142Y-95304250D01*
X140657142Y-95304250D02*
X140680952Y-95280440D01*
X140680952Y-95280440D02*
X140704761Y-95232821D01*
X140704761Y-95232821D02*
X140704761Y-94828059D01*
X140895238Y-94828059D02*
X141204762Y-94828059D01*
X141204762Y-94828059D02*
X141038095Y-95018535D01*
X141038095Y-95018535D02*
X141109524Y-95018535D01*
X141109524Y-95018535D02*
X141157143Y-95042345D01*
X141157143Y-95042345D02*
X141180952Y-95066154D01*
X141180952Y-95066154D02*
X141204762Y-95113773D01*
X141204762Y-95113773D02*
X141204762Y-95232821D01*
X141204762Y-95232821D02*
X141180952Y-95280440D01*
X141180952Y-95280440D02*
X141157143Y-95304250D01*
X141157143Y-95304250D02*
X141109524Y-95328059D01*
X141109524Y-95328059D02*
X140966667Y-95328059D01*
X140966667Y-95328059D02*
X140919048Y-95304250D01*
X140919048Y-95304250D02*
X140895238Y-95280440D01*
X135630000Y-103241869D02*
X135582381Y-103218059D01*
X135582381Y-103218059D02*
X135510952Y-103218059D01*
X135510952Y-103218059D02*
X135439524Y-103241869D01*
X135439524Y-103241869D02*
X135391905Y-103289488D01*
X135391905Y-103289488D02*
X135368095Y-103337107D01*
X135368095Y-103337107D02*
X135344286Y-103432345D01*
X135344286Y-103432345D02*
X135344286Y-103503773D01*
X135344286Y-103503773D02*
X135368095Y-103599011D01*
X135368095Y-103599011D02*
X135391905Y-103646630D01*
X135391905Y-103646630D02*
X135439524Y-103694250D01*
X135439524Y-103694250D02*
X135510952Y-103718059D01*
X135510952Y-103718059D02*
X135558571Y-103718059D01*
X135558571Y-103718059D02*
X135630000Y-103694250D01*
X135630000Y-103694250D02*
X135653809Y-103670440D01*
X135653809Y-103670440D02*
X135653809Y-103503773D01*
X135653809Y-103503773D02*
X135558571Y-103503773D01*
X135868095Y-103718059D02*
X135868095Y-103218059D01*
X135868095Y-103218059D02*
X136058571Y-103218059D01*
X136058571Y-103218059D02*
X136106190Y-103241869D01*
X136106190Y-103241869D02*
X136130000Y-103265678D01*
X136130000Y-103265678D02*
X136153809Y-103313297D01*
X136153809Y-103313297D02*
X136153809Y-103384726D01*
X136153809Y-103384726D02*
X136130000Y-103432345D01*
X136130000Y-103432345D02*
X136106190Y-103456154D01*
X136106190Y-103456154D02*
X136058571Y-103479964D01*
X136058571Y-103479964D02*
X135868095Y-103479964D01*
X136368095Y-103718059D02*
X136368095Y-103218059D01*
X136701428Y-103218059D02*
X136796666Y-103218059D01*
X136796666Y-103218059D02*
X136844285Y-103241869D01*
X136844285Y-103241869D02*
X136891904Y-103289488D01*
X136891904Y-103289488D02*
X136915714Y-103384726D01*
X136915714Y-103384726D02*
X136915714Y-103551392D01*
X136915714Y-103551392D02*
X136891904Y-103646630D01*
X136891904Y-103646630D02*
X136844285Y-103694250D01*
X136844285Y-103694250D02*
X136796666Y-103718059D01*
X136796666Y-103718059D02*
X136701428Y-103718059D01*
X136701428Y-103718059D02*
X136653809Y-103694250D01*
X136653809Y-103694250D02*
X136606190Y-103646630D01*
X136606190Y-103646630D02*
X136582381Y-103551392D01*
X136582381Y-103551392D02*
X136582381Y-103384726D01*
X136582381Y-103384726D02*
X136606190Y-103289488D01*
X136606190Y-103289488D02*
X136653809Y-103241869D01*
X136653809Y-103241869D02*
X136701428Y-103218059D01*
X141361905Y-85289964D02*
X141361905Y-85528059D01*
X141195239Y-85028059D02*
X141361905Y-85289964D01*
X141361905Y-85289964D02*
X141528572Y-85028059D01*
X141671429Y-85075678D02*
X141695238Y-85051869D01*
X141695238Y-85051869D02*
X141742857Y-85028059D01*
X141742857Y-85028059D02*
X141861905Y-85028059D01*
X141861905Y-85028059D02*
X141909524Y-85051869D01*
X141909524Y-85051869D02*
X141933333Y-85075678D01*
X141933333Y-85075678D02*
X141957143Y-85123297D01*
X141957143Y-85123297D02*
X141957143Y-85170916D01*
X141957143Y-85170916D02*
X141933333Y-85242345D01*
X141933333Y-85242345D02*
X141647619Y-85528059D01*
X141647619Y-85528059D02*
X141957143Y-85528059D01*
X176911905Y-91228059D02*
X176911905Y-90728059D01*
X177126191Y-90775678D02*
X177150000Y-90751869D01*
X177150000Y-90751869D02*
X177197619Y-90728059D01*
X177197619Y-90728059D02*
X177316667Y-90728059D01*
X177316667Y-90728059D02*
X177364286Y-90751869D01*
X177364286Y-90751869D02*
X177388095Y-90775678D01*
X177388095Y-90775678D02*
X177411905Y-90823297D01*
X177411905Y-90823297D02*
X177411905Y-90870916D01*
X177411905Y-90870916D02*
X177388095Y-90942345D01*
X177388095Y-90942345D02*
X177102381Y-91228059D01*
X177102381Y-91228059D02*
X177411905Y-91228059D01*
X177911904Y-91180440D02*
X177888095Y-91204250D01*
X177888095Y-91204250D02*
X177816666Y-91228059D01*
X177816666Y-91228059D02*
X177769047Y-91228059D01*
X177769047Y-91228059D02*
X177697619Y-91204250D01*
X177697619Y-91204250D02*
X177650000Y-91156630D01*
X177650000Y-91156630D02*
X177626190Y-91109011D01*
X177626190Y-91109011D02*
X177602381Y-91013773D01*
X177602381Y-91013773D02*
X177602381Y-90942345D01*
X177602381Y-90942345D02*
X177626190Y-90847107D01*
X177626190Y-90847107D02*
X177650000Y-90799488D01*
X177650000Y-90799488D02*
X177697619Y-90751869D01*
X177697619Y-90751869D02*
X177769047Y-90728059D01*
X177769047Y-90728059D02*
X177816666Y-90728059D01*
X177816666Y-90728059D02*
X177888095Y-90751869D01*
X177888095Y-90751869D02*
X177911904Y-90775678D01*
X162962381Y-103078059D02*
X162962381Y-103482821D01*
X162962381Y-103482821D02*
X162986191Y-103530440D01*
X162986191Y-103530440D02*
X163010000Y-103554250D01*
X163010000Y-103554250D02*
X163057619Y-103578059D01*
X163057619Y-103578059D02*
X163152857Y-103578059D01*
X163152857Y-103578059D02*
X163200476Y-103554250D01*
X163200476Y-103554250D02*
X163224286Y-103530440D01*
X163224286Y-103530440D02*
X163248095Y-103482821D01*
X163248095Y-103482821D02*
X163248095Y-103078059D01*
X163462382Y-103435202D02*
X163700477Y-103435202D01*
X163414763Y-103578059D02*
X163581429Y-103078059D01*
X163581429Y-103078059D02*
X163748096Y-103578059D01*
X164200476Y-103578059D02*
X164033810Y-103339964D01*
X163914762Y-103578059D02*
X163914762Y-103078059D01*
X163914762Y-103078059D02*
X164105238Y-103078059D01*
X164105238Y-103078059D02*
X164152857Y-103101869D01*
X164152857Y-103101869D02*
X164176667Y-103125678D01*
X164176667Y-103125678D02*
X164200476Y-103173297D01*
X164200476Y-103173297D02*
X164200476Y-103244726D01*
X164200476Y-103244726D02*
X164176667Y-103292345D01*
X164176667Y-103292345D02*
X164152857Y-103316154D01*
X164152857Y-103316154D02*
X164105238Y-103339964D01*
X164105238Y-103339964D02*
X163914762Y-103339964D01*
X164343334Y-103078059D02*
X164629048Y-103078059D01*
X164486191Y-103578059D02*
X164486191Y-103078059D01*
X171916666Y-93728059D02*
X171750000Y-93489964D01*
X171630952Y-93728059D02*
X171630952Y-93228059D01*
X171630952Y-93228059D02*
X171821428Y-93228059D01*
X171821428Y-93228059D02*
X171869047Y-93251869D01*
X171869047Y-93251869D02*
X171892857Y-93275678D01*
X171892857Y-93275678D02*
X171916666Y-93323297D01*
X171916666Y-93323297D02*
X171916666Y-93394726D01*
X171916666Y-93394726D02*
X171892857Y-93442345D01*
X171892857Y-93442345D02*
X171869047Y-93466154D01*
X171869047Y-93466154D02*
X171821428Y-93489964D01*
X171821428Y-93489964D02*
X171630952Y-93489964D01*
X172369047Y-93228059D02*
X172130952Y-93228059D01*
X172130952Y-93228059D02*
X172107143Y-93466154D01*
X172107143Y-93466154D02*
X172130952Y-93442345D01*
X172130952Y-93442345D02*
X172178571Y-93418535D01*
X172178571Y-93418535D02*
X172297619Y-93418535D01*
X172297619Y-93418535D02*
X172345238Y-93442345D01*
X172345238Y-93442345D02*
X172369047Y-93466154D01*
X172369047Y-93466154D02*
X172392857Y-93513773D01*
X172392857Y-93513773D02*
X172392857Y-93632821D01*
X172392857Y-93632821D02*
X172369047Y-93680440D01*
X172369047Y-93680440D02*
X172345238Y-93704250D01*
X172345238Y-93704250D02*
X172297619Y-93728059D01*
X172297619Y-93728059D02*
X172178571Y-93728059D01*
X172178571Y-93728059D02*
X172130952Y-93704250D01*
X172130952Y-93704250D02*
X172107143Y-93680440D01*
X171928137Y-86165059D02*
X171761471Y-85926964D01*
X171642423Y-86165059D02*
X171642423Y-85665059D01*
X171642423Y-85665059D02*
X171832899Y-85665059D01*
X171832899Y-85665059D02*
X171880518Y-85688869D01*
X171880518Y-85688869D02*
X171904328Y-85712678D01*
X171904328Y-85712678D02*
X171928137Y-85760297D01*
X171928137Y-85760297D02*
X171928137Y-85831726D01*
X171928137Y-85831726D02*
X171904328Y-85879345D01*
X171904328Y-85879345D02*
X171880518Y-85903154D01*
X171880518Y-85903154D02*
X171832899Y-85926964D01*
X171832899Y-85926964D02*
X171642423Y-85926964D01*
X172356709Y-85665059D02*
X172261471Y-85665059D01*
X172261471Y-85665059D02*
X172213852Y-85688869D01*
X172213852Y-85688869D02*
X172190042Y-85712678D01*
X172190042Y-85712678D02*
X172142423Y-85784107D01*
X172142423Y-85784107D02*
X172118614Y-85879345D01*
X172118614Y-85879345D02*
X172118614Y-86069821D01*
X172118614Y-86069821D02*
X172142423Y-86117440D01*
X172142423Y-86117440D02*
X172166233Y-86141250D01*
X172166233Y-86141250D02*
X172213852Y-86165059D01*
X172213852Y-86165059D02*
X172309090Y-86165059D01*
X172309090Y-86165059D02*
X172356709Y-86141250D01*
X172356709Y-86141250D02*
X172380518Y-86117440D01*
X172380518Y-86117440D02*
X172404328Y-86069821D01*
X172404328Y-86069821D02*
X172404328Y-85950773D01*
X172404328Y-85950773D02*
X172380518Y-85903154D01*
X172380518Y-85903154D02*
X172356709Y-85879345D01*
X172356709Y-85879345D02*
X172309090Y-85855535D01*
X172309090Y-85855535D02*
X172213852Y-85855535D01*
X172213852Y-85855535D02*
X172166233Y-85879345D01*
X172166233Y-85879345D02*
X172142423Y-85903154D01*
X172142423Y-85903154D02*
X172118614Y-85950773D01*
X168066154Y-79035713D02*
X168089964Y-78964285D01*
X168089964Y-78964285D02*
X168113773Y-78940475D01*
X168113773Y-78940475D02*
X168161392Y-78916666D01*
X168161392Y-78916666D02*
X168232821Y-78916666D01*
X168232821Y-78916666D02*
X168280440Y-78940475D01*
X168280440Y-78940475D02*
X168304250Y-78964285D01*
X168304250Y-78964285D02*
X168328059Y-79011904D01*
X168328059Y-79011904D02*
X168328059Y-79202380D01*
X168328059Y-79202380D02*
X167828059Y-79202380D01*
X167828059Y-79202380D02*
X167828059Y-79035713D01*
X167828059Y-79035713D02*
X167851869Y-78988094D01*
X167851869Y-78988094D02*
X167875678Y-78964285D01*
X167875678Y-78964285D02*
X167923297Y-78940475D01*
X167923297Y-78940475D02*
X167970916Y-78940475D01*
X167970916Y-78940475D02*
X168018535Y-78964285D01*
X168018535Y-78964285D02*
X168042345Y-78988094D01*
X168042345Y-78988094D02*
X168066154Y-79035713D01*
X168066154Y-79035713D02*
X168066154Y-79202380D01*
X168328059Y-78488094D02*
X168066154Y-78488094D01*
X168066154Y-78488094D02*
X168018535Y-78511904D01*
X168018535Y-78511904D02*
X167994726Y-78559523D01*
X167994726Y-78559523D02*
X167994726Y-78654761D01*
X167994726Y-78654761D02*
X168018535Y-78702380D01*
X168304250Y-78488094D02*
X168328059Y-78535713D01*
X168328059Y-78535713D02*
X168328059Y-78654761D01*
X168328059Y-78654761D02*
X168304250Y-78702380D01*
X168304250Y-78702380D02*
X168256630Y-78726189D01*
X168256630Y-78726189D02*
X168209011Y-78726189D01*
X168209011Y-78726189D02*
X168161392Y-78702380D01*
X168161392Y-78702380D02*
X168137583Y-78654761D01*
X168137583Y-78654761D02*
X168137583Y-78535713D01*
X168137583Y-78535713D02*
X168113773Y-78488094D01*
X167994726Y-78321427D02*
X167994726Y-78130951D01*
X167828059Y-78249999D02*
X168256630Y-78249999D01*
X168256630Y-78249999D02*
X168304250Y-78226189D01*
X168304250Y-78226189D02*
X168328059Y-78178570D01*
X168328059Y-78178570D02*
X168328059Y-78130951D01*
X167994726Y-78035713D02*
X167994726Y-77845237D01*
X167828059Y-77964285D02*
X168256630Y-77964285D01*
X168256630Y-77964285D02*
X168304250Y-77940475D01*
X168304250Y-77940475D02*
X168328059Y-77892856D01*
X168328059Y-77892856D02*
X168328059Y-77845237D01*
X168304250Y-77488095D02*
X168328059Y-77535714D01*
X168328059Y-77535714D02*
X168328059Y-77630952D01*
X168328059Y-77630952D02*
X168304250Y-77678571D01*
X168304250Y-77678571D02*
X168256630Y-77702380D01*
X168256630Y-77702380D02*
X168066154Y-77702380D01*
X168066154Y-77702380D02*
X168018535Y-77678571D01*
X168018535Y-77678571D02*
X167994726Y-77630952D01*
X167994726Y-77630952D02*
X167994726Y-77535714D01*
X167994726Y-77535714D02*
X168018535Y-77488095D01*
X168018535Y-77488095D02*
X168066154Y-77464285D01*
X168066154Y-77464285D02*
X168113773Y-77464285D01*
X168113773Y-77464285D02*
X168161392Y-77702380D01*
X168328059Y-77250000D02*
X167994726Y-77250000D01*
X168089964Y-77250000D02*
X168042345Y-77226190D01*
X168042345Y-77226190D02*
X168018535Y-77202381D01*
X168018535Y-77202381D02*
X167994726Y-77154762D01*
X167994726Y-77154762D02*
X167994726Y-77107143D01*
X167994726Y-76988095D02*
X168328059Y-76869047D01*
X167994726Y-76750000D02*
X168328059Y-76869047D01*
X168328059Y-76869047D02*
X168447107Y-76916666D01*
X168447107Y-76916666D02*
X168470916Y-76940476D01*
X168470916Y-76940476D02*
X168494726Y-76988095D01*
X171928137Y-82022440D02*
X171904328Y-82046250D01*
X171904328Y-82046250D02*
X171832899Y-82070059D01*
X171832899Y-82070059D02*
X171785280Y-82070059D01*
X171785280Y-82070059D02*
X171713852Y-82046250D01*
X171713852Y-82046250D02*
X171666233Y-81998630D01*
X171666233Y-81998630D02*
X171642423Y-81951011D01*
X171642423Y-81951011D02*
X171618614Y-81855773D01*
X171618614Y-81855773D02*
X171618614Y-81784345D01*
X171618614Y-81784345D02*
X171642423Y-81689107D01*
X171642423Y-81689107D02*
X171666233Y-81641488D01*
X171666233Y-81641488D02*
X171713852Y-81593869D01*
X171713852Y-81593869D02*
X171785280Y-81570059D01*
X171785280Y-81570059D02*
X171832899Y-81570059D01*
X171832899Y-81570059D02*
X171904328Y-81593869D01*
X171904328Y-81593869D02*
X171928137Y-81617678D01*
X172380518Y-81570059D02*
X172142423Y-81570059D01*
X172142423Y-81570059D02*
X172118614Y-81808154D01*
X172118614Y-81808154D02*
X172142423Y-81784345D01*
X172142423Y-81784345D02*
X172190042Y-81760535D01*
X172190042Y-81760535D02*
X172309090Y-81760535D01*
X172309090Y-81760535D02*
X172356709Y-81784345D01*
X172356709Y-81784345D02*
X172380518Y-81808154D01*
X172380518Y-81808154D02*
X172404328Y-81855773D01*
X172404328Y-81855773D02*
X172404328Y-81974821D01*
X172404328Y-81974821D02*
X172380518Y-82022440D01*
X172380518Y-82022440D02*
X172356709Y-82046250D01*
X172356709Y-82046250D02*
X172309090Y-82070059D01*
X172309090Y-82070059D02*
X172190042Y-82070059D01*
X172190042Y-82070059D02*
X172142423Y-82046250D01*
X172142423Y-82046250D02*
X172118614Y-82022440D01*
X154142423Y-77000059D02*
X154142423Y-76500059D01*
X154142423Y-76500059D02*
X154261471Y-76500059D01*
X154261471Y-76500059D02*
X154332899Y-76523869D01*
X154332899Y-76523869D02*
X154380518Y-76571488D01*
X154380518Y-76571488D02*
X154404328Y-76619107D01*
X154404328Y-76619107D02*
X154428137Y-76714345D01*
X154428137Y-76714345D02*
X154428137Y-76785773D01*
X154428137Y-76785773D02*
X154404328Y-76881011D01*
X154404328Y-76881011D02*
X154380518Y-76928630D01*
X154380518Y-76928630D02*
X154332899Y-76976250D01*
X154332899Y-76976250D02*
X154261471Y-77000059D01*
X154261471Y-77000059D02*
X154142423Y-77000059D01*
X154618614Y-76547678D02*
X154642423Y-76523869D01*
X154642423Y-76523869D02*
X154690042Y-76500059D01*
X154690042Y-76500059D02*
X154809090Y-76500059D01*
X154809090Y-76500059D02*
X154856709Y-76523869D01*
X154856709Y-76523869D02*
X154880518Y-76547678D01*
X154880518Y-76547678D02*
X154904328Y-76595297D01*
X154904328Y-76595297D02*
X154904328Y-76642916D01*
X154904328Y-76642916D02*
X154880518Y-76714345D01*
X154880518Y-76714345D02*
X154594804Y-77000059D01*
X154594804Y-77000059D02*
X154904328Y-77000059D01*
X144030518Y-76150059D02*
X144030518Y-76554821D01*
X144030518Y-76554821D02*
X144054328Y-76602440D01*
X144054328Y-76602440D02*
X144078137Y-76626250D01*
X144078137Y-76626250D02*
X144125756Y-76650059D01*
X144125756Y-76650059D02*
X144220994Y-76650059D01*
X144220994Y-76650059D02*
X144268613Y-76626250D01*
X144268613Y-76626250D02*
X144292423Y-76602440D01*
X144292423Y-76602440D02*
X144316232Y-76554821D01*
X144316232Y-76554821D02*
X144316232Y-76150059D01*
X144816233Y-76650059D02*
X144530519Y-76650059D01*
X144673376Y-76650059D02*
X144673376Y-76150059D01*
X144673376Y-76150059D02*
X144625757Y-76221488D01*
X144625757Y-76221488D02*
X144578138Y-76269107D01*
X144578138Y-76269107D02*
X144530519Y-76292916D01*
X135516666Y-93428059D02*
X135350000Y-93189964D01*
X135230952Y-93428059D02*
X135230952Y-92928059D01*
X135230952Y-92928059D02*
X135421428Y-92928059D01*
X135421428Y-92928059D02*
X135469047Y-92951869D01*
X135469047Y-92951869D02*
X135492857Y-92975678D01*
X135492857Y-92975678D02*
X135516666Y-93023297D01*
X135516666Y-93023297D02*
X135516666Y-93094726D01*
X135516666Y-93094726D02*
X135492857Y-93142345D01*
X135492857Y-93142345D02*
X135469047Y-93166154D01*
X135469047Y-93166154D02*
X135421428Y-93189964D01*
X135421428Y-93189964D02*
X135230952Y-93189964D01*
X135683333Y-92928059D02*
X135992857Y-92928059D01*
X135992857Y-92928059D02*
X135826190Y-93118535D01*
X135826190Y-93118535D02*
X135897619Y-93118535D01*
X135897619Y-93118535D02*
X135945238Y-93142345D01*
X135945238Y-93142345D02*
X135969047Y-93166154D01*
X135969047Y-93166154D02*
X135992857Y-93213773D01*
X135992857Y-93213773D02*
X135992857Y-93332821D01*
X135992857Y-93332821D02*
X135969047Y-93380440D01*
X135969047Y-93380440D02*
X135945238Y-93404250D01*
X135945238Y-93404250D02*
X135897619Y-93428059D01*
X135897619Y-93428059D02*
X135754762Y-93428059D01*
X135754762Y-93428059D02*
X135707143Y-93404250D01*
X135707143Y-93404250D02*
X135683333Y-93380440D01*
X133619047Y-82128059D02*
X133619047Y-82532821D01*
X133619047Y-82532821D02*
X133642857Y-82580440D01*
X133642857Y-82580440D02*
X133666666Y-82604250D01*
X133666666Y-82604250D02*
X133714285Y-82628059D01*
X133714285Y-82628059D02*
X133809523Y-82628059D01*
X133809523Y-82628059D02*
X133857142Y-82604250D01*
X133857142Y-82604250D02*
X133880952Y-82580440D01*
X133880952Y-82580440D02*
X133904761Y-82532821D01*
X133904761Y-82532821D02*
X133904761Y-82128059D01*
X134119048Y-82175678D02*
X134142857Y-82151869D01*
X134142857Y-82151869D02*
X134190476Y-82128059D01*
X134190476Y-82128059D02*
X134309524Y-82128059D01*
X134309524Y-82128059D02*
X134357143Y-82151869D01*
X134357143Y-82151869D02*
X134380952Y-82175678D01*
X134380952Y-82175678D02*
X134404762Y-82223297D01*
X134404762Y-82223297D02*
X134404762Y-82270916D01*
X134404762Y-82270916D02*
X134380952Y-82342345D01*
X134380952Y-82342345D02*
X134095238Y-82628059D01*
X134095238Y-82628059D02*
X134404762Y-82628059D01*
X158628137Y-77000059D02*
X158461471Y-76761964D01*
X158342423Y-77000059D02*
X158342423Y-76500059D01*
X158342423Y-76500059D02*
X158532899Y-76500059D01*
X158532899Y-76500059D02*
X158580518Y-76523869D01*
X158580518Y-76523869D02*
X158604328Y-76547678D01*
X158604328Y-76547678D02*
X158628137Y-76595297D01*
X158628137Y-76595297D02*
X158628137Y-76666726D01*
X158628137Y-76666726D02*
X158604328Y-76714345D01*
X158604328Y-76714345D02*
X158580518Y-76738154D01*
X158580518Y-76738154D02*
X158532899Y-76761964D01*
X158532899Y-76761964D02*
X158342423Y-76761964D01*
X158818614Y-76547678D02*
X158842423Y-76523869D01*
X158842423Y-76523869D02*
X158890042Y-76500059D01*
X158890042Y-76500059D02*
X159009090Y-76500059D01*
X159009090Y-76500059D02*
X159056709Y-76523869D01*
X159056709Y-76523869D02*
X159080518Y-76547678D01*
X159080518Y-76547678D02*
X159104328Y-76595297D01*
X159104328Y-76595297D02*
X159104328Y-76642916D01*
X159104328Y-76642916D02*
X159080518Y-76714345D01*
X159080518Y-76714345D02*
X158794804Y-77000059D01*
X158794804Y-77000059D02*
X159104328Y-77000059D01*
X163028137Y-76922440D02*
X163004328Y-76946250D01*
X163004328Y-76946250D02*
X162932899Y-76970059D01*
X162932899Y-76970059D02*
X162885280Y-76970059D01*
X162885280Y-76970059D02*
X162813852Y-76946250D01*
X162813852Y-76946250D02*
X162766233Y-76898630D01*
X162766233Y-76898630D02*
X162742423Y-76851011D01*
X162742423Y-76851011D02*
X162718614Y-76755773D01*
X162718614Y-76755773D02*
X162718614Y-76684345D01*
X162718614Y-76684345D02*
X162742423Y-76589107D01*
X162742423Y-76589107D02*
X162766233Y-76541488D01*
X162766233Y-76541488D02*
X162813852Y-76493869D01*
X162813852Y-76493869D02*
X162885280Y-76470059D01*
X162885280Y-76470059D02*
X162932899Y-76470059D01*
X162932899Y-76470059D02*
X163004328Y-76493869D01*
X163004328Y-76493869D02*
X163028137Y-76517678D01*
X163194804Y-76470059D02*
X163504328Y-76470059D01*
X163504328Y-76470059D02*
X163337661Y-76660535D01*
X163337661Y-76660535D02*
X163409090Y-76660535D01*
X163409090Y-76660535D02*
X163456709Y-76684345D01*
X163456709Y-76684345D02*
X163480518Y-76708154D01*
X163480518Y-76708154D02*
X163504328Y-76755773D01*
X163504328Y-76755773D02*
X163504328Y-76874821D01*
X163504328Y-76874821D02*
X163480518Y-76922440D01*
X163480518Y-76922440D02*
X163456709Y-76946250D01*
X163456709Y-76946250D02*
X163409090Y-76970059D01*
X163409090Y-76970059D02*
X163266233Y-76970059D01*
X163266233Y-76970059D02*
X163218614Y-76946250D01*
X163218614Y-76946250D02*
X163194804Y-76922440D01*
X153219047Y-88728059D02*
X153219047Y-89132821D01*
X153219047Y-89132821D02*
X153242857Y-89180440D01*
X153242857Y-89180440D02*
X153266666Y-89204250D01*
X153266666Y-89204250D02*
X153314285Y-89228059D01*
X153314285Y-89228059D02*
X153409523Y-89228059D01*
X153409523Y-89228059D02*
X153457142Y-89204250D01*
X153457142Y-89204250D02*
X153480952Y-89180440D01*
X153480952Y-89180440D02*
X153504761Y-89132821D01*
X153504761Y-89132821D02*
X153504761Y-88728059D01*
X153957143Y-88894726D02*
X153957143Y-89228059D01*
X153838095Y-88704250D02*
X153719048Y-89061392D01*
X153719048Y-89061392D02*
X154028571Y-89061392D01*
X128051435Y-95860094D02*
X128289530Y-95860094D01*
X127789530Y-96026760D02*
X128051435Y-95860094D01*
X128051435Y-95860094D02*
X127789530Y-95693427D01*
X128289530Y-95264856D02*
X128289530Y-95550570D01*
X128289530Y-95407713D02*
X127789530Y-95407713D01*
X127789530Y-95407713D02*
X127860959Y-95455332D01*
X127860959Y-95455332D02*
X127908578Y-95502951D01*
X127908578Y-95502951D02*
X127932387Y-95550570D01*
X143273137Y-91822440D02*
X143249328Y-91846250D01*
X143249328Y-91846250D02*
X143177899Y-91870059D01*
X143177899Y-91870059D02*
X143130280Y-91870059D01*
X143130280Y-91870059D02*
X143058852Y-91846250D01*
X143058852Y-91846250D02*
X143011233Y-91798630D01*
X143011233Y-91798630D02*
X142987423Y-91751011D01*
X142987423Y-91751011D02*
X142963614Y-91655773D01*
X142963614Y-91655773D02*
X142963614Y-91584345D01*
X142963614Y-91584345D02*
X142987423Y-91489107D01*
X142987423Y-91489107D02*
X143011233Y-91441488D01*
X143011233Y-91441488D02*
X143058852Y-91393869D01*
X143058852Y-91393869D02*
X143130280Y-91370059D01*
X143130280Y-91370059D02*
X143177899Y-91370059D01*
X143177899Y-91370059D02*
X143249328Y-91393869D01*
X143249328Y-91393869D02*
X143273137Y-91417678D01*
X143701709Y-91536726D02*
X143701709Y-91870059D01*
X143582661Y-91346250D02*
X143463614Y-91703392D01*
X143463614Y-91703392D02*
X143773137Y-91703392D01*
%TO.C,C1*%
D12*
X167150219Y-90887000D02*
X167672723Y-90887000D01*
X167150219Y-92357000D02*
X167672723Y-92357000D01*
%TO.C,R1*%
X167184407Y-86894500D02*
X167638535Y-86894500D01*
X167184407Y-88364500D02*
X167638535Y-88364500D01*
%TO.C,C2*%
X158250219Y-81387000D02*
X158772723Y-81387000D01*
X158250219Y-82857000D02*
X158772723Y-82857000D01*
%TO.C,R7*%
X153384407Y-86287000D02*
X153838535Y-86287000D01*
X153384407Y-87757000D02*
X153838535Y-87757000D01*
%TO.C,R4*%
X145621471Y-97194936D02*
X145621471Y-97649064D01*
X147091471Y-97194936D02*
X147091471Y-97649064D01*
%TO.C,D1*%
X165826471Y-82662000D02*
X165826471Y-84582000D01*
X165826471Y-84582000D02*
X168511471Y-84582000D01*
X168511471Y-82662000D02*
X165826471Y-82662000D01*
%TO.C,J4*%
X176206471Y-81902000D02*
X177586471Y-81902000D01*
X176206471Y-83282000D02*
X176206471Y-81902000D01*
X176206471Y-84552000D02*
X176206471Y-89742000D01*
X176206471Y-84552000D02*
X178856471Y-84552000D01*
X176206471Y-89742000D02*
X181506471Y-89742000D01*
X178856471Y-81902000D02*
X181506471Y-81902000D01*
X178856471Y-84552000D02*
X178856471Y-81902000D01*
X181506471Y-81902000D02*
X181506471Y-89742000D01*
%TO.C,U3*%
D13*
X138611471Y-96102000D02*
X142611471Y-96102000D01*
X138611471Y-101142000D02*
X142611471Y-101142000D01*
D14*
X136266471Y-96127000D02*
G75*
G02*
X136066471Y-96127000I-100000J0D01*
G01*
X136066471Y-96127000D02*
G75*
G02*
X136266471Y-96127000I100000J0D01*
G01*
%TO.C,J3*%
D12*
X134701471Y-107052000D02*
X134701471Y-105672000D01*
X136081471Y-107052000D02*
X134701471Y-107052000D01*
X137351471Y-104292000D02*
X160321471Y-104292000D01*
X137351471Y-107052000D02*
X137351471Y-104292000D01*
X137351471Y-107052000D02*
X160321471Y-107052000D01*
X160321471Y-107052000D02*
X160321471Y-104292000D01*
%TO.C,Y2*%
X140901471Y-86362000D02*
X140901471Y-90082000D01*
X140901471Y-90082000D02*
X148271471Y-90082000D01*
X148271471Y-86362000D02*
X140901471Y-86362000D01*
%TO.C,J2*%
X178756471Y-91132000D02*
X180136471Y-91132000D01*
X178756471Y-92512000D02*
X178756471Y-91132000D01*
X178756471Y-93782000D02*
X178756471Y-101512000D01*
X178756471Y-93782000D02*
X181516471Y-93782000D01*
X178756471Y-101512000D02*
X181516471Y-101512000D01*
X181516471Y-93782000D02*
X181516471Y-101512000D01*
%TO.C,J1*%
X162321471Y-106902000D02*
X162321471Y-105522000D01*
X163701471Y-106902000D02*
X162321471Y-106902000D01*
X164971471Y-104142000D02*
X172701471Y-104142000D01*
X164971471Y-106902000D02*
X164971471Y-104142000D01*
X164971471Y-106902000D02*
X172701471Y-106902000D01*
X172701471Y-106902000D02*
X172701471Y-104142000D01*
%TO.C,R5*%
X171784407Y-90887000D02*
X172238535Y-90887000D01*
X171784407Y-92357000D02*
X172238535Y-92357000D01*
%TO.C,R6*%
X171784407Y-86852000D02*
X172238535Y-86852000D01*
X171784407Y-88322000D02*
X172238535Y-88322000D01*
%TO.C,BT1*%
X169156471Y-79402000D02*
X169156471Y-78022000D01*
X170536471Y-79402000D02*
X169156471Y-79402000D01*
X171806471Y-76642000D02*
X174456471Y-76642000D01*
X171806471Y-79402000D02*
X171806471Y-76642000D01*
X171806471Y-79402000D02*
X174456471Y-79402000D01*
X174456471Y-79402000D02*
X174456471Y-76642000D01*
%TO.C,C5*%
X171750219Y-82787000D02*
X172272723Y-82787000D01*
X171750219Y-84257000D02*
X172272723Y-84257000D01*
%TO.C,D2*%
X152826471Y-77462000D02*
X152826471Y-79382000D01*
X152826471Y-79382000D02*
X155511471Y-79382000D01*
X155511471Y-77462000D02*
X152826471Y-77462000D01*
%TO.C,U1*%
X141651471Y-77262000D02*
X147171471Y-77262000D01*
X141651471Y-77532000D02*
X141651471Y-77262000D01*
X141651471Y-82782000D02*
X141651471Y-82512000D01*
X147171471Y-77262000D02*
X147171471Y-77532000D01*
X147171471Y-82512000D02*
X147171471Y-82782000D01*
X147171471Y-82782000D02*
X141651471Y-82782000D01*
X140821471Y-77522000D02*
X140481471Y-77052000D01*
X141161471Y-77052000D01*
X140821471Y-77522000D01*
G36*
X140821471Y-77522000D02*
G01*
X140481471Y-77052000D01*
X141161471Y-77052000D01*
X140821471Y-77522000D01*
G37*
%TO.C,R3*%
X138783535Y-92587000D02*
X138329407Y-92587000D01*
X138783535Y-94057000D02*
X138329407Y-94057000D01*
%TO.C,U2*%
X131251471Y-83362000D02*
X136771471Y-83362000D01*
X131251471Y-83632000D02*
X131251471Y-83362000D01*
X131251471Y-88882000D02*
X131251471Y-88612000D01*
X136771471Y-83362000D02*
X136771471Y-83632000D01*
X136771471Y-88612000D02*
X136771471Y-88882000D01*
X136771471Y-88882000D02*
X131251471Y-88882000D01*
X130421471Y-83622000D02*
X130081471Y-83152000D01*
X130761471Y-83152000D01*
X130421471Y-83622000D01*
G36*
X130421471Y-83622000D02*
G01*
X130081471Y-83152000D01*
X130761471Y-83152000D01*
X130421471Y-83622000D01*
G37*
%TO.C,R2*%
X158484407Y-77687000D02*
X158938535Y-77687000D01*
X158484407Y-79157000D02*
X158938535Y-79157000D01*
%TO.C,C3*%
X162850219Y-77687000D02*
X163372723Y-77687000D01*
X162850219Y-79157000D02*
X163372723Y-79157000D01*
%TO.C,U4*%
D13*
X153711471Y-91322000D02*
X153711471Y-91427000D01*
X153711471Y-91322000D02*
X153816471Y-91322000D01*
X153711471Y-98322000D02*
X153711471Y-98217000D01*
X153711471Y-98322000D02*
X153816471Y-98322000D01*
X160711471Y-91322000D02*
X160606471Y-91322000D01*
X160711471Y-91322000D02*
X160711471Y-91427000D01*
X160711471Y-98322000D02*
X160606471Y-98322000D01*
X160711471Y-98322000D02*
X160711471Y-98217000D01*
D14*
X151471471Y-92022000D02*
G75*
G02*
X151271471Y-92022000I-100000J0D01*
G01*
X151271471Y-92022000D02*
G75*
G02*
X151471471Y-92022000I100000J0D01*
G01*
%TO.C,Y1*%
D12*
X129001471Y-92862000D02*
X129001471Y-100232000D01*
X129001471Y-100232000D02*
X132721471Y-100232000D01*
X132721471Y-100232000D02*
X132721471Y-92862000D01*
%TO.C,C4*%
X143095219Y-92587000D02*
X143617723Y-92587000D01*
X143095219Y-94057000D02*
X143617723Y-94057000D01*
%TD*%
M02*
